<svg width="31" height="31" viewBox="0 0 31 31" fill="none" xmlns="http://www.w3.org/2000/svg">
<g id="telegram">
<path id="Subtract" fill-rule="evenodd" clip-rule="evenodd" d="M15.4286 0C13.4025 -3.01914e-08 11.3962 0.399072 9.52431 1.17443C7.65243 1.94979 5.9516 3.08625 4.51892 4.51892C3.08625 5.9516 1.94979 7.65243 1.17443 9.52431C0.399072 11.3962 0 13.4025 0 15.4286C0 17.4547 0.399072 19.4609 1.17443 21.3328C1.94979 23.2047 3.08625 24.9055 4.51892 26.3382C5.9516 27.7709 7.65243 28.9074 9.52431 29.6827C11.3962 30.4581 13.4025 30.8571 15.4286 30.8571C19.5205 30.8571 23.4448 29.2316 26.3382 26.3382C29.2316 23.4448 30.8571 19.5205 30.8571 15.4286C30.8571 11.3367 29.2316 7.41234 26.3382 4.51892C23.4448 1.62551 19.5205 6.09742e-08 15.4286 0Z" fill="#37D7FF"/>
<path id="Subtract_2" fill-rule="evenodd" clip-rule="evenodd" d="M22.9646 6.5874L20.576 24.7177L16.1212 21.1497L12.2698 24.816V18.5828L17.3623 14.6468C17.6024 14.4616 17.759 14.1887 17.7978 13.888C17.8366 13.5873 17.7544 13.2835 17.5692 13.0434C17.384 12.8033 17.111 12.6467 16.8103 12.6079C16.5096 12.5691 16.2058 12.6513 15.9658 12.8365L9.82633 17.584L4.30176 15.5817L22.9646 6.5874Z" fill="white"/>
</g>
</svg>
