<svg width="20" height="19" viewBox="0 0 20 19" fill="none" xmlns="http://www.w3.org/2000/svg">
<g id="Combined Shape">
<path fill-rule="evenodd" clip-rule="evenodd" d="M19 1V14H11L5 18V14H1V1H19Z" fill="#D8D8D8"/>
<path d="M19 14V14.5C19.2761 14.5 19.5 14.2761 19.5 14H19ZM19 1H19.5C19.5 0.723858 19.2761 0.5 19 0.5V1ZM11 14V13.5C10.9013 13.5 10.8048 13.5292 10.7226 13.584L11 14ZM5 18H4.5C4.5 18.1844 4.60149 18.3538 4.76407 18.4408C4.92665 18.5278 5.12392 18.5183 5.27735 18.416L5 18ZM5 14H5.5C5.5 13.7239 5.27614 13.5 5 13.5V14ZM1 14H0.5C0.5 14.2761 0.723858 14.5 1 14.5V14ZM1 1V0.5C0.723858 0.5 0.5 0.723858 0.5 1H1ZM19.5 14V1H18.5V14H19.5ZM11 14.5H19V13.5H11V14.5ZM5.27735 18.416L11.2774 14.416L10.7226 13.584L4.72265 17.584L5.27735 18.416ZM4.5 14V18H5.5V14H4.5ZM1 14.5H5V13.5H1V14.5ZM0.5 1V14H1.5V1H0.5ZM19 0.5H1V1.5H19V0.5Z" fill="white"/>
</g>
</svg>
