<svg width="21" height="17" viewBox="0 0 21 17" fill="none" xmlns="http://www.w3.org/2000/svg">
<g id="Frame" clip-path="url(#clip0_1284_15333)">
<g id="Group">
<path id="Vector" d="M2.67221 9.33604C2.58967 9.34255 2.48325 9.34907 2.37682 9.35559C1.38206 9.42726 0.576256 8.52807 0.760874 7.55502C0.828205 7.19665 1.13228 6.8904 1.49934 6.83176C1.83383 6.77746 2.12053 6.89475 2.26605 7.19882C2.33338 7.33783 2.35293 7.59412 2.27039 7.68969C2.17265 7.80046 1.94242 7.79828 1.7665 7.83086C1.71654 7.83955 1.66007 7.80263 1.59925 7.78525C1.59274 8.19141 1.80993 8.46725 2.16397 8.53024C2.4637 8.58236 2.87854 8.38689 2.95891 8.13711C3.53448 6.36696 4.7573 5.3331 6.5622 4.95518C6.62085 4.94214 6.67515 4.9226 6.7403 4.90522C6.64039 4.55119 6.53397 4.21671 6.4536 3.87571C6.41451 3.71064 6.3689 3.51299 6.42754 3.37181C6.49487 3.20891 6.65994 3.01561 6.81198 2.9852C6.92058 2.96348 7.10954 3.17199 7.20293 3.31534C7.27461 3.42828 7.25289 3.59987 7.27461 3.74322C7.46574 4.99644 8.52132 5.90215 9.77672 5.88695C11.0604 5.87175 12.129 4.93346 12.2745 3.68892C12.4265 2.39877 11.6316 1.20419 10.3849 0.919658C10.0135 0.834952 9.6073 0.865359 9.22069 0.900111C8.92965 0.926174 8.68639 0.913143 8.61906 0.591691C8.54955 0.261552 8.78196 0.133406 9.05997 0.0791065C10.3501 -0.177186 11.4491 0.189877 12.3027 1.17161C13.1389 2.13162 13.3474 3.25018 12.9326 4.46648C12.8913 4.59029 12.8479 4.71409 12.7871 4.8835C13.0325 4.8835 13.241 4.91174 13.4365 4.87047C13.519 4.85309 13.5907 4.69888 13.6341 4.59463C13.8166 4.13417 13.9643 3.65634 14.1706 3.20457C14.3074 2.90918 14.5789 2.87443 14.8548 3.05036C15.7453 3.61942 16.4208 4.37092 16.8074 5.36785C16.866 5.51772 16.9703 5.67193 17.0963 5.76749C17.9433 6.41691 18.5211 7.24226 18.7817 8.27612C18.8469 8.53675 18.9533 8.63015 19.2291 8.62146C19.8242 8.60191 19.8872 8.66924 20.0545 9.22961C20.3564 10.2461 20.352 11.2582 19.9937 12.2552C19.9285 12.4354 19.7482 12.6418 19.5745 12.7004C19.0336 12.885 18.6579 13.1913 18.3256 13.68C17.5915 14.7594 16.5902 15.5218 15.2892 15.8519C15.0763 15.9062 14.8635 16.0974 14.7288 16.2842C14.3335 16.8293 13.8383 17.0009 13.1606 16.9987C12.5069 16.9966 12.0529 16.8076 11.6533 16.3102C11.2124 15.7629 10.1503 15.752 9.71373 16.3081C9.30323 16.8315 8.82974 17.0813 8.16946 16.9749C8.02611 16.951 7.87407 16.9596 7.72855 16.9727C7.40493 17.0031 7.16601 16.8836 6.96836 16.6273C6.56437 16.1082 6.06048 15.7781 5.41757 15.5392C3.9124 14.9853 3.12832 13.7799 2.90461 12.2356C2.76994 11.2952 2.74823 10.3373 2.67221 9.33604ZM9.88532 7.25964C9.3597 7.25964 8.83625 7.26181 8.31064 7.25964C8.00656 7.25746 7.8176 7.38561 7.80023 7.70272C7.78285 8.00679 7.95878 8.21096 8.28892 8.2153C9.32712 8.22616 10.3631 8.22616 11.4014 8.2153C11.751 8.21096 11.9747 7.99376 11.9443 7.70706C11.9096 7.38344 11.7054 7.25312 11.3883 7.25529C10.8866 7.26398 10.3849 7.25964 9.88532 7.25964ZM15.9625 8.4868C15.9364 8.50635 15.9104 8.52589 15.8821 8.54544C16.0016 8.71485 16.1124 9.01893 16.2427 9.02762C16.5511 9.04934 16.5229 8.73875 16.5359 8.51286C16.5402 8.44119 16.5533 8.35431 16.5207 8.29784C16.4512 8.18055 16.3534 8.08064 16.2687 7.97421C16.1753 8.07195 16.0711 8.16317 15.9929 8.27177C15.956 8.32607 15.9712 8.41512 15.9625 8.4868Z" fill="#E275F9"/>
<path id="Vector_2" d="M9.79334 5.10845C9.64782 5.0042 9.5175 4.87822 9.36112 4.80872C9.0527 4.67188 8.87025 4.46338 8.83984 4.07894C9.29813 3.98989 9.18301 4.7175 9.6804 4.58066C9.6804 4.24835 9.69343 3.87694 9.66954 3.50988C9.66519 3.44907 9.51315 3.37956 9.41759 3.34264C9.08962 3.21666 8.88111 2.99512 8.86591 2.63892C8.8507 2.29575 9.0831 2.02425 9.44365 1.86787C9.57614 1.80923 9.67822 1.67891 9.8042 1.57031C9.85198 2.03077 10.6795 1.83312 10.5752 2.57159C10.3428 2.38697 10.1495 2.23276 9.86067 2.00253C9.86067 2.4239 9.84329 2.73449 9.8737 3.04074C9.88022 3.11893 10.0279 3.20798 10.1278 3.24924C10.5731 3.42735 10.7295 3.61848 10.7251 4.02029C10.7208 4.40256 10.4927 4.6784 10.1061 4.8413C9.96927 4.89777 9.8737 5.03677 9.79334 5.10845ZM9.8889 4.60021C10.2907 4.50247 10.4167 4.31351 10.3733 3.93559C10.3407 3.65757 10.1843 3.53812 9.8889 3.55115C9.8889 3.90084 9.8889 4.23749 9.8889 4.60021ZM9.64347 3.11458C9.64347 2.75621 9.64347 2.44779 9.64347 2.12634C9.32854 2.13285 9.22645 2.33485 9.20473 2.57376C9.1765 2.84743 9.32636 3.02119 9.64347 3.11458Z" fill="#E275F9"/>
<path id="Vector_3" d="M7.90058 0.730469C7.96791 0.78694 8.12429 0.858615 8.16121 0.969385C8.20465 1.09753 8.19162 1.29084 8.11777 1.40161C7.93316 1.68396 7.72465 1.9598 7.47922 2.19003C7.37713 2.28777 7.13387 2.32904 7.00355 2.27691C6.89278 2.2313 6.75378 1.94677 6.79722 1.88161C7.06437 1.49066 7.37931 1.12794 7.68338 0.763048C7.7051 0.734813 7.77678 0.747845 7.90058 0.730469Z" fill="#E275F9"/>
</g>
</g>
<defs>
<clipPath id="clip0_1284_15333">
<rect width="19.5347" height="17" fill="white" transform="translate(0.734375)"/>
</clipPath>
</defs>
</svg>
