<svg width="34" height="34" viewBox="0 0 34 34" fill="none" xmlns="http://www.w3.org/2000/svg">
<g id="eye-scan_svgrepo.com">
<path id="Vector" d="M17.0013 15.2295C16.0232 15.2295 15.2305 16.0223 15.2305 17.0003C15.2305 17.9784 16.0232 18.7712 17.0013 18.7712C17.9794 18.7712 18.7721 17.9784 18.7721 17.0003C18.7721 16.0223 17.9794 15.2295 17.0013 15.2295Z" fill="white"/>
<path id="Vector_2" fill-rule="evenodd" clip-rule="evenodd" d="M8.34631 19.9184C7.50345 18.9407 7.08203 18.4518 7.08203 17.0003C7.08203 15.5488 7.50346 15.0599 8.34629 14.0823C10.0292 12.1301 12.8517 9.91699 16.9987 9.91699C21.1457 9.91699 23.9681 12.1301 25.6511 14.0823C26.4939 15.0599 26.9154 15.5488 26.9154 17.0003C26.9154 18.4518 26.4939 18.9407 25.6511 19.9184C23.9681 21.8705 21.1457 24.0837 16.9987 24.0837C12.8517 24.0837 10.0292 21.8705 8.34631 19.9184ZM13.1029 17.0003C13.1029 14.8487 14.8471 13.1045 16.9987 13.1045C19.1503 13.1045 20.8945 14.8487 20.8945 17.0003C20.8945 19.152 19.1503 20.8962 16.9987 20.8962C14.8471 20.8962 13.1029 19.152 13.1029 17.0003Z" fill="white"/>
</g>
</svg>
