<svg xmlns="http://www.w3.org/2000/svg" width="17" height="17" viewBox="0 0 17 17" fill="none">
  <g clip-path="url(#clip0_1284_15261)">
    <path d="M6.89673 14.9469C6.89673 15.5202 6.90504 16.0519 6.88842 16.592C6.88011 16.7333 6.83026 16.9161 6.73055 16.9908C6.66408 17.0407 6.45636 16.9576 6.34834 16.8745C4.52869 15.57 2.70904 14.2655 0.897704 12.9444C0.78138 12.8613 0.731526 12.6868 0.648438 12.5539C0.789689 12.4957 0.93094 12.3794 1.07219 12.3794C6.02429 12.3711 10.9764 12.3711 15.9285 12.3711C16.3273 12.3711 16.3689 12.4126 16.3689 12.8032C16.3689 13.3599 16.3689 13.9165 16.3689 14.4732C16.3689 14.9219 16.3439 14.9469 15.9036 14.9469C13.0536 14.9469 10.2037 14.9469 7.35372 14.9469C7.22908 14.9469 7.09614 14.9469 6.89673 14.9469Z" fill="#B7B7B7"/>
    <path d="M8.49353 4.61882C6.0424 4.61882 3.59128 4.61882 1.14846 4.61882C0.649927 4.61882 0.625 4.59389 0.625 4.10367C0.625 3.58021 0.625 3.04844 0.625 2.52498C0.625 2.09291 0.658236 2.05137 1.0903 2.05137C3.94856 2.05137 6.80682 2.05137 9.66508 2.05137C10.1138 2.05137 10.1138 2.05137 10.1138 1.611C10.1138 1.18724 10.1055 0.771798 10.1221 0.348045C10.1304 0.23172 10.1802 0.0655423 10.2633 0.00737999C10.3298 -0.0341645 10.5043 0.0156889 10.5957 0.0821601C12.4486 1.41158 14.3014 2.74101 16.146 4.08705C16.2457 4.16183 16.2873 4.3197 16.3537 4.43602C16.2208 4.49418 16.0879 4.6022 15.9549 4.6022C13.4789 4.62713 10.9862 4.61882 8.49353 4.61882Z" fill="#B7B7B7"/>
    <path d="M8.481 5.43359C10.0265 5.43359 11.5719 5.43359 13.1174 5.43359C13.5079 5.43359 13.5577 5.47514 13.5577 5.86566C13.5577 7.61883 13.5577 9.38032 13.5577 11.1335C13.5577 11.524 13.5079 11.5656 13.1174 11.5656C10.0348 11.5656 6.96047 11.5656 3.87787 11.5656C3.47904 11.5656 3.4375 11.524 3.4375 11.1418C3.4375 9.38863 3.4375 7.62714 3.4375 5.87397C3.4375 5.48345 3.48735 5.4419 3.87787 5.4419C5.40671 5.43359 6.94385 5.43359 8.481 5.43359ZM8.48931 6.47221C7.70827 6.47221 6.93554 6.47221 6.15451 6.47221C5.78061 6.47221 5.59781 6.63838 5.47318 6.99567C5.43164 7.11199 5.29038 7.24493 5.16575 7.28648C4.83339 7.39449 4.65891 7.5856 4.65891 7.93457C4.65891 8.30016 4.65891 8.67406 4.65891 9.03965C4.65891 9.43017 4.83339 9.61297 5.20729 9.72929C5.32362 9.76253 5.44825 9.89547 5.48149 10.0118C5.59781 10.3608 5.79723 10.5353 6.16282 10.5353C7.71658 10.5353 9.27034 10.5353 10.8324 10.5353C11.2146 10.5353 11.4057 10.3608 11.5304 9.98687C11.5719 9.87885 11.7049 9.75422 11.8212 9.72098C12.1535 9.62128 12.3446 9.42186 12.3446 9.0812C12.3446 8.69899 12.3446 8.32509 12.3446 7.94288C12.3446 7.56067 12.1868 7.39449 11.8212 7.27817C11.7049 7.24493 11.5719 7.1203 11.5304 7.00398C11.4057 6.63008 11.2312 6.47221 10.8324 6.4639C10.0431 6.47221 9.27034 6.47221 8.48931 6.47221Z" fill="#B7B7B7"/>
    <path d="M8.50391 7.00391C9.35142 7.00391 9.99951 7.652 9.99951 8.49951C9.99951 9.33871 9.34311 10.0034 8.50391 10.0034C7.67302 10.0034 7 9.3304 7 8.49951C7 7.66862 7.66471 7.00391 8.50391 7.00391ZM9.06061 8.07575C8.90274 7.82649 8.79472 7.63538 8.67009 7.45259C8.66178 7.44428 8.56207 7.48582 8.52053 7.51906C8.42082 7.61046 8.34604 7.72678 8.23803 7.80987C7.98876 7.99266 7.98045 8.34995 8.24633 8.52443C8.34604 8.59091 8.47898 8.62414 8.587 8.69061C8.64516 8.73216 8.68671 8.81525 8.72825 8.87341C8.65347 8.92326 8.587 9.00635 8.51222 9.00635C8.36266 9.01466 8.2131 8.97311 7.95552 8.93988C8.13832 9.20576 8.27126 9.39687 8.4042 9.57966C8.41251 9.58797 8.50391 9.53812 8.54545 9.50488C8.64516 9.41349 8.75318 9.3304 8.82796 9.23069C8.92766 9.10606 9.06892 8.96481 9.06892 8.82355C9.06892 8.69061 8.93597 8.54105 8.82796 8.43304C8.76149 8.36656 8.62854 8.35826 8.54545 8.30009C8.48729 8.25855 8.46237 8.17546 8.42913 8.10899C8.48729 8.05914 8.55376 7.99266 8.62023 7.99266C8.72825 7.99266 8.84457 8.03421 9.06061 8.07575Z" fill="#B7B7B7"/>
  </g>
  <defs>
    <clipPath id="clip0_1284_15261">
      <rect width="15.7537" height="17" fill="white" transform="translate(0.625)"/>
    </clipPath>
  </defs>
</svg>