<svg width="33" height="37" viewBox="0 0 33 37" fill="none" xmlns="http://www.w3.org/2000/svg">
<g clip-path="url(#clip0_1999_11694)">
<path d="M16.731 36.8731C16.5711 37.0422 16.4155 37.0422 16.2615 36.8659C16.53 36.638 16.417 36.3313 16.417 36.0604C16.4244 30.4635 16.4111 24.8651 16.4376 19.2682C16.4405 18.6633 16.2336 18.3351 15.7068 18.0413C11.3516 15.6076 7.02135 13.1309 2.65882 10.7129C1.80333 10.2385 1.02562 9.58781 0.0189956 9.39002C-0.0323628 9.12629 0.199484 9.08043 0.357961 8.99157C5.59212 6.03759 10.8307 3.08934 16.059 0.125326C16.4508 -0.0968318 16.7296 0.00779729 17.0627 0.195556C20.6079 2.19784 24.1575 4.19296 27.7056 6.19095C29.2053 7.03515 30.7064 7.87648 32.2031 8.72641C32.4717 8.87834 32.7827 8.97867 32.9632 9.25386C30.815 10.4678 28.6697 11.6833 26.52 12.8944C23.3592 14.6759 20.2014 16.4632 17.0289 18.2219C16.6445 18.4354 16.5476 18.6733 16.5491 19.0689C16.5593 24.7848 16.5549 30.5007 16.5579 36.2152C16.5579 36.4445 16.4889 36.6996 16.731 36.8731Z" fill="#E176F8"/>
<path d="M16.7291 36.8731C16.487 36.6997 16.556 36.4446 16.556 36.2152C16.553 30.4993 16.5574 24.7834 16.5472 19.069C16.5472 18.6734 16.6425 18.4355 17.027 18.2219C20.2009 16.4633 23.3588 14.676 26.518 12.8944C28.6677 11.6833 30.8131 10.4679 32.9613 9.25391C32.9716 11.7521 32.9877 14.2517 32.9921 16.7499C32.998 20.2013 32.9877 23.654 32.9995 27.1053C33.0009 27.5138 32.9422 27.8034 32.527 28.0355C27.3222 30.9451 22.1291 33.8747 16.9331 36.7972C16.8714 36.8316 16.7981 36.8473 16.7291 36.8731Z" fill="#E04DFE"/>
<path d="M0.019076 9.39062C1.0257 9.58985 1.80195 10.2391 2.6589 10.7135C7.02143 13.1315 11.3502 15.6082 15.7054 18.0404C16.2322 18.3357 16.4391 18.6625 16.4362 19.2673C16.4112 24.8643 16.423 30.4626 16.4156 36.0596C16.4156 36.3305 16.5286 36.6372 16.2601 36.8651C10.9804 33.9011 5.70079 30.9328 0.41527 27.9773C0.088043 27.7967 0 27.5803 0 27.2363C0.0132065 21.2868 0.0146738 15.3387 0.019076 9.39062Z" fill="#B33CC9"/>
<path d="M4.75 14.5C4.75 12.6144 4.75 11.6716 5.33579 11.0858C5.92157 10.5 6.86438 10.5 8.75 10.5H23.25C25.1356 10.5 26.0784 10.5 26.6642 11.0858C27.25 11.6716 27.25 12.6144 27.25 14.5V21.5C27.25 23.3856 27.25 24.3284 26.6642 24.9142C26.0784 25.5 25.1356 25.5 23.25 25.5H8.75C6.86438 25.5 5.92157 25.5 5.33579 24.9142C4.75 24.3284 4.75 23.3856 4.75 21.5V14.5Z" fill="white" fill-opacity="0.98"/>
<circle cx="8.5" cy="21.75" r="1.25" fill="#222222"/>
<rect x="4.75" y="14.25" width="22.5" height="2.5" fill="#222222"/>
</g>
<defs>
<clipPath id="clip0_1999_11694">
<rect width="33" height="37" fill="white"/>
</clipPath>
</defs>
</svg>
