<svg width="14" height="14" viewBox="0 0 14 14" fill="none" xmlns="http://www.w3.org/2000/svg">
<path id="Vector" d="M12.6637 5.08558C11.3973 5.08558 10.8796 4.20412 11.5092 3.12296C11.8731 2.4963 11.6562 1.69748 11.0195 1.33938L9.8091 0.65763C9.25637 0.33397 8.54273 0.526789 8.21389 1.07081L8.13693 1.20166C7.50725 2.28282 6.47176 2.28282 5.83508 1.20166L5.75812 1.07081C5.44328 0.526789 4.72964 0.33397 4.17691 0.65763L2.96652 1.33938C2.32983 1.69748 2.11294 2.50318 2.47676 3.12985C3.11344 4.20412 2.5957 5.08558 1.32934 5.08558C0.601699 5.08558 0 5.67093 0 6.394V7.606C0 8.32219 0.594703 8.91442 1.32934 8.91442C2.5957 8.91442 3.11344 9.79588 2.47676 10.877C2.11294 11.5037 2.32983 12.3025 2.96652 12.6606L4.17691 13.3424C4.72964 13.666 5.44328 13.4732 5.77211 12.9292L5.84908 12.7983C6.47876 11.7172 7.51424 11.7172 8.15092 12.7983L8.22789 12.9292C8.55672 13.4732 9.27037 13.666 9.82309 13.3424L11.0335 12.6606C11.6702 12.3025 11.8871 11.4968 11.5232 10.877C10.8866 9.79588 11.4043 8.91442 12.6707 8.91442C13.3983 8.91442 14 8.32907 14 7.606V6.394C13.993 5.67781 13.3983 5.08558 12.6637 5.08558ZM6.9965 9.23808C5.74413 9.23808 4.72264 8.23267 4.72264 7C4.72264 5.76734 5.74413 4.76192 6.9965 4.76192C8.24888 4.76192 9.27036 5.76734 9.27036 7C9.27036 8.23267 8.24888 9.23808 6.9965 9.23808Z" fill="white"/>
</svg>
