<svg width="95" height="91" viewBox="0 0 95 91" fill="none" xmlns="http://www.w3.org/2000/svg">
<g id="bot.d558e5a7 1" clip-path="url(#clip0_511_12419)">
<path id="Path 29588" d="M92.9578 45.5C92.9578 54.499 90.2916 63.296 85.2965 70.7784C80.3013 78.2609 73.2016 84.0927 64.895 87.5365C56.5883 90.9803 47.448 91.8814 38.6297 90.1257C29.8115 88.3701 21.7114 84.0366 15.3538 77.6734C8.99621 71.3101 4.66663 63.2027 2.91257 54.3766C1.15851 45.5505 2.05876 36.4019 5.49947 28.0879C8.94018 19.7739 14.7668 12.6677 22.2426 7.66813C29.7183 2.66853 38.5074 0 47.4984 0C59.555 0 71.1178 4.79374 79.643 13.3266C88.1683 21.8595 92.9578 33.4326 92.9578 45.5Z" fill="#30D6CE"/>
<path id="Path 29589" d="M89.4339 31.5716C89.4339 32.0641 89.2384 32.5364 88.8905 32.8847C88.5426 33.2329 88.0707 33.4285 87.5786 33.4285C87.0866 33.4285 86.6147 33.2329 86.2668 32.8847C85.9189 32.5364 85.7234 32.0641 85.7234 31.5716C85.7146 24.1865 82.7798 17.1064 77.5627 11.884C72.3457 6.66167 65.2722 3.72346 57.8937 3.7138H37.1087C29.7299 3.72289 22.6558 6.66085 17.4383 11.8833C12.2208 17.1057 9.28568 24.1862 9.27689 31.5716C9.27689 32.0641 9.08143 32.5364 8.7335 32.8847C8.38558 33.2329 7.91369 33.4285 7.42165 33.4285C6.92961 33.4285 6.45772 33.2329 6.10979 32.8847C5.76187 32.5364 5.56641 32.0641 5.56641 31.5716C5.57577 23.2014 8.90194 15.1766 14.8152 9.25784C20.7285 3.33907 28.746 0.00965362 37.1087 0L57.8937 0C66.2561 0.0102213 74.273 3.33989 80.1858 9.2586C86.0986 15.1773 89.4245 23.2017 89.4339 31.5716Z" fill="#025F80"/>
<path id="Path 29590" d="M95 27.4377V34.8664C95 36.3441 94.4135 37.7613 93.3695 38.8062C92.3255 39.8511 90.9096 40.4382 89.4332 40.4382H87.2071C87.1602 40.898 86.9445 41.324 86.6018 41.6338C86.2591 41.9436 85.8137 42.1151 85.3519 42.1151C84.8901 42.1151 84.4447 41.9436 84.102 41.6338C83.7592 41.324 83.5435 40.898 83.4966 40.4382H80.157C79.9134 40.4382 79.6721 40.3901 79.447 40.2968C79.2219 40.2035 79.0174 40.0667 78.8451 39.8943C78.6729 39.7219 78.5362 39.5171 78.443 39.2919C78.3497 39.0666 78.3017 38.8251 78.3017 38.5813V23.7239C78.302 23.2316 78.4976 22.7596 78.8455 22.4116C79.1934 22.0636 79.6651 21.8681 80.157 21.8681H82.9222L82.3123 20.2021C82.0986 19.5174 82.1567 18.7766 82.4745 18.1337C82.7924 17.4907 83.3454 16.9951 84.0189 16.7497C84.6923 16.5043 85.4344 16.528 86.0908 16.8159C86.7472 17.1039 87.2675 17.6339 87.5437 18.2959L88.8502 21.8681H89.4386C90.9137 21.8695 92.3279 22.4568 93.3707 23.5011C94.4134 24.5454 94.9994 25.9613 95 27.4377ZM14.8441 21.8681H12.0789L12.6845 20.2032C12.8995 19.5182 12.8423 18.7765 12.5247 18.1327C12.2072 17.4888 11.6538 16.9923 10.9797 16.7466C10.3057 16.5008 9.56288 16.5247 8.90598 16.8133C8.24909 17.1019 7.72869 17.6329 7.45312 18.2959L6.1552 21.8681H5.5668C4.09076 21.8681 2.67515 22.4548 1.63124 23.4992C0.58732 24.5437 0.000568362 25.9603 0 27.4377L0 34.8664C0 36.3441 0.5865 37.7613 1.63048 38.8062C2.67446 39.8511 4.09039 40.4382 5.5668 40.4382H14.8441C15.0877 40.4382 15.329 40.3901 15.5541 40.2968C15.7791 40.2035 15.9837 40.0667 16.1559 39.8943C16.3282 39.7219 16.4649 39.5171 16.5581 39.2919C16.6513 39.0666 16.6993 38.8251 16.6993 38.5813V23.7239C16.699 23.2316 16.5035 22.7596 16.1556 22.4116C15.8077 22.0636 15.3359 21.8681 14.8441 21.8681Z" fill="#FF6466"/>
<path id="Path 29591" d="M89.4343 27.439V34.8677C89.4343 36.3454 88.8478 37.7626 87.8038 38.8075C86.7598 39.8524 85.3439 40.4395 83.8675 40.4395H80.157C79.6649 40.4395 79.1931 40.2438 78.8451 39.8956C78.4972 39.5474 78.3017 39.075 78.3017 38.5826V23.7241C78.3017 23.4803 78.3497 23.2388 78.443 23.0135C78.5362 22.7882 78.6729 22.5835 78.8451 22.4111C79.0174 22.2387 79.2219 22.1019 79.447 22.0086C79.6721 21.9153 79.9134 21.8672 80.157 21.8672H83.8675C85.3439 21.8672 86.7598 22.4543 87.8038 23.4992C88.8478 24.5441 89.4343 25.9613 89.4343 27.439ZM5.5668 34.8677V27.439C5.56681 26.3472 5.8873 25.2794 6.48847 24.3684C7.08964 23.4574 7.94498 22.7432 8.94825 22.3146C8.99878 22.2947 9.04073 22.2577 9.06675 22.21C9.09278 22.1623 9.10123 22.107 9.09064 22.0537C9.08004 22.0004 9.05106 21.9525 9.00877 21.9184C8.96649 21.8843 8.91358 21.8662 8.85929 21.8672H5.5668C4.83576 21.8672 4.11187 22.0113 3.43648 22.2914C2.76108 22.5714 2.1474 22.9818 1.63048 23.4992C1.11355 24.0166 0.703505 24.6308 0.423747 25.3068C0.14399 25.9828 0 26.7073 0 27.439L0 34.8677C-1.35533e-08 35.5993 0.143997 36.3238 0.423768 36.9998C0.703539 37.6757 1.1136 38.2898 1.63054 38.8071C2.14748 39.3245 2.76117 39.7348 3.43656 40.0147C4.11195 40.2945 4.83581 40.4385 5.5668 40.4384H11.1336C9.65738 40.4384 8.2416 39.8515 7.19766 38.8068C6.15371 37.7622 5.56708 36.3452 5.5668 34.8677Z" fill="#FF393A"/>
<path id="Path 29592" d="M53.0672 61.0537C53.0672 65.1558 50.5753 68.4824 47.5004 68.4824C44.4255 68.4824 41.9336 65.1569 41.9336 61.0537C41.9336 56.9505 44.4255 53.625 47.5004 53.625C50.5753 53.625 53.0672 56.9515 53.0672 61.0537Z" fill="#0069A3"/>
<path id="Path 29593" d="M53.0658 61.0508C53.133 62.3762 52.8616 63.6969 52.2773 64.8882C51.6929 66.0795 50.8149 67.1021 49.7261 67.8595C48.6363 67.1027 47.7573 66.0804 47.172 64.8891C46.5867 63.6977 46.3145 62.3767 46.3811 61.0508C46.3139 59.7254 46.5853 58.4047 47.1696 57.2134C47.754 56.0222 48.632 54.9996 49.7208 54.2422C50.8106 54.9989 51.6896 56.0213 52.2749 57.2126C52.8602 58.4039 53.1324 59.7249 53.0658 61.0508Z" fill="#0088CC"/>
<path id="Path 29594" d="M82.9422 32.2672C82.9425 35.6818 82.2708 39.0629 80.9655 42.2176C79.6601 45.3723 77.7468 48.2388 75.3346 50.6533C72.9224 53.0678 70.0587 54.9832 66.9069 56.2899C63.7551 57.5966 60.3771 58.2692 56.9656 58.2692H38.0391C31.1497 58.2692 24.5424 55.53 19.6709 50.654C14.7993 45.7781 12.0625 39.165 12.0625 32.2694C12.0625 25.3738 14.7993 18.7606 19.6709 13.8847C24.5424 9.00879 31.1497 6.26953 38.0391 6.26953H56.9656C63.8546 6.26953 70.4616 9.0085 75.3331 13.884C80.2046 18.7594 82.9416 25.372 82.9422 32.2672ZM57.8927 61.9809H37.112C32.3165 61.9797 27.6143 63.3075 23.5264 65.8171C19.4386 68.3266 16.1247 71.92 13.952 76.1989C18.2112 80.8622 23.3941 84.5865 29.1706 87.1345C34.947 89.6826 41.1903 90.9985 47.5029 90.9985C53.8154 90.9985 60.0588 89.6826 65.8352 87.1345C71.6117 84.5865 76.7945 80.8622 81.0537 76.1989C78.881 71.9198 75.567 68.3263 71.4789 65.8168C67.3908 63.3072 62.6884 61.9795 57.8927 61.9809Z" fill="#97F0F2"/>
<path id="Path 29595" d="M56.9626 58.2692H45.2696C38.3802 58.2692 31.7729 55.53 26.9013 50.654C22.0298 45.7781 19.293 39.165 19.293 32.2694C19.293 25.3738 22.0298 18.7606 26.9013 13.8847C31.7729 9.00879 38.3802 6.26953 45.2696 6.26953H56.9626C63.8521 6.26953 70.4593 9.00879 75.3309 13.8847C80.2024 18.7606 82.9393 25.3738 82.9393 32.2694C82.9393 39.165 80.2024 45.7781 75.3309 50.654C70.4593 55.53 63.8521 58.2692 56.9626 58.2692ZM47.4999 90.9983C53.8132 91.0043 60.0581 89.6907 65.8348 87.1415C71.6115 84.5923 76.7927 80.8637 81.0465 76.1946C78.8736 71.9171 75.5601 68.3251 71.4731 65.8164C67.3862 63.3076 62.6852 61.9801 57.8908 61.9809H44.5311C38.8057 61.9814 33.2407 63.8746 28.7008 67.3663C24.161 70.8581 20.9004 75.7528 19.4259 81.2901C27.4264 87.5948 37.3173 91.0151 47.4999 90.9983Z" fill="#C0FBFF"/>
<path id="Path 29596" d="M64.1977 82.4517C64.1997 84.4182 63.8539 86.3696 63.1763 88.2155C58.144 89.9986 52.8363 90.8767 47.4983 90.8093C42.1604 90.8767 36.8527 89.9986 31.8204 88.2155C30.9791 85.9224 30.6502 83.4727 30.8568 81.0387C31.0634 78.6047 31.8005 76.2456 33.0162 74.1274C34.2319 72.0093 35.8967 70.1836 37.8933 68.7788C39.8899 67.374 42.1699 66.4243 44.5728 65.9966C46.9757 65.5688 49.443 65.6734 51.8012 66.3029C54.1593 66.9324 56.351 68.0716 58.2218 69.6403C60.0927 71.209 61.5973 73.169 62.6297 75.3825C63.6622 77.5959 64.1974 80.0089 64.1977 82.4517Z" fill="#0088CC"/>
<path id="Path 29597" d="M59.7467 48.0549H35.2545C33.5488 48.0551 31.8598 47.7189 30.2839 47.0657C28.7081 46.4125 27.2762 45.455 26.07 44.2479C24.8639 43.0408 23.9071 41.6077 23.2544 40.0304C22.6016 38.4532 22.2656 36.7627 22.2656 35.0555V29.4848C22.2655 27.7775 22.6014 26.087 23.2541 24.5096C23.9068 22.9323 24.8635 21.499 26.0697 20.2918C27.2758 19.0846 28.7077 18.127 30.2837 17.4737C31.8596 16.8204 33.5487 16.4842 35.2545 16.4844H59.7467C61.4528 16.4837 63.1423 16.8194 64.7188 17.4725C66.2952 18.1255 67.7276 19.083 68.9343 20.2903C70.1409 21.4976 71.098 22.931 71.751 24.5086C72.4039 26.0862 72.7399 27.7772 72.7398 29.4848V35.0566C72.7397 36.7641 72.4034 38.4548 71.7503 40.0322C71.0973 41.6096 70.1401 43.0427 68.9335 44.2498C67.7269 45.4568 66.2946 46.4142 64.7183 47.067C63.142 47.7199 61.4526 48.0556 59.7467 48.0549ZM41.7516 86.6615C39.8491 86.2492 38.1429 85.2027 36.912 83.6934C35.6811 82.1841 34.9985 80.3014 34.9758 78.3532V78.2803C34.97 74.8663 36.0136 71.5331 37.965 68.7329C34.9337 70.8451 32.6869 73.9028 31.5756 77.4282C30.4644 80.9537 30.5512 84.7483 31.8226 88.2191C41.9453 91.9227 53.0505 91.9227 63.1731 88.2191C63.4282 87.529 63.6373 86.8226 63.7991 86.1048C56.6052 88.088 49.0356 88.2777 41.7516 86.6572V86.6615Z" fill="#006CBC"/>
<path id="Path 29598" d="M59.7463 48.0549H40.8187C37.3743 48.0546 34.0711 46.6849 31.6357 44.2471C29.2002 41.8093 27.832 38.503 27.832 35.0555V29.4848C27.8319 27.7777 28.1677 26.0873 28.8203 24.5101C29.4728 22.9329 30.4294 21.4998 31.6353 20.2926C32.8412 19.0854 34.2729 18.1277 35.8486 17.4743C37.4243 16.8209 39.1132 16.4845 40.8187 16.4844H59.7463C61.4519 16.4844 63.1409 16.8206 64.7167 17.474C66.2926 18.1273 67.7244 19.085 68.9304 20.2922C70.1364 21.4994 71.0931 22.9326 71.7457 24.5099C72.3984 26.0871 72.7342 27.7776 72.734 29.4848V35.0566C72.7338 38.5041 71.3653 41.8102 68.9296 44.2479C66.494 46.6855 63.1907 48.0549 59.7463 48.0549Z" fill="#0088CC"/>
<path id="Path 29599" d="M52.7469 37.5001C53.0948 37.8484 53.2902 38.3207 53.2902 38.8132C53.2902 39.3056 53.0948 39.7779 52.7469 40.1262C51.3538 41.5174 49.4663 42.2988 47.4984 42.2988C45.5305 42.2988 43.6429 41.5174 42.2499 40.1262C42.0776 39.9537 41.941 39.7489 41.8478 39.5236C41.7546 39.2982 41.7066 39.0567 41.7067 38.8128C41.7067 38.5689 41.7548 38.3274 41.8481 38.1021C41.9414 37.8767 42.0781 37.672 42.2504 37.4996C42.4228 37.3272 42.6274 37.1904 42.8525 37.0971C43.0777 37.0038 43.319 36.9558 43.5627 36.9559C43.8063 36.9559 44.0476 37.004 44.2727 37.0974C44.4979 37.1908 44.7024 37.3276 44.8747 37.5001C45.5714 38.1966 46.5158 38.5878 47.5005 38.5878C48.4852 38.5878 49.4296 38.1966 50.1264 37.5001C50.4743 37.1519 50.9462 36.9563 51.4382 36.9563C51.9303 36.9563 52.4021 37.1519 52.7501 37.5001H52.7469ZM41.9659 26.1292C40.5727 24.7382 38.6852 23.957 36.7174 23.957C34.7496 23.957 32.8621 24.7382 31.4689 26.1292C31.1314 26.4797 30.9448 26.9488 30.9493 27.4356C30.9538 27.9224 31.149 28.388 31.4929 28.7322C31.8368 29.0765 32.302 29.2719 32.7884 29.2763C33.2748 29.2808 33.7435 29.0941 34.0937 28.7563C34.7901 28.0593 35.7347 27.6677 36.7195 27.6677C37.7044 27.6677 38.6489 28.0593 39.3454 28.7563C39.5165 28.934 39.7214 29.0759 39.9479 29.1735C40.1745 29.2711 40.4182 29.3226 40.6649 29.3249C40.9115 29.3272 41.1561 29.2802 41.3845 29.1868C41.6128 29.0934 41.8202 28.9553 41.9946 28.7808C42.169 28.6062 42.3069 28.3986 42.4003 28.1701C42.4936 27.9415 42.5405 27.6967 42.5382 27.4498C42.536 27.203 42.4846 26.959 42.387 26.7323C42.2895 26.5055 42.1478 26.3005 41.9702 26.1292H41.9659ZM63.5289 26.1292C62.1357 24.7382 60.2482 23.957 58.2804 23.957C56.3126 23.957 54.4251 24.7382 53.0319 26.1292C52.6944 26.4797 52.5078 26.9488 52.5123 27.4356C52.5168 27.9224 52.712 28.388 53.056 28.7322C53.3999 29.0765 53.8651 29.2719 54.3514 29.2763C54.8378 29.2808 55.3065 29.0941 55.6567 28.7563C56.3533 28.0595 57.2978 27.6682 58.2826 27.6682C59.2673 27.6682 60.2118 28.0595 60.9084 28.7563C61.0808 28.9287 61.2854 29.0655 61.5105 29.1588C61.7357 29.2521 61.977 29.3 62.2206 29.3C62.4643 29.2999 62.7056 29.2519 62.9307 29.1585C63.1558 29.0651 63.3604 28.9282 63.5327 28.7557C63.7049 28.5832 63.8416 28.3785 63.9348 28.1531C64.028 27.9278 64.0759 27.6862 64.0759 27.4423C64.0758 27.1984 64.0278 26.9569 63.9345 26.7316C63.8412 26.5063 63.7045 26.3016 63.5321 26.1292H63.5289Z" fill="#30D6CE"/>
<path id="Path 29600" d="M50.2835 81.1574V90.9193C49.3625 90.9751 48.4336 91.003 47.4969 91.003C46.5601 91.003 45.6313 90.9751 44.7102 90.9193V81.1574C44.6921 80.7803 44.7507 80.4034 44.8824 80.0497C45.0141 79.6959 45.2162 79.3725 45.4765 79.0992C45.7367 78.8259 46.0497 78.6083 46.3964 78.4597C46.7431 78.311 47.1164 78.2344 47.4936 78.2344C47.8709 78.2344 48.2441 78.311 48.5909 78.4597C48.9376 78.6083 49.2506 78.8259 49.5108 79.0992C49.7711 79.3725 49.9732 79.6959 50.1049 80.0497C50.2366 80.4034 50.2952 80.7803 50.277 81.1574H50.2835Z" fill="#84DEEA"/>
<path id="Path 29601" d="M50.2825 81.1563V85.2423C50.3006 85.6194 50.2421 85.9963 50.1104 86.3501C49.9787 86.7039 49.7766 87.0272 49.5163 87.3005C49.2561 87.5738 48.9431 87.7914 48.5964 87.9401C48.2496 88.0887 47.8763 88.1654 47.4991 88.1654C47.1219 88.1654 46.7486 88.0887 46.4019 87.9401C46.0551 87.7914 45.7422 87.5738 45.4819 87.3005C45.2217 87.0272 45.0196 86.7039 44.8879 86.3501C44.7562 85.9963 44.6976 85.6194 44.7157 85.2423V81.1563C44.6976 80.7792 44.7562 80.4023 44.8879 80.0485C45.0196 79.6947 45.2217 79.3714 45.4819 79.0981C45.7422 78.8248 46.0551 78.6072 46.4019 78.4585C46.7486 78.3099 47.1219 78.2332 47.4991 78.2332C47.8763 78.2332 48.2496 78.3099 48.5964 78.4585C48.9431 78.6072 49.2561 78.8248 49.5163 79.0981C49.7766 79.3714 49.9787 79.6947 50.1104 80.0485C50.2421 80.4023 50.3006 80.7792 50.2825 81.1563ZM47.4959 76.1423C48.1564 76.1423 48.8021 75.9463 49.3513 75.579C49.9005 75.2117 50.3286 74.6896 50.5813 74.0788C50.8341 73.4681 50.9002 72.796 50.7714 72.1476C50.6425 71.4991 50.3244 70.9035 49.8574 70.4361C49.3903 69.9686 48.7953 69.6502 48.1474 69.5213C47.4996 69.3923 46.8281 69.4585 46.2179 69.7115C45.6076 69.9645 45.0861 70.3929 44.7191 70.9426C44.3521 71.4923 44.1563 72.1386 44.1563 72.7997C44.1562 73.2389 44.2427 73.6738 44.4108 74.0796C44.5788 74.4853 44.8251 74.854 45.1355 75.1644C45.446 75.4748 45.8145 75.721 46.2201 75.8888C46.6257 76.0566 47.0603 76.1427 47.4991 76.1423H47.4959Z" fill="#FFF5F5"/>
<path id="Path 29602" d="M87.2073 40.4375V44.1513C87.205 46.1208 86.4223 48.009 85.0309 49.4017C83.6395 50.7943 81.753 51.5777 79.7852 51.58H48.2461V47.8608H79.7863C80.7699 47.8594 81.7129 47.4677 82.4084 46.7715C83.104 46.0753 83.4954 45.1315 83.4968 44.147V40.4375H87.2073Z" fill="#025F80"/>
<path id="Path 29603" d="M53.6148 52.5767H41.388C40.5588 52.5614 39.7687 52.221 39.1877 51.6287C38.6068 51.0364 38.2812 50.2395 38.2812 49.4094C38.2812 48.5794 38.6068 47.7825 39.1877 47.1902C39.7687 46.5979 40.5588 46.2575 41.388 46.2422H53.6148C54.4439 46.2575 55.234 46.5979 55.815 47.1902C56.396 47.7825 56.7215 48.5794 56.7215 49.4094C56.7215 50.2395 56.396 51.0364 55.815 51.6287C55.234 52.221 54.4439 52.5614 53.6148 52.5767Z" fill="#FF6466"/>
<path id="Path 29604" d="M53.6137 52.5772H46.9537C46.5332 52.585 46.1154 52.5088 45.7247 52.3531C45.334 52.1974 44.9782 51.9653 44.6781 51.6704C44.3781 51.3756 44.1397 51.0238 43.977 50.6357C43.8143 50.2476 43.7305 49.8309 43.7305 49.41C43.7305 48.9891 43.8143 48.5724 43.977 48.1843C44.1397 47.7961 44.3781 47.4444 44.6781 47.1495C44.9782 46.8546 45.334 46.6226 45.7247 46.4669C46.1154 46.3112 46.5332 46.235 46.9537 46.2427H53.6126C54.4418 46.258 55.2318 46.5984 55.8128 47.1907C56.3938 47.783 56.7193 48.5799 56.7193 49.41C56.7193 50.24 56.3938 51.0369 55.8128 51.6292C55.2318 52.2215 54.4428 52.5619 53.6137 52.5772Z" fill="#FF895A"/>
</g>
<defs>
<clipPath id="clip0_511_12419">
<rect width="95" height="91" fill="white"/>
</clipPath>
</defs>
</svg>
