<svg width="27" height="21" viewBox="0 0 27 21" fill="none" xmlns="http://www.w3.org/2000/svg">
<g id="Group">
<path id="Vector" d="M23.5859 1.75C24.5386 1.8033 25.2515 2.243 25.6712 3.10243C26.2775 4.35492 26.3507 5.64739 25.8644 6.96651C25.8311 7.05978 25.7845 7.14639 25.6912 7.16637C25.2715 7.27297 25.2182 7.61274 25.1515 7.96584C24.6919 10.1844 24.2255 12.3962 23.7658 14.6147C23.7392 14.728 23.7392 14.8546 23.7258 14.9678C23.3861 15.0211 23.1662 15.3276 22.8331 15.3875C22.8864 14.9612 22.9464 14.5348 22.9997 14.1084C23.013 14.0884 23.013 14.0684 23.0063 14.0484C23.1995 13.3822 23.2928 12.6893 23.3794 12.0031C23.3994 11.9165 23.4127 11.8366 23.4327 11.75C23.5526 11.0837 23.6725 10.4175 23.7925 9.74465C23.7991 9.69135 23.8124 9.63805 23.8191 9.58475C23.8924 9.15837 23.9657 8.72533 24.0456 8.29895C24.0989 8.23233 24.1389 8.15238 24.0789 8.08576C24.0056 8.00581 23.9324 8.09242 23.8657 8.12573C22.1735 8.99848 20.488 9.87789 18.7958 10.7506C18.6359 10.8306 18.5626 10.9505 18.5426 11.1304C18.4893 11.6767 18.436 12.223 18.3694 12.7693C18.2162 14.1151 18.0496 15.4542 17.9231 16.7999C17.8698 17.3329 17.7032 17.8659 17.8165 18.4122C17.4767 18.5654 17.1969 18.8319 16.8038 18.9185C16.9304 16.7666 17.057 14.6347 17.1835 12.5028C17.0636 12.9625 17.037 13.4222 16.9837 13.8885C16.8904 14.7746 16.7838 15.6607 16.6839 16.5468C16.6106 17.1797 16.5706 17.8192 16.4774 18.4521C16.4041 18.9252 16.3508 18.9385 15.8711 18.7653C15.8778 18.2856 15.8911 17.8126 15.8977 17.3329C15.9111 17.2796 15.9244 17.2263 15.9377 17.173C16.0043 16.5001 15.9177 15.8139 16.0243 15.141C16.0243 15.0677 16.0243 14.9878 16.0177 14.9145C16.0576 13.7886 16.0976 12.6627 16.1376 11.5368C16.1576 11.4768 16.1842 11.4169 16.2042 11.3636C16.3374 11.3769 16.4707 11.3769 16.5973 11.4035C17.2435 11.5434 17.2835 11.5101 17.4167 10.8506C17.4567 10.6707 17.4967 10.4908 17.4967 10.3043C17.5633 10.2843 17.6299 10.2776 17.6832 10.251C18.5826 9.79128 19.482 9.33159 20.3881 8.86523C20.3747 8.95184 20.3681 9.04511 20.3348 9.13172C20.2815 9.29162 20.3681 9.38489 20.4747 9.46483C20.5413 9.51813 20.6212 9.51813 20.6945 9.46483C20.8078 9.37822 20.7945 9.25831 20.7811 9.13839C20.7478 8.90521 20.5879 8.84525 20.3814 8.86523C20.3281 8.70534 20.3348 8.712 20.1282 8.79861C19.2422 9.17836 18.4027 9.67802 17.4833 9.99781C17.43 9.72466 17.55 9.4715 17.5633 9.20501C17.6299 7.5661 18.0563 6.0338 19.0223 4.70802C20.1682 3.15573 21.554 1.93654 23.5859 1.75ZM24.4187 3.1424C24.3854 3.11575 24.3454 3.0891 24.3121 3.06245C24.2988 3.06245 24.2788 3.05579 24.2655 3.05579C24.2122 2.96252 24.1056 2.9492 24.019 2.90922C23.9324 2.88257 23.8524 2.85593 23.7658 2.82928C23.3527 2.64274 22.9397 2.76266 22.5533 2.90256C20.3614 3.68204 18.7625 6.16704 18.8491 8.63872C18.8225 8.712 18.7492 8.78529 18.8025 8.86523C18.8691 8.96517 18.9424 8.89188 19.009 8.85857C19.482 8.67203 19.9217 8.4122 20.3747 8.18569C21.8937 7.41287 23.4127 6.64672 24.945 5.90722C25.3181 5.72734 25.4447 5.49416 25.3847 5.12108C25.3314 4.80795 25.3248 4.46818 25.1982 4.1817C25.025 3.78197 24.925 3.29563 24.4054 3.14906L24.4187 3.1424ZM23.3394 7.95251C23.2728 7.81261 23.1795 7.6727 23.0063 7.66604C22.7931 7.65938 22.7865 7.88589 22.7532 8.01247C22.7065 8.19235 22.9197 8.31227 23.0463 8.33226C23.2928 8.37223 23.2128 8.07243 23.3394 7.95251ZM17.9764 10.3709C17.9697 10.5441 18.0696 10.6374 18.2095 10.6507C18.3761 10.6707 18.436 10.5374 18.4494 10.3975C18.456 10.2643 18.3894 10.1177 18.2695 10.1377C18.1696 10.151 17.9564 10.1577 17.9764 10.3709ZM25.5313 6.7733C25.5046 6.68669 25.5046 6.57344 25.3714 6.5801C25.2048 6.59342 25.0982 6.68669 25.0783 6.84659C25.0583 7.00648 25.1849 7.05978 25.3048 7.05311C25.4713 7.04645 25.4847 6.88656 25.5313 6.7733Z" fill="#F2A406"/>
<path id="Vector_2" d="M23.5862 1.75073C21.5542 1.93727 20.1685 3.15645 19.0359 4.70209C18.0632 6.02786 17.6368 7.56017 17.5769 9.19907C17.5636 9.46556 17.4503 9.71873 17.4969 9.99188C17.3637 9.97855 17.2304 9.97855 17.0972 9.95857C15.898 9.7587 14.6988 9.55883 13.5063 9.35231C11.4943 9.01253 9.47564 8.67276 7.46366 8.33299C6.10457 8.10647 4.75214 7.88662 3.39305 7.65344C2.50031 7.50021 1.60758 7.33366 0.714844 7.17376C1.26781 4.34899 2.24715 1.81069 5.22516 0.684777C6.73081 0.118489 8.3031 -0.0747148 9.91535 0.0651915C10.0752 0.0785159 10.2218 0.0918403 10.1752 0.318355C10.0553 0.444937 9.8887 0.358328 9.75546 0.418288C9.54227 0.438275 9.32907 0.444937 9.11588 0.478248C8.20316 0.624817 7.27045 0.691439 6.42435 1.1045C6.23115 1.13781 6.05793 1.21109 5.88471 1.30436C5.69817 1.37098 5.53162 1.46425 5.38505 1.5975C4.71883 1.96392 4.17253 2.45026 3.76613 3.10316C3.29978 3.87597 3.07993 4.74872 2.84675 5.61481C2.60691 6.51421 2.62023 6.52087 3.54628 6.64745C4.71883 6.84732 5.89138 7.05384 7.06393 7.24039C9.84873 7.69342 12.6335 8.13312 15.4117 8.59281C16.3377 8.74604 16.3311 8.76603 16.4443 7.82C16.5109 7.75338 16.5176 7.66677 16.5109 7.5735C16.7108 7.00721 16.904 6.44758 17.1039 5.8813C17.3171 5.42827 17.5369 4.9819 17.7501 4.52887C17.83 4.46225 17.89 4.3823 17.8967 4.26904C18.2231 3.86931 18.5429 3.46958 18.8694 3.06985C18.9759 3.04986 19.0492 2.9899 19.0959 2.89663C19.4756 2.63014 19.8554 2.36365 20.2351 2.10383C20.415 2.10383 20.5616 2.01722 20.7081 1.93061C20.928 1.87065 21.1545 1.81735 21.3544 1.70409C22.1005 1.55753 22.8467 1.55753 23.5862 1.75073ZM17.5769 6.19442C17.5636 6.18776 17.5502 6.1811 17.5369 6.1811C17.5502 6.18776 17.5569 6.19442 17.5769 6.19442C17.9433 6.31434 17.9966 6.25438 17.95 5.78803C17.8234 5.92793 17.8367 6.19442 17.5769 6.19442ZM19.0959 3.7294C19.0359 3.99589 18.8027 4.07584 18.5629 4.1891C19.0559 4.30902 19.1891 4.18243 19.0959 3.7294ZM16.8973 8.77936C17.357 8.72606 17.417 8.53952 17.0839 8.17309C17.2171 8.44625 17.1572 8.64611 16.8973 8.77936ZM2.68686 3.52954C2.64022 3.74939 2.44702 3.836 2.33376 3.98923C2.65355 4.00922 2.78013 3.85599 2.68686 3.52954Z" fill="#F6B511"/>
<path id="Vector_3" d="M15.8714 18.7654C16.3511 18.932 16.411 18.9253 16.4776 18.4523C16.5709 17.8194 16.6175 17.1798 16.6842 16.5469C16.7841 15.6608 16.8907 14.7748 16.984 13.8887C17.0306 13.429 17.0639 12.9626 17.1838 12.5029C17.0573 14.6348 16.9307 16.7668 16.8041 18.9186C17.2038 18.832 17.477 18.5655 17.8167 18.4123C18.6828 17.8993 19.5489 17.3863 20.415 16.8667C21.0413 16.4936 21.6675 16.1072 22.2937 15.7274C22.4936 15.6475 22.6868 15.5676 22.8334 15.3943C23.1732 15.341 23.393 15.0279 23.7261 14.9746C23.8061 14.9879 23.906 14.9613 23.9393 15.0679C23.3997 15.3877 22.8467 15.6941 22.3137 16.0206C20.6215 17.0399 18.9293 18.0725 17.2371 19.0919C17.0972 19.1785 16.9573 19.2584 16.9307 19.4316C16.8707 19.838 16.7841 20.2511 16.8774 20.6641C16.8041 20.6308 16.7375 20.6308 16.6842 20.7108C15.4184 20.4776 14.1792 20.1312 12.9267 19.8314C9.7688 19.0852 6.61758 18.319 3.45969 17.5729C3.1066 17.4863 2.90007 17.3464 2.84677 16.9733C2.82012 16.7468 2.72685 16.5336 2.66689 16.3137C2.63358 16.2005 2.57362 16.0472 2.67355 15.9673C3.01999 15.6875 2.84677 15.361 2.78681 15.0479C2.50034 13.5756 2.2072 12.1032 1.91406 10.6309C1.99401 10.6775 1.99401 10.7574 2.014 10.8374C2.38042 12.3364 2.7535 13.8354 3.12658 15.3344C3.29314 16.0139 3.29314 16.0139 3.99933 16.0339C4.11925 16.1405 4.27915 16.1005 4.41905 16.1338C5.97801 16.4936 7.5303 16.86 9.08926 17.2198C10.3817 17.5196 11.6675 17.826 12.96 18.1192C13.9393 18.3457 14.9054 18.5522 15.8714 18.7654ZM16.2112 19.6515C16.1978 19.6182 16.1845 19.5849 16.1712 19.5516C16.1645 19.5582 16.1445 19.5715 16.1445 19.5715C16.1645 19.6048 16.1778 19.6315 16.1978 19.6581C16.2511 19.8913 16.1179 20.0512 15.9047 20.1978C16.1445 20.2444 16.2778 20.1578 16.3377 19.9979C16.3844 19.8713 16.4243 19.7048 16.2112 19.6515ZM5.73151 16.9933C5.71818 16.9866 5.70486 16.9799 5.69153 16.9799C5.70486 16.9866 5.71152 16.9933 5.72484 16.9999C5.77814 17.2331 5.67821 17.4196 5.51165 17.5795C5.6982 17.6861 5.79147 17.6129 5.84476 17.4729C5.91139 17.2931 5.93803 17.1132 5.73151 16.9933ZM10.5483 18.9186C10.7948 18.872 10.9414 18.8187 10.9613 18.6188C10.9747 18.4656 10.948 18.319 10.7615 18.2458C10.908 18.5256 10.6615 18.6721 10.5483 18.9186ZM8.25648 17.6728C8.22983 17.8394 8.20985 17.9659 8.18986 18.0992C8.17654 18.1858 7.92337 18.2124 8.09659 18.319C8.2365 18.4057 8.34309 18.2391 8.36974 18.1125C8.39639 17.9859 8.43636 17.826 8.25648 17.6728Z" fill="#F6B511"/>
<path id="Vector_4" d="M17.4958 10.2976C17.4958 10.4842 17.4558 10.6641 17.4158 10.8439C17.2826 11.5035 17.2426 11.5368 16.5964 11.3969C16.4698 11.3703 16.3366 11.3703 16.2033 11.3569C16.17 11.3436 16.1434 11.3236 16.11 11.3103C15.244 11.1504 14.3779 10.9839 13.5185 10.8306C12.0994 10.5775 10.687 10.3243 9.26796 10.0778C9.22133 10.0711 9.16803 10.0711 9.1214 10.0645C9.04811 9.98452 8.9615 9.99119 8.86823 10.0045C8.77496 9.99119 8.67503 9.98452 8.58176 9.9712C8.54178 9.95787 8.50847 9.93789 8.4685 9.92456C8.39522 9.9179 8.32193 9.91124 8.24198 9.89791C8.1687 9.82463 8.07543 9.82463 7.98216 9.83795C6.26331 9.51817 4.55112 9.19172 2.83227 8.87193C2.38591 8.88526 1.97285 8.65874 1.51982 8.70538C0.820289 8.53882 0.880249 7.89925 0.707031 7.40625C0.786978 7.40625 0.866924 7.40625 0.946871 7.41957C2.31262 7.65275 3.67837 7.89259 5.05079 8.13243C7.0228 8.4722 8.99481 8.8253 10.9668 9.15841C12.3326 9.39159 13.705 9.59812 15.0707 9.83129C15.8835 9.96454 16.6897 10.1378 17.4958 10.2976ZM10.6404 10.0711C10.9402 9.90458 10.9535 9.83795 10.747 9.5648C10.6937 9.73136 10.7536 9.9179 10.6337 10.0645C10.6004 10.0778 10.5671 10.0845 10.5338 10.0978C10.5404 10.1044 10.5538 10.1244 10.5538 10.1244C10.5871 10.1111 10.6137 10.0911 10.6404 10.0711ZM7.66237 9.43156C7.9755 9.29165 7.92886 9.10511 7.72233 8.89858C7.76897 9.08513 7.70235 9.25168 7.64905 9.41824C7.61574 9.43156 7.58243 9.44488 7.54912 9.45821C7.55578 9.46487 7.5691 9.48486 7.5691 9.48486C7.60241 9.46487 7.63572 9.44488 7.66237 9.43156ZM13.4652 9.90458C13.4518 9.89791 13.4385 9.89125 13.4252 9.89125C13.4385 9.89791 13.4452 9.90458 13.4652 9.90458C13.5051 10.1444 13.4185 10.3376 13.2386 10.5308C13.6717 10.4242 13.7316 10.2244 13.4652 9.90458ZM16.8962 10.4176C17.0028 10.7107 16.8762 10.9106 16.6364 11.0771C16.8695 11.1504 17.0028 11.0571 17.0561 10.8972C17.116 10.7374 17.1427 10.5441 16.8962 10.4176ZM4.41122 8.97853C4.67104 9.00518 4.75765 8.88526 4.81095 8.73203C4.86425 8.56547 4.82427 8.42557 4.56445 8.31897C4.75765 8.60545 4.64439 8.79199 4.41122 8.97853Z" fill="#F6B511"/>
<path id="Vector_5" d="M16.8848 20.6646C16.7915 20.2516 16.8781 19.8385 16.9381 19.4321C16.9647 19.2522 17.098 19.1789 17.2446 19.0923C18.9368 18.073 20.629 17.0404 22.3212 16.0211C22.8608 15.6946 23.4071 15.3881 23.9467 15.0684C24 15.4414 23.9134 15.8079 23.8735 16.1743C23.8601 16.3009 23.7535 16.3475 23.6669 16.4008C21.4351 17.8132 19.2032 19.2322 16.9714 20.6446C16.9381 20.6579 16.9048 20.6579 16.8848 20.6646ZM22.0747 16.8805C22.0547 16.7139 21.9881 16.654 21.8148 16.6473C21.6016 16.634 21.6083 16.7539 21.6016 16.8871C21.595 17.0404 21.6549 17.147 21.8215 17.1536C22.0147 17.1603 22.048 17.0071 22.0747 16.8805Z" fill="#F2A406"/>
<path id="Vector_6" d="M1.51953 8.70129C1.97256 8.648 2.38562 8.88117 2.83199 8.86785C2.83199 8.97444 2.812 9.08104 2.82532 9.18763C2.99188 10.1603 3.17176 11.1263 3.33831 12.099C3.56483 13.4115 3.78468 14.7239 4.00453 16.0364C3.29834 16.0097 3.29834 16.0097 3.13179 15.3368C2.7587 13.8379 2.38562 12.3389 2.0192 10.8399C1.99921 10.7599 1.99921 10.68 1.91926 10.6333V10.6C1.92593 10.4934 1.95257 10.3868 1.84598 10.3135C1.70607 9.78057 1.59282 9.24759 1.51953 8.70129Z" fill="#F2A406"/>
<path id="Vector_7" d="M17.4959 10.2964C16.6898 10.1366 15.8836 9.97 15.0709 9.8301C13.7051 9.59692 12.3327 9.39039 10.9669 9.15721C8.99493 8.8241 7.02292 8.47101 5.0509 8.13123C3.68515 7.89139 2.3194 7.65155 0.946985 7.41838C0.867039 7.40505 0.787092 7.41171 0.707146 7.40505C0.66051 7.32511 0.647186 7.25182 0.713808 7.17188C1.60654 7.33177 2.49928 7.49832 3.39201 7.65155C4.74444 7.88473 6.10353 8.09792 7.46262 8.3311C9.47461 8.67087 11.4933 9.01064 13.5052 9.35042C14.7044 9.55028 15.9036 9.75681 17.0962 9.95668C17.2294 9.97666 17.3627 9.98333 17.4959 9.98999C18.4153 9.6702 19.2481 9.17054 20.1408 8.79079C20.3407 8.70418 20.3407 8.69752 20.394 8.85741C19.4946 9.31711 18.5952 9.78346 17.6891 10.2432C17.6291 10.2698 17.5625 10.2765 17.4959 10.2964Z" fill="#BC5F12"/>
<path id="Vector_8" d="M9.74609 0.426105C9.87934 0.366145 10.0459 0.452754 10.1658 0.326172C10.9186 0.512714 11.6981 0.546025 12.4643 0.639296C15.3224 0.979068 18.1804 1.30552 21.0385 1.63863C21.1451 1.65195 21.2517 1.6786 21.3517 1.69859C21.1518 1.81851 20.9319 1.8718 20.7054 1.9251C20.6388 1.83849 20.5389 1.85848 20.4456 1.85182C19.5329 1.73856 18.6268 1.59199 17.7141 1.50538C16.6548 1.40545 15.6022 1.25222 14.5495 1.12564C13.9166 1.05235 13.2771 1.0257 12.6508 0.912446C11.9913 0.792526 11.325 0.759215 10.6788 0.632633C10.3657 0.572673 10.0126 0.685931 9.74609 0.426105Z" fill="#BC5F12"/>
<path id="Vector_9" d="M1.85355 10.3105C1.96015 10.3838 1.9335 10.4904 1.92684 10.597C1.85355 10.5104 1.84689 10.4105 1.85355 10.3105Z" fill="#F6B511"/>
<path id="Vector_10" d="M16.6836 20.7045C16.7302 20.6312 16.7969 20.6246 16.8768 20.6579C16.8368 20.7645 16.7635 20.7445 16.6836 20.7045Z" fill="#F2A406"/>
<path id="Vector_11" d="M22.293 15.7213C21.6667 16.1011 21.0405 16.4875 20.4142 16.8606C19.5482 17.3802 18.6821 17.8932 17.816 18.4062C17.7027 17.8599 17.8693 17.3269 17.9226 16.794C18.0492 15.4482 18.2224 14.1091 18.3689 12.7633C18.4289 12.217 18.4889 11.6707 18.5422 11.1244C18.5621 10.9445 18.6354 10.8313 18.7953 10.7447C20.4875 9.87193 22.1731 8.99252 23.8653 8.11977C23.9319 8.08646 24.0052 7.99985 24.0785 8.07979C24.1384 8.14642 24.0984 8.22636 24.0451 8.29298C23.692 8.36627 23.4122 8.58612 23.1124 8.75268C22.313 9.19238 21.5268 9.64541 20.7407 10.1118C20.5808 10.205 20.3476 10.3849 20.5541 10.5914C20.7207 10.758 20.794 11.1644 21.2337 10.9112C21.74 10.6248 22.253 10.3183 22.8193 10.1451C22.8126 10.3183 22.6594 10.3449 22.5461 10.3982C22.2397 10.5581 21.9266 10.7114 21.6134 10.8713C21.4136 10.9712 21.3336 11.0911 21.347 11.3643C21.3603 11.7373 21.5668 12.0505 21.5468 12.4236C21.5402 12.6168 21.6601 12.6767 21.8733 12.5501C22.3796 12.257 22.8793 11.9505 23.4389 11.7507C23.4189 11.8373 23.4056 11.9172 23.3856 12.0038C22.6461 12.2104 22.0598 12.7167 21.3803 13.0298C21.3203 13.0565 21.2803 13.1431 21.3203 13.203C21.5335 13.5228 21.4669 13.9159 21.6201 14.2557C21.72 14.4822 21.8266 14.5421 22.0398 14.4089C22.2797 14.2623 22.5195 14.1224 22.7593 13.9758C22.8726 13.9092 22.9792 13.8493 23.0192 14.0491C23.0258 14.0691 23.0258 14.0891 23.0125 14.1091C22.5595 14.2157 22.2197 14.5288 21.8266 14.7553C21.7067 14.8286 21.6667 14.9352 21.8799 14.9885C22.1997 15.0684 22.273 15.3283 22.2064 15.6014C22.1464 15.768 22.2463 15.6947 22.293 15.7213Z" fill="#803318"/>
<path id="Vector_12" d="M9.10066 17.2258C7.54171 16.866 5.98941 16.4996 4.43046 16.1399C4.11067 15.88 3.98409 14.974 4.12399 14.8341C3.85751 14.0812 3.83086 13.3484 3.71094 12.6489C4.0174 12.6422 4.31054 12.7155 4.61034 12.7821C5.77622 13.0419 6.96209 13.2351 8.1413 13.455C8.16795 13.7481 8.33451 13.9813 8.44777 14.2411C8.16129 14.1745 8.18794 14.4943 8.02805 14.5809C7.74823 14.7341 7.77488 15.0406 7.80153 15.2538C7.82152 15.4337 8.08801 15.5136 8.31452 15.5602C9.71358 15.8401 11.106 16.1465 12.4984 16.4397C13.6443 16.6862 14.7902 16.926 15.9361 17.1725C15.9228 17.2258 15.9094 17.2791 15.8961 17.3324C15.7096 17.3191 15.5164 17.3257 15.3365 17.2858C14.104 17.0193 12.8781 16.7395 11.6456 16.4663C10.9994 16.3264 10.3465 16.1798 9.6936 16.0599C9.5337 16.0333 9.1473 15.8667 9.40712 16.3464C9.48707 16.493 9.33384 16.6528 9.25389 16.7861C9.16062 16.9193 9.08734 17.0526 9.10066 17.2258Z" fill="#9C4813"/>
<path id="Vector_13" d="M16.1384 11.5306C16.0984 12.6565 16.0585 13.7824 16.0185 14.9083C15.8852 14.9016 15.7453 14.915 15.6187 14.875C14.7726 14.6351 13.8932 14.5285 13.0471 14.3087C12.4009 14.1421 11.7413 14.0156 11.0551 13.8757C11.1617 13.7357 11.2883 13.8024 11.3749 13.7424C11.4815 13.6691 11.5415 13.5692 11.5148 13.4359C11.4882 13.3027 11.3949 13.3094 11.3016 13.3693C11.1484 13.2228 11.1084 12.9363 10.8086 12.9696C10.7553 12.923 10.6954 12.8697 10.6421 12.823C10.6421 12.5965 10.6487 12.37 10.6487 12.1368C10.6487 11.9902 10.6954 11.917 10.8686 11.9503C11.6547 12.0902 12.4409 12.2168 13.2204 12.3633C14.0998 12.5232 14.9658 12.7231 15.8519 12.8363C15.9185 12.843 15.9918 12.883 16.0185 12.7964C16.0451 12.6898 15.9652 12.6431 15.8786 12.6565C15.5588 12.6898 15.279 12.5432 14.9792 12.4899C13.9732 12.3034 12.9605 12.1235 11.9545 11.937C11.4016 11.837 10.8553 11.7238 10.3023 11.6238C10.0625 11.5239 9.88925 11.2774 9.58945 11.304C9.42956 11.2641 9.26966 11.2241 9.10977 11.1841C9.09645 10.811 9.42289 10.6711 9.64275 10.6845C10.9019 10.7444 12.1411 10.9976 13.3936 11.1641C14.2996 11.2841 15.199 11.4773 16.1184 11.5172L16.1384 11.5306Z" fill="#BC5F12"/>
<path id="Vector_14" d="M15.9315 17.1668C14.7856 16.9203 13.6397 16.6738 12.4938 16.434C11.1014 16.1409 9.70902 15.8344 8.30996 15.5546C8.08344 15.5079 7.81695 15.4347 7.79697 15.2481C7.77032 15.0349 7.74367 14.7285 8.02348 14.5752C8.18337 14.4886 8.15673 14.1688 8.4432 14.2355L8.44986 14.2488C8.46319 14.3154 8.46985 14.3887 8.5498 14.422V14.4153C8.57644 14.482 8.60309 14.4753 8.62974 14.4153C8.77631 14.482 8.8496 14.6552 9.02281 14.6818C9.0961 14.8084 9.236 14.8351 9.34926 14.9017C10.1088 15.1948 10.5351 15.0016 10.7217 14.2688C10.7683 14.0889 10.8483 14.1155 10.9815 14.1422C12.0075 14.3554 13.0335 14.5686 14.0661 14.7618C14.719 14.8884 15.3519 15.1015 16.0181 15.1349C15.9115 15.8144 15.9981 16.4939 15.9315 17.1668Z" fill="#BC5F12"/>
<path id="Vector_15" d="M24.0181 2.90907C24.1047 2.94904 24.2113 2.96236 24.2646 3.05564C24.1314 3.19554 23.9515 3.24218 23.7716 3.30214C23.4052 3.42872 23.0521 3.57529 22.6924 3.71519C22.4259 3.82179 22.3992 4.07495 22.4392 4.28148C22.4925 4.56796 22.7523 4.47469 22.9322 4.41473C23.5384 4.21486 24.138 3.99501 24.7376 3.78182C24.7643 3.83511 24.7909 3.88841 24.8176 3.94171C24.6577 4.00833 24.4978 4.08161 24.3379 4.14157C23.665 4.4014 22.9855 4.6479 22.3193 4.93438C22.146 5.00766 21.8729 5.06096 21.9595 5.41406C22.0994 6.00699 22.0728 6.01365 22.6657 5.80046C22.8056 5.75383 22.9322 5.68721 23.0654 5.63391C23.7183 5.36742 24.3512 5.04763 25.0508 4.91439C25.0508 4.99434 25.0574 5.07428 25.0574 5.14757C24.7909 5.2475 24.4911 5.27415 24.258 5.47402C23.645 5.67388 22.9988 5.80713 22.4525 6.18021C22.0261 6.46668 22.0395 6.57328 22.4792 6.82644C21.2733 7.4327 20.0608 8.0323 18.8549 8.63856C18.7683 6.16689 20.3672 3.68188 22.5591 2.9024C22.9455 2.7625 23.3519 2.63592 23.7716 2.82912C23.252 2.97569 22.699 3.05564 22.3059 3.48868C22.8656 3.26883 23.5118 3.28881 24.0181 2.90907ZM22.0661 3.58861C22.0794 3.59527 22.0861 3.60194 22.0994 3.59527C22.1061 3.59527 22.1061 3.57529 22.1127 3.56863C22.0994 3.56196 22.0928 3.5553 22.0794 3.56196C22.0728 3.56196 22.0661 3.58195 22.0661 3.58861Z" fill="#803318"/>
<path id="Vector_16" d="M9.10075 17.2279C9.08077 17.0547 9.16071 16.9281 9.24732 16.7815C9.32727 16.6483 9.4805 16.4951 9.40055 16.3418C9.14073 15.8621 9.52714 16.0287 9.68703 16.0553C10.3399 16.1753 10.9928 16.3152 11.6391 16.4617C12.8716 16.7349 14.0974 17.0147 15.3299 17.2812C15.5098 17.3212 15.703 17.3145 15.8895 17.3278C15.8829 17.8075 15.8696 18.2805 15.8629 18.7602C14.8969 18.547 13.9309 18.3405 12.9648 18.1206C11.679 17.8275 10.3932 17.5277 9.10075 17.2279Z" fill="#BC5F12"/>
<path id="Vector_17" d="M23.4244 11.7495C22.8714 11.9493 22.3717 12.2625 21.8588 12.5489C21.6456 12.6755 21.5256 12.6156 21.5323 12.4223C21.5523 12.0493 21.3458 11.7361 21.3324 11.3631C21.3258 11.0899 21.3991 10.9766 21.5989 10.8701C21.9121 10.7102 22.2252 10.5569 22.5316 10.397C22.6449 10.3371 22.7981 10.3171 22.8048 10.1439C22.8714 10.1439 22.9314 10.1305 22.9647 10.0639C23.0513 10.0639 23.1512 10.0773 23.2045 9.98398C23.431 9.99064 23.5576 9.75747 23.7775 9.74414C23.6642 10.417 23.5443 11.0832 23.4244 11.7495Z" fill="#9C4813"/>
<path id="Vector_18" d="M22.8113 10.1509C22.245 10.3241 21.732 10.6306 21.2257 10.9171C20.786 11.1702 20.7127 10.7638 20.5462 10.5973C20.3396 10.3908 20.5728 10.2175 20.7327 10.1176C21.5122 9.65126 22.305 9.19823 23.1045 8.75852C23.4043 8.59196 23.6907 8.37211 24.0372 8.29883C23.9639 8.72521 23.8906 9.15825 23.8107 9.58463C23.5908 9.69123 23.3176 9.71122 23.2111 9.98437C23.1244 9.98437 23.0245 9.96438 22.9712 10.0643C22.9046 10.071 22.8446 10.0843 22.8113 10.1509Z" fill="#9C4813"/>
<path id="Vector_19" d="M22.999 14.0492C22.9591 13.8493 22.8525 13.9093 22.7392 13.9759C22.4994 14.1225 22.2595 14.2624 22.0197 14.409C21.8065 14.5422 21.6999 14.4822 21.6 14.2557C21.4467 13.916 21.5134 13.5229 21.3002 13.2031C21.2602 13.1431 21.3068 13.0565 21.3601 13.0299C22.0463 12.7168 22.6326 12.2104 23.3655 12.0039C23.2855 12.6901 23.1922 13.3763 22.999 14.0492Z" fill="#9C4813"/>
<path id="Vector_20" d="M18.8509 8.64005C20.0568 8.03379 21.2693 7.43419 22.4752 6.82793C23.1747 6.48149 23.8742 6.13506 24.5738 5.78196C24.8802 5.68203 25.16 5.55545 25.0534 5.14239C25.0534 5.06244 25.0468 4.9825 25.0468 4.90921C25.0401 4.56944 24.9602 4.24965 24.8136 3.94319C24.7869 3.8899 24.7603 3.8366 24.7336 3.7833C24.7003 3.53014 24.4738 3.38357 24.4005 3.15039C24.9202 3.29696 25.0201 3.7833 25.1933 4.18303C25.3199 4.46951 25.3266 4.80928 25.3799 5.1224C25.4398 5.49549 25.3066 5.73533 24.9402 5.90854C23.4079 6.64805 21.8889 7.4142 20.3699 8.18702C19.9169 8.42019 19.4772 8.67336 19.0042 8.8599C18.9375 8.88655 18.8576 8.9665 18.7976 8.86656C18.7576 8.78662 18.8243 8.71333 18.8509 8.64005Z" fill="#F6B511"/>
<path id="Vector_21" d="M16.0243 15.1414C15.3581 15.1081 14.7252 14.8949 14.0723 14.7683C13.0397 14.5684 12.0137 14.3619 10.9877 14.1487C10.8545 14.1221 10.7745 14.0954 10.7279 14.2753C10.5413 15.0148 10.115 15.208 9.35547 14.9082C10.3481 14.8549 10.6879 14.4818 10.4747 13.689C10.5613 13.6824 10.6479 13.6824 10.7279 13.6757C10.9744 13.6824 11.2409 13.729 11.2942 13.3759C11.3941 13.3226 11.4807 13.316 11.5074 13.4425C11.534 13.5758 11.474 13.6824 11.3675 13.749C11.2875 13.8023 11.1543 13.7423 11.0477 13.8822C11.7339 14.0288 12.3934 14.1487 13.0397 14.3153C13.8858 14.5351 14.7652 14.6417 15.6113 14.8816C15.7379 14.9149 15.8778 14.9016 16.011 14.9149C16.0177 14.9882 16.0177 15.0615 16.0243 15.1414ZM10.9078 13.8223C10.8878 13.809 10.8678 13.789 10.8478 13.789C10.8278 13.789 10.8078 13.809 10.7878 13.8156C10.8078 13.8289 10.8278 13.8489 10.8478 13.8489C10.8611 13.8489 10.8811 13.8289 10.9078 13.8223Z" fill="#9C4813"/>
<path id="Vector_22" d="M24.4052 3.14991C24.4785 3.38309 24.705 3.52966 24.7384 3.78282C24.1388 3.99601 23.5392 4.21586 22.9329 4.41573C22.753 4.47569 22.4999 4.56896 22.4399 4.28249C22.3999 4.07596 22.4332 3.82279 22.6931 3.7162C23.0528 3.57629 23.4059 3.42972 23.7723 3.30314C23.9522 3.24318 24.1254 3.19655 24.2653 3.05664C24.2787 3.0633 24.2986 3.0633 24.312 3.0633C24.3453 3.08995 24.3853 3.1166 24.4186 3.14325L24.4052 3.14991Z" fill="#9C4813"/>
<path id="Vector_23" d="M22.2956 15.7197C22.249 15.693 22.149 15.7596 22.189 15.5998C22.2556 15.3333 22.189 15.0668 21.8626 14.9868C21.6494 14.9335 21.6893 14.8203 21.8093 14.7537C22.2023 14.5271 22.5421 14.214 22.9951 14.1074C22.9418 14.5338 22.8819 14.9602 22.8286 15.3866C22.6887 15.5598 22.4955 15.6464 22.2956 15.7197Z" fill="#9C4813"/>
<path id="Vector_24" d="M24.0196 2.91002C23.5133 3.28977 22.8671 3.26978 22.3008 3.48964C22.6939 3.06326 23.2468 2.98331 23.7665 2.83008C23.8531 2.85673 23.9397 2.88338 24.0196 2.91002Z" fill="#9C4813"/>
<path id="Vector_25" d="M23.3374 7.95444C23.2042 8.08103 23.2908 8.37416 23.0443 8.33419C22.9177 8.3142 22.7112 8.19428 22.7511 8.0144C22.7845 7.89448 22.7911 7.66797 23.0043 7.66797C23.1775 7.66797 23.2708 7.80787 23.3374 7.95444Z" fill="#F6B511"/>
<path id="Vector_26" d="M20.3877 8.861C20.5943 8.84102 20.7542 8.90098 20.7875 9.13415C20.8008 9.25407 20.8141 9.37399 20.7009 9.4606C20.6276 9.5139 20.5476 9.5139 20.481 9.4606C20.3678 9.38066 20.2878 9.28739 20.3411 9.12749C20.3678 9.04088 20.3744 8.94761 20.3877 8.861Z" fill="#F6B511"/>
<path id="Vector_27" d="M17.974 10.3705C17.954 10.1573 18.1606 10.1507 18.2671 10.1307C18.3871 10.1107 18.4537 10.2639 18.447 10.3905C18.4404 10.5371 18.3737 10.6637 18.2072 10.6437C18.0739 10.637 17.9673 10.5437 17.974 10.3705Z" fill="#F6B511"/>
<path id="Vector_28" d="M25.5304 6.77284C25.4838 6.8861 25.4704 7.04599 25.3106 7.05932C25.1973 7.06598 25.0641 7.01268 25.084 6.85279C25.104 6.6929 25.2106 6.59296 25.3772 6.5863C25.5038 6.56632 25.5038 6.67957 25.5304 6.77284Z" fill="#F6B511"/>
<path id="Vector_29" d="M23.2148 9.98567C23.3214 9.71252 23.5946 9.69253 23.8144 9.58594C23.8078 9.63924 23.7945 9.69253 23.7878 9.74583C23.5679 9.75915 23.4414 9.99233 23.2148 9.98567Z" fill="#803318"/>
<path id="Vector_30" d="M16.1094 11.3105C16.1427 11.3239 16.1693 11.3439 16.2026 11.3572C16.1827 11.4171 16.156 11.4771 16.136 11.5304L16.116 11.5171C16.116 11.4505 16.116 11.3772 16.1094 11.3105Z" fill="#BC5F12"/>
<path id="Vector_31" d="M17.8972 4.26722C17.8906 4.37382 17.8373 4.46043 17.7507 4.52705C17.5841 4.48707 17.4176 4.44044 17.2443 4.42711C16.4649 4.34717 15.6787 4.27388 14.9059 4.14064C13.7467 3.94744 12.5808 3.84084 11.4216 3.63431C10.4156 3.45443 9.38961 3.37449 8.37029 3.22792C7.90393 3.1613 7.43758 3.12798 6.9579 2.97475C6.99121 3.17462 7.11113 3.18128 7.2044 3.21459C7.94391 3.48108 8.71672 3.62099 9.46289 3.8475C10.1224 4.04737 10.7487 4.34051 11.4349 4.46043C12.1344 4.58701 12.7807 4.84683 13.3869 5.20659C13.4336 5.23324 13.5335 5.21992 13.5735 5.17994C13.78 4.98008 13.9332 5.1 14.0865 5.25323C14.1797 5.3465 14.2663 5.45309 14.4129 5.46642C15.319 5.52638 16.1984 5.7862 17.0978 5.87281C16.8979 6.4391 16.7047 6.99873 16.5048 7.56501C16.2384 7.41178 15.9319 7.4784 15.6454 7.41178C14.6861 7.19193 13.72 6.97208 12.7474 6.85882C11.7414 6.7389 10.762 6.4924 9.74936 6.3858C8.90326 6.29253 8.07715 6.086 7.23105 5.95942C5.96523 5.76622 4.69275 5.58634 3.43359 5.33984C3.5202 5.00006 3.60681 4.65363 3.70008 4.31386C3.75338 4.10733 3.85997 3.99407 4.11314 4.06069C4.49288 4.15396 4.86597 4.22059 5.23905 4.30053C5.32566 4.32052 5.40561 4.32052 5.43892 4.23391C5.47889 4.11399 5.3723 4.10733 5.29901 4.08734C5.19908 4.06069 5.09248 4.02738 4.99255 4.02738C4.69275 4.02738 4.41294 3.94744 4.12646 3.87415C4.00654 3.84084 3.89995 3.77422 3.99322 3.6543C4.23972 3.31453 4.4196 2.90147 4.7727 2.65497C5.05251 2.46176 5.36563 2.67495 5.65877 2.7016C5.79868 2.71493 5.93192 2.77489 5.96523 2.56836C7.03785 2.58835 8.07049 2.88815 9.12312 3.02139C10.0891 3.14131 11.0418 3.30786 12.0079 3.45443C13.0738 3.61433 14.1398 3.76756 15.2057 3.91412C16.1051 4.04071 17.0045 4.1473 17.8972 4.26722Z" fill="#9C4813"/>
<path id="Vector_32" d="M17.8944 4.26907C16.995 4.15581 16.0956 4.04922 15.2029 3.92263C14.1369 3.77607 13.071 3.61617 12.005 3.46294C11.0456 3.32304 10.0863 3.14982 9.12026 3.0299C8.06097 2.89665 7.03499 2.59686 5.96238 2.57687C5.72254 2.41031 5.36278 2.61018 5.15625 2.33037C5.1829 2.30372 5.20955 2.27707 5.2362 2.25042C5.32281 2.17047 5.40275 2.09053 5.4827 2.01058C5.7825 1.89732 6.029 1.69746 6.28216 1.52424C6.41541 1.52424 6.54865 1.51758 6.6819 1.51758C7.16157 1.64416 7.66124 1.61751 8.14758 1.68413C9.02033 1.80405 9.88642 1.91065 10.7658 1.97727C11.3388 2.02391 11.8917 2.17714 12.4514 2.25042C13.0576 2.3237 13.6705 2.38366 14.2768 2.46361C15.1496 2.57687 16.0223 2.69013 16.8884 2.82337C17.548 2.9233 18.2208 2.90998 18.8671 3.06987C18.5473 3.46294 18.2208 3.86267 17.8944 4.26907Z" fill="#BC5F12"/>
<path id="Vector_33" d="M16.4503 7.81302C16.337 8.75905 16.3437 8.73906 15.4176 8.58583C12.6328 8.12614 9.84803 7.68644 7.06989 7.23341C5.89734 7.0402 4.72479 6.83367 3.55225 6.64047C3.26577 6.4406 3.24578 6.17411 3.35238 5.88098C3.43233 5.65446 3.63885 5.7011 3.79875 5.72109C5.4643 5.97425 7.12319 6.27405 8.7954 6.48724C9.27508 6.5472 9.72811 6.69377 10.2011 6.76039C10.9007 6.85366 11.6002 6.91362 12.2931 7.0402C13.6855 7.28004 15.0645 7.55319 16.4503 7.81302Z" fill="#9C4813"/>
<path id="Vector_34" d="M20.242 2.09646C19.8622 2.36295 19.4825 2.62944 19.1027 2.88926C17.9302 2.56948 16.7177 2.51618 15.5251 2.3363C14.3792 2.16308 13.2267 2.02984 12.0808 1.88327C11.1814 1.76335 10.2886 1.64343 9.38924 1.52351C8.64973 1.43024 7.90357 1.34363 7.16406 1.25036C7.36393 1.09713 7.56379 1.01052 7.77699 0.943897C8.38325 0.750693 8.98284 0.624112 9.64906 0.744031C10.282 0.863951 10.9149 0.990533 11.5678 1.04383C12.667 1.13044 13.7663 1.25702 14.8656 1.3836C16.0848 1.52351 17.2973 1.67674 18.5098 1.84996C19.0827 1.93657 19.6757 1.93657 20.242 2.09646Z" fill="#BC5F12"/>
<path id="Vector_35" d="M17.1114 5.87657C16.2053 5.78997 15.3259 5.53014 14.4199 5.47018C14.2666 5.45686 14.1867 5.35026 14.0934 5.25699C13.9402 5.10376 13.7936 4.98384 13.5804 5.18371C13.5404 5.21702 13.4405 5.237 13.3939 5.21035C12.7809 4.8506 12.1347 4.59077 11.4418 4.46419C10.7623 4.34427 10.1294 4.05113 9.46983 3.85126C8.72367 3.62475 7.95085 3.47818 7.21135 3.21836C7.11807 3.18504 6.99815 3.17838 6.96484 2.97852C7.43786 3.13175 7.91088 3.16506 8.37723 3.23168C9.38989 3.37159 10.4159 3.45819 11.4285 3.63807C12.5877 3.8446 13.7536 3.94454 14.9129 4.1444C15.6857 4.27765 16.4718 4.35093 17.2513 4.43088C17.4245 4.45086 17.5911 4.49084 17.7576 4.53081C17.5378 4.97718 17.3246 5.43021 17.1114 5.87657Z" fill="#BC5F12"/>
<path id="Vector_36" d="M20.2404 2.09489C19.6742 1.935 19.0812 1.935 18.5083 1.84839C17.2957 1.67517 16.0832 1.5286 14.864 1.38204C13.7648 1.25545 12.6655 1.12221 11.5662 1.04226C10.92 0.995628 10.2804 0.862383 9.64753 0.742464C8.97465 0.615882 8.38171 0.749126 7.77545 0.94233C7.56226 1.00895 7.3624 1.10222 7.16253 1.24879C7.90203 1.34206 8.6482 1.42201 9.38771 1.52194C10.2871 1.6352 11.1798 1.76178 12.0792 1.8817C13.2251 2.03493 14.3777 2.16151 15.5236 2.33473C16.7161 2.51461 17.9287 2.56791 19.1012 2.88769C19.0546 2.98096 18.9746 3.04092 18.8747 3.06091C18.2218 2.90102 17.5556 2.91434 16.896 2.81441C16.0299 2.68117 15.1572 2.56791 14.2844 2.45465C13.6782 2.3747 13.0652 2.32141 12.459 2.24146C11.8927 2.17484 11.3397 2.01495 10.7734 1.96831C9.9007 1.89503 9.02795 1.78843 8.1552 1.67517C7.66886 1.60855 7.16919 1.6352 6.68951 1.50862C6.96933 1.1422 6.7095 1.11555 6.42969 1.10222C7.26913 0.689166 8.20183 0.622544 9.10789 0.475975C9.32108 0.442664 9.53428 0.436002 9.74747 0.416016C10.014 0.675842 10.3671 0.562584 10.6735 0.622544C11.3264 0.755788 11.9926 0.789099 12.6522 0.909019C13.2784 1.02228 13.918 1.04893 14.5509 1.12221C15.6102 1.24879 16.6628 1.40202 17.7155 1.50196C18.6282 1.58856 19.5342 1.73513 20.447 1.84839C20.5402 1.86171 20.6402 1.83507 20.7068 1.92167C20.5602 2.00828 20.4203 2.09489 20.2404 2.09489Z" fill="#9C4813"/>
<path id="Vector_37" d="M16.4501 7.81234C15.0644 7.55252 13.6853 7.27937 12.2995 7.03953C11.6067 6.91961 10.9005 6.85965 10.2076 6.75971C9.73459 6.69309 9.28157 6.55319 8.80189 6.48656C7.12967 6.27337 5.47078 5.97357 3.80523 5.72041C3.63868 5.70042 3.43215 5.65379 3.3522 5.8803C3.24561 6.17344 3.26559 6.43993 3.54541 6.64646C2.61936 6.51988 2.60604 6.51321 2.84587 5.61382C3.07905 4.74773 3.29224 3.87498 3.77192 3.0955C4.17165 2.44261 4.72462 1.95627 5.39084 1.58984C5.42415 1.72975 5.4508 1.86966 5.48411 2.0029C5.40416 2.08951 5.32422 2.16946 5.23761 2.2494C5.21096 2.27605 5.18431 2.3027 5.15766 2.32935C5.36419 2.60916 5.72395 2.40263 5.96379 2.57585C5.93048 2.77572 5.79723 2.71576 5.65733 2.70243C5.36419 2.67578 5.05106 2.46259 4.77125 2.6558C4.41816 2.9023 4.23828 3.31535 3.99177 3.65513C3.90517 3.77505 4.0051 3.84833 4.12502 3.87498C4.40483 3.94826 4.69131 4.02155 4.9911 4.02821C5.0977 4.02821 5.19763 4.06152 5.30423 4.08817C5.37751 4.10816 5.48411 4.11482 5.44413 4.23474C5.41082 4.32801 5.33088 4.32135 5.24427 4.30136C4.86452 4.22141 4.49144 4.15479 4.12502 4.06152C3.87852 3.9949 3.77192 4.10816 3.71196 4.31469C3.61869 4.65446 3.53208 5.00089 3.44547 5.34067C4.70463 5.58717 5.97045 5.76705 7.24293 5.96025C8.08237 6.08683 8.91514 6.30002 9.76124 6.38663C10.7672 6.49323 11.7532 6.73973 12.7592 6.85965C13.7319 6.97291 14.6979 7.19276 15.6573 7.41261C15.9438 7.47923 16.2502 7.41261 16.5167 7.56584C16.5234 7.65911 16.5167 7.74572 16.4501 7.81234Z" fill="#803318"/>
<path id="Vector_38" d="M5.4839 2.01088C5.45725 1.87098 5.42394 1.73773 5.39062 1.59782C5.53719 1.47124 5.70375 1.37131 5.89029 1.30469C5.9236 1.55119 6.20341 1.35799 6.29002 1.52454C6.0302 1.70442 5.78369 1.90429 5.4839 2.01088Z" fill="#9C4813"/>
<path id="Vector_39" d="M6.29036 1.52323C6.20375 1.35668 5.92394 1.54988 5.89062 1.30338C6.05718 1.21011 6.23706 1.13683 6.43026 1.10352C6.71008 1.11684 6.96324 1.15015 6.69009 1.50991C6.55018 1.51657 6.4236 1.51657 6.29036 1.52323Z" fill="#803318"/>
<path id="Vector_40" d="M19.0955 3.73047C19.1887 4.1835 19.0555 4.30342 18.5625 4.19016C18.8023 4.0769 19.0355 3.99696 19.0955 3.73047Z" fill="#F2A406"/>
<path id="Vector_41" d="M16.8984 8.77814C17.1583 8.64489 17.2182 8.44503 17.085 8.17188C17.4248 8.5383 17.3581 8.72484 16.8984 8.77814Z" fill="#F2A406"/>
<path id="Vector_42" d="M2.68513 3.5293C2.7784 3.85574 2.65182 4.00898 2.33203 3.98899C2.44529 3.83576 2.63849 3.74915 2.68513 3.5293Z" fill="#F2A406"/>
<path id="Vector_43" d="M17.5742 6.19546C17.834 6.1888 17.8207 5.92897 17.9473 5.78906C17.9939 6.26208 17.934 6.32204 17.5742 6.19546Z" fill="#F2A406"/>
<path id="Vector_44" d="M17.5685 6.20163C17.5551 6.19497 17.5485 6.1883 17.5352 6.18164C17.5485 6.1883 17.5618 6.19497 17.5685 6.20163Z" fill="#F2A406"/>
<path id="Vector_45" d="M8.13599 13.4508C6.95678 13.2309 5.77757 13.0377 4.60502 12.7779C4.30522 12.7113 4.01208 12.638 3.70562 12.6447C3.8322 13.3509 3.85885 14.0837 4.12534 14.8299C3.98543 14.9698 4.11202 15.8758 4.4318 16.1357C4.2919 16.1023 4.132 16.1423 4.01208 16.0357C3.79223 14.7233 3.57238 13.4108 3.34586 12.0984C3.17931 11.1257 2.99943 10.1597 2.83287 9.18697C2.81289 9.08704 2.83287 8.97378 2.83954 8.86719C4.55838 9.18697 6.27057 9.51342 7.98942 9.83321C8.05604 9.92648 8.15597 9.90649 8.24925 9.89317C8.32253 9.89983 8.39581 9.90649 8.47576 9.91982C8.51573 9.93314 8.54905 9.95313 8.58902 9.96645C8.68229 9.97978 8.78222 9.98644 8.87549 9.99976C8.94211 10.0864 9.03539 10.073 9.12866 10.0597C9.17529 10.0664 9.22859 10.0664 9.27523 10.073C9.00207 10.3728 8.54238 10.3728 8.27589 10.3462C7.33652 10.2463 6.39715 10.1597 5.45778 10.0197C4.93147 9.94646 4.39849 9.8865 3.86552 9.83321C3.67897 9.81322 3.55905 9.8865 3.54573 10.0997C3.5324 10.2996 3.59236 10.3928 3.80556 10.4062C4.01875 10.4195 4.22527 10.4728 4.4318 10.5194C5.67097 10.7859 6.90348 11.0524 8.16264 11.2123C8.12266 11.2856 8.08935 11.3655 8.04938 11.4388C8.02273 11.4255 8.00274 11.4121 7.9761 11.4055C6.58369 11.1523 5.18463 10.9058 3.79223 10.6527C3.57904 10.6127 3.54573 10.7326 3.53907 10.9058C3.52574 11.3056 3.56572 11.7053 3.62568 12.105C3.65232 12.2716 3.76558 12.3115 3.89883 12.3515C4.31854 12.4714 4.75159 12.5514 5.17797 12.638C6.17064 12.8379 7.14998 13.071 8.12933 13.2976C8.14265 13.3442 8.13599 13.3975 8.13599 13.4508Z" fill="#803318"/>
<path id="Vector_46" d="M10.5469 18.9201C10.6601 18.6736 10.9066 18.5271 10.7601 18.2539C10.9466 18.3272 10.9733 18.4671 10.9599 18.627C10.9399 18.8202 10.7934 18.8802 10.5469 18.9201Z" fill="#F2A406"/>
<path id="Vector_47" d="M8.25449 17.6738C8.43437 17.8271 8.40106 17.987 8.36775 18.1202C8.3411 18.2468 8.2345 18.4133 8.0946 18.3267C7.92138 18.2201 8.1812 18.1935 8.18787 18.1069C8.20785 17.9736 8.22784 17.8404 8.25449 17.6738Z" fill="#F2A406"/>
<path id="Vector_48" d="M5.73157 16.9941C5.9381 17.1141 5.91811 17.2939 5.84483 17.4738C5.79153 17.6137 5.6916 17.687 5.51172 17.5804C5.67827 17.4205 5.77821 17.234 5.72491 17.0008L5.73157 16.9941Z" fill="#F2A406"/>
<path id="Vector_49" d="M16.2088 19.6523C16.4287 19.7056 16.382 19.8722 16.3354 19.9988C16.2754 20.1653 16.1422 20.2453 15.9023 20.1986C16.1155 20.0521 16.2421 19.8922 16.1955 19.659L16.2088 19.6523Z" fill="#F2A406"/>
<path id="Vector_50" d="M16.1978 19.6652C16.1778 19.6385 16.1579 19.6052 16.1445 19.5786C16.1445 19.5786 16.1645 19.5653 16.1712 19.5586C16.1845 19.5919 16.1978 19.6252 16.2112 19.6585C16.2112 19.6519 16.1978 19.6652 16.1978 19.6652Z" fill="#F2A406"/>
<path id="Vector_51" d="M5.72472 17.0005C5.71139 16.9938 5.70473 16.9871 5.69141 16.9805C5.70473 16.9871 5.71806 16.9938 5.73138 16.9938L5.72472 17.0005Z" fill="#F2A406"/>
<path id="Vector_52" d="M8.1696 11.2045C6.91044 11.0446 5.67793 10.7781 4.43876 10.5116C4.23223 10.465 4.01904 10.4117 3.81252 10.3984C3.59266 10.385 3.53937 10.2918 3.55269 10.0919C3.56601 9.87872 3.68593 9.80544 3.87248 9.82542C4.39879 9.88538 4.93177 9.94534 5.45808 10.0186C6.39079 10.1519 7.33682 10.2385 8.27619 10.3451C8.54268 10.3717 9.00237 10.3784 9.27552 10.0719C10.6946 10.3251 12.107 10.5716 13.526 10.8248C14.3921 10.978 15.2582 11.1445 16.1176 11.3044C16.1176 11.3711 16.1243 11.4443 16.1243 11.511C15.2049 11.471 14.3055 11.2778 13.3994 11.1579C12.1469 10.9913 10.9078 10.7381 9.64861 10.6782C9.42209 10.6649 9.10231 10.8114 9.11563 11.1779C8.84914 11.1779 8.58265 11.1779 8.31617 11.1845C8.28286 11.1445 8.25621 11.1512 8.23622 11.1978C8.20957 11.2112 8.18958 11.2112 8.1696 11.2045Z" fill="#9C4813"/>
<path id="Vector_53" d="M16.8965 10.418C17.143 10.5446 17.1164 10.7311 17.0564 10.8976C17.0031 11.0575 16.8699 11.1508 16.6367 11.0775C16.8766 10.911 17.0098 10.7178 16.8965 10.418Z" fill="#F2A406"/>
<path id="Vector_54" d="M4.41016 8.97987C4.63667 8.79333 4.75659 8.60679 4.56339 8.32031C4.81655 8.42691 4.86319 8.56681 4.80989 8.73337C4.76325 8.8866 4.66998 9.00652 4.41016 8.97987Z" fill="#F2A406"/>
<path id="Vector_55" d="M13.4648 9.90625C13.7313 10.226 13.678 10.4259 13.2383 10.5325C13.4182 10.3393 13.5048 10.1394 13.4648 9.90625Z" fill="#F2A406"/>
<path id="Vector_56" d="M7.65625 9.41809C7.70955 9.25153 7.76951 9.08498 7.72953 8.89844C7.9294 9.10497 7.9827 9.29151 7.66957 9.43141L7.65625 9.41809Z" fill="#F2A406"/>
<path id="Vector_57" d="M10.6328 10.0641C10.7527 9.91755 10.6928 9.73101 10.7461 9.56445C10.9526 9.8376 10.9393 9.90423 10.6395 10.0708L10.6328 10.0641Z" fill="#F2A406"/>
<path id="Vector_58" d="M8.2442 9.89877C8.15093 9.91209 8.05766 9.92542 7.98438 9.83881C8.07765 9.82548 8.17092 9.82548 8.2442 9.89877Z" fill="#9C4813"/>
<path id="Vector_59" d="M9.12035 10.0589C9.02708 10.0722 8.93381 10.0856 8.86719 9.99896C8.96046 9.98564 9.04707 9.98564 9.12035 10.0589Z" fill="#9C4813"/>
<path id="Vector_60" d="M10.6418 10.0711C10.6151 10.0911 10.5818 10.1111 10.5551 10.1244C10.5551 10.1244 10.5418 10.1044 10.5352 10.0978C10.5685 10.0844 10.6018 10.0778 10.6351 10.0645L10.6418 10.0711Z" fill="#F2A406"/>
<path id="Vector_61" d="M7.66404 9.43129C7.63739 9.45128 7.60408 9.47127 7.57077 9.48459C7.57077 9.48459 7.55744 9.4646 7.55078 9.45794C7.58409 9.44462 7.6174 9.43129 7.65071 9.41797C7.65738 9.41797 7.66404 9.43129 7.66404 9.43129Z" fill="#F2A406"/>
<path id="Vector_62" d="M13.4591 9.91256C13.4458 9.9059 13.4391 9.89924 13.4258 9.89258C13.4391 9.89258 13.4524 9.89924 13.4591 9.91256Z" fill="#F2A406"/>
<path id="Vector_63" d="M8.58201 9.9646C8.54203 9.95128 8.50872 9.93129 8.46875 9.91797C8.50206 9.93129 8.54203 9.95128 8.58201 9.9646Z" fill="#9C4813"/>
<path id="Vector_64" d="M22.0712 16.8807C22.0445 17.0073 22.0112 17.1605 21.818 17.1538C21.6514 17.1472 21.5915 17.0406 21.5982 16.8873C21.6048 16.7541 21.5982 16.6342 21.8113 16.6475C21.9846 16.6542 22.0512 16.7141 22.0712 16.8807Z" fill="#F6B511"/>
<path id="Vector_65" d="M8.17123 11.2044C8.19122 11.211 8.2112 11.211 8.22453 11.1977C8.25118 11.1977 8.27782 11.1911 8.30447 11.1844C8.57096 11.1844 8.83745 11.1844 9.10394 11.1777C9.26383 11.2177 9.42372 11.2577 9.58362 11.2977C9.57695 11.3909 9.51033 11.4109 9.43039 11.4376C9.19055 11.5242 8.96403 11.6441 8.8641 11.9106C8.77749 12.0305 8.66423 12.1904 8.75084 12.3103C9.03732 12.6967 8.83079 13.0964 8.82413 13.4895C8.82413 13.5961 8.7575 13.7227 8.90407 13.756C9.1106 13.8026 9.33045 13.9425 9.51699 13.8493C9.69021 13.7627 9.54364 13.5362 9.57029 13.3696C9.58362 13.3096 9.58362 13.2563 9.53698 13.2164C9.53032 13.1298 9.52366 13.0432 9.52366 12.9565C9.82346 12.8833 9.88342 12.5102 10.1766 12.4236C10.3231 12.5102 10.03 12.8633 10.4097 12.79C10.4897 12.7967 10.563 12.8033 10.6429 12.8166C10.6962 12.8633 10.7562 12.9166 10.8095 12.9632C11.1159 13.2297 11.0426 13.4629 10.7362 13.6627C10.6496 13.6694 10.563 13.6694 10.483 13.6761C10.4164 13.6094 10.3031 13.5828 10.2898 13.6627C10.2432 13.9425 9.99667 14.0158 9.82346 14.1624C9.57695 14.3623 9.2172 14.3823 9.03732 14.6754C8.8641 14.6487 8.79081 14.4755 8.64425 14.4089C8.6176 14.4089 8.59095 14.4089 8.5643 14.4089V14.4156C8.57762 14.3356 8.53765 14.2757 8.46437 14.2423L8.4577 14.229C8.34445 13.9692 8.17789 13.736 8.15124 13.4429C8.15124 13.3896 8.15124 13.3363 8.15124 13.283C8.27782 13.1631 8.25784 13.0765 8.08462 13.0432C7.86477 13.0032 7.68489 12.8833 7.53832 12.73C7.45171 12.6368 7.31847 12.5501 7.3651 12.3903C7.4184 12.2304 7.57829 12.1504 7.71154 12.1704C8.13126 12.237 8.20454 12.0638 8.08462 11.704C8.05797 11.6174 8.0713 11.5175 8.06463 11.4242C8.09795 11.3576 8.13126 11.2843 8.17123 11.2044Z" fill="#F6B511"/>
<path id="Vector_66" d="M10.6406 12.823C10.5606 12.8164 10.4873 12.8097 10.4074 12.7964C10.494 12.39 10.5406 11.9903 10.3008 11.6172C10.8537 11.7238 11.4 11.8304 11.953 11.9303C12.959 12.1169 13.9717 12.2967 14.9776 12.4833C15.2774 12.5366 15.5639 12.6831 15.877 12.6498C15.9637 12.6432 16.0436 12.6831 16.017 12.7897C15.9903 12.8763 15.917 12.8364 15.8504 12.8297C14.9643 12.7165 14.0916 12.5232 13.2188 12.3567C12.4393 12.2101 11.6532 12.0835 10.8671 11.9436C10.6939 11.9103 10.6472 11.9836 10.6472 12.1302C10.6406 12.37 10.6406 12.5965 10.6406 12.823Z" fill="#9C4813"/>
<path id="Vector_67" d="M10.2984 11.6245C10.5383 11.9976 10.4916 12.3973 10.405 12.8037C10.0253 12.877 10.3184 12.5239 10.1718 12.4373C9.87869 12.5239 9.81873 12.9037 9.51893 12.9703C9.49895 12.8637 9.45897 12.7504 9.51893 12.6572C9.6655 12.4373 9.74545 12.2175 9.53226 12.0043C9.33905 11.8044 9.09921 11.8311 8.85938 11.9177C8.95265 11.6512 9.17916 11.5313 9.42566 11.4446C9.50561 11.418 9.57223 11.398 9.57889 11.3047C9.87869 11.2781 10.0586 11.5246 10.2984 11.6245Z" fill="#F2A406"/>
<path id="Vector_68" d="M10.7266 13.6748C11.033 13.4749 11.113 13.2418 10.7998 12.9753C11.0996 12.942 11.133 13.2351 11.2928 13.375C11.2396 13.7281 10.9731 13.6815 10.7266 13.6748Z" fill="#F2A406"/>
<path id="Vector_69" d="M9.02344 14.6819C9.20332 14.3888 9.56308 14.3688 9.80958 14.1689C9.98946 14.0224 10.2293 13.9558 10.2759 13.6693C10.2893 13.5827 10.4092 13.616 10.4691 13.6826C10.6823 14.4754 10.3359 14.8485 9.34989 14.9018C9.23663 14.8352 9.10338 14.8085 9.02344 14.6819Z" fill="#F2A406"/>
<path id="Vector_70" d="M8.45312 14.248C8.52641 14.2814 8.56638 14.3347 8.55306 14.4213C8.47311 14.388 8.46645 14.3147 8.45312 14.248Z" fill="#9C4813"/>
<path id="Vector_71" d="M8.54688 14.416C8.57352 14.416 8.60017 14.416 8.62682 14.416C8.60017 14.4693 8.57352 14.4826 8.54688 14.416Z" fill="#9C4813"/>
<path id="Vector_72" d="M24.818 3.94336C24.9646 4.24982 25.0445 4.56961 25.0512 4.90938C24.3516 5.04262 23.7187 5.36241 23.0658 5.6289C22.9326 5.68219 22.7994 5.74882 22.6661 5.79545C22.0798 6.00864 22.0998 6.00198 21.9599 5.40904C21.88 5.05595 22.1465 5.00265 22.3197 4.92937C22.9792 4.64289 23.6654 4.39639 24.3383 4.13656C24.4982 4.08327 24.6581 4.00998 24.818 3.94336Z" fill="#9C4813"/>
<path id="Vector_73" d="M24.571 5.78693C23.8715 6.13336 23.172 6.4798 22.4724 6.8329C22.0327 6.57973 22.0261 6.47314 22.4458 6.18666C22.9921 5.81358 23.6317 5.68033 24.2513 5.48047C24.3046 5.6337 24.4378 5.70698 24.571 5.78693Z" fill="#9C4813"/>
<path id="Vector_74" d="M24.5709 5.78801C24.4377 5.71472 24.3044 5.63478 24.2578 5.47489C24.491 5.27502 24.7908 5.25503 25.0573 5.14844C25.1572 5.56149 24.8841 5.68141 24.5709 5.78801Z" fill="#BC5F12"/>
<path id="Vector_75" d="M22.0664 3.58915C22.0731 3.58249 22.0731 3.5625 22.0797 3.5625C22.0931 3.5625 22.0997 3.56916 22.113 3.56916C22.1064 3.57582 22.1064 3.59581 22.0997 3.59581C22.0864 3.59581 22.0731 3.59581 22.0664 3.58915Z" fill="#9C4813"/>
<path id="Vector_76" d="M22.9727 10.066C23.0326 9.96602 23.1259 9.98601 23.2125 9.98601C23.1592 10.0859 23.0593 10.0726 22.9727 10.066Z" fill="#803318"/>
<path id="Vector_77" d="M22.8125 10.1522C22.8458 10.0856 22.9058 10.0723 22.9724 10.0723C22.9391 10.1389 22.8791 10.1522 22.8125 10.1522Z" fill="#803318"/>
<path id="Vector_78" d="M10.9078 13.8224C10.8878 13.8357 10.8612 13.849 10.8412 13.849C10.8212 13.849 10.8012 13.829 10.7812 13.8157C10.8012 13.809 10.8212 13.7891 10.8412 13.7891C10.8679 13.7891 10.8812 13.809 10.9078 13.8224Z" fill="#BC5F12"/>
<path id="Vector_79" d="M8.057 11.4384C8.06366 11.5317 8.04367 11.6316 8.07699 11.7182C8.19691 12.078 8.12362 12.2445 7.7039 12.1846C7.564 12.1646 7.4041 12.2445 7.35747 12.4044C7.31083 12.5576 7.44408 12.6442 7.53069 12.7442C7.68392 12.9041 7.85713 13.0173 8.07699 13.0573C8.25687 13.0906 8.27019 13.1772 8.14361 13.2971C7.1576 13.0706 6.17826 12.8375 5.19225 12.6376C4.76587 12.551 4.33283 12.471 3.91311 12.3511C3.77986 12.3111 3.66661 12.2712 3.63996 12.1046C3.58 11.7049 3.54002 11.3118 3.55335 10.9054C3.56001 10.7322 3.59332 10.6123 3.80651 10.6522C5.19891 10.9054 6.59798 11.1519 7.99038 11.4051C8.01036 11.4051 8.03035 11.4251 8.057 11.4384Z" fill="#9C4813"/>
<path id="Vector_80" d="M3.713 12.6508C3.69967 12.6442 3.69301 12.6375 3.67969 12.6309C3.68635 12.6375 3.69967 12.6442 3.713 12.6508Z" fill="#9C4813"/>
<path id="Vector_81" d="M8.3026 11.1911C8.27595 11.2045 8.24931 11.2111 8.22266 11.2045C8.24264 11.1578 8.26929 11.1445 8.3026 11.1911Z" fill="#BC5F12"/>
<path id="Vector_82" d="M8.87084 11.9167C9.11068 11.8301 9.35052 11.8101 9.54373 12.0033C9.75692 12.2165 9.67697 12.4363 9.5304 12.6562C9.47044 12.7494 9.50375 12.8627 9.5304 12.9693C9.53706 13.0559 9.54373 13.1425 9.54373 13.2291C9.55705 13.2824 9.57038 13.329 9.57704 13.3823C9.54373 13.5422 9.69696 13.7754 9.52374 13.862C9.3372 13.9553 9.11068 13.8154 8.91082 13.7688C8.77091 13.7354 8.83087 13.6022 8.83087 13.5023C8.8442 13.1092 9.04406 12.7095 8.75759 12.3231C8.67098 12.1965 8.78424 12.0366 8.87084 11.9167Z" fill="#803318"/>
<path id="Vector_83" d="M9.57628 13.3778C9.56296 13.3245 9.54963 13.2779 9.54297 13.2246C9.5896 13.2712 9.5896 13.3245 9.57628 13.3778Z" fill="#F2A406"/>
</g>
</svg>
