<svg width="23" height="23" viewBox="0 0 23 23" fill="none" xmlns="http://www.w3.org/2000/svg">
<g id="SVG" clip-path="url(#clip0_1257_6587)">
<g id="Clip path group">
<mask id="mask0_1257_6587" style="mask-type:luminance" maskUnits="userSpaceOnUse" x="0" y="0" width="23" height="23">
<g id="clip0_196_687">
<path id="Vector" d="M22.7538 0.648438H0.933594V22.4687H22.7538V0.648438Z" fill="white"/>
</g>
</mask>
<g mask="url(#mask0_1257_6587)">
<g id="Group">
<path id="Vector_2" d="M22.7556 4.80915C21.9374 5.15009 21.1191 5.42284 20.1644 5.49103C21.1191 4.94553 21.801 4.05907 22.1419 3.03625C21.2555 3.58176 20.3008 3.9227 19.278 4.12726C18.4597 3.24081 17.3006 2.69531 16.0732 2.69531C13.6184 2.69531 11.5727 4.67277 11.5727 7.19573C11.5727 7.53668 11.6409 7.87759 11.7091 8.21857C7.95879 8.01398 4.68572 6.2411 2.43552 3.51357C2.02639 4.19545 1.82182 4.94553 1.82182 5.76378C1.82182 7.33211 2.64008 8.69587 3.79928 9.51415C3.04921 9.51415 2.36733 9.30956 1.75363 8.96865V9.03685C1.75363 11.2188 3.32196 12.9917 5.36761 13.4009C4.95848 13.4691 4.61754 13.5372 4.20841 13.5372C3.93566 13.5372 3.6629 13.5372 3.39015 13.4691C3.93566 15.242 5.64036 16.5375 7.54963 16.6057C6.04949 17.8331 4.07203 18.515 1.9582 18.515C1.61726 18.515 1.20813 18.515 0.867188 18.4468C2.91283 19.6742 5.29942 20.4243 7.82238 20.4243C16.0732 20.4243 20.5736 13.6054 20.5736 7.67307C20.5736 7.46849 20.5736 7.26392 20.5736 7.12754C21.3918 6.44566 22.1419 5.6956 22.7556 4.80915Z" fill="white"/>
</g>
</g>
</g>
</g>
<defs>
<clipPath id="clip0_1257_6587">
<rect width="22.23" height="22.23" fill="white" transform="translate(0.730469 0.441406)"/>
</clipPath>
</defs>
</svg>
