<svg width="17" height="17" viewBox="0 0 17 17" fill="none" xmlns="http://www.w3.org/2000/svg">
<g id="Frame" clip-path="url(#clip0_1284_15406)">
<g id="Group">
<path id="Vector" d="M4.07534 8.95749C3.48184 8.95749 2.92405 8.96024 2.36627 8.95749C1.55021 8.95474 0.87702 8.32003 0.871524 7.5122C0.860534 5.63003 0.860534 3.74786 0.871524 1.86843C0.87702 1.0139 1.50349 0.406659 2.36352 0.392921C2.75644 0.384678 3.14662 0.439632 3.47085 0.112656C3.56701 0.0164862 3.77584 0.00824309 3.93246 0.00824309C6.90272 0.0027477 9.87298 0.0027477 12.8405 0C13.2004 0 13.5164 0.054954 13.8187 0.296751C13.9643 0.412155 14.2391 0.390173 14.4534 0.384678C15.0084 0.368191 15.514 0.480847 15.83 0.975432C15.9756 1.20074 16.1157 1.48101 16.1185 1.73929C16.1432 3.67917 16.1487 5.61904 16.1322 7.55891C16.1267 8.33102 15.4453 8.952 14.665 8.96024C14.033 8.96574 13.401 8.95474 12.7718 8.97398C12.6701 8.97673 12.4915 9.09213 12.4805 9.17456C12.3459 10.1775 12.2003 11.1831 12.1288 12.1915C12.0656 13.1203 12.3624 13.983 12.8048 14.7936C12.857 14.887 12.9586 14.9777 13.0576 15.0189C13.717 15.2882 13.7582 16.4697 13.2142 16.8736C13.1043 16.956 12.9367 16.9973 12.7938 16.9973C11.1342 16.9973 9.47731 16.978 7.8177 16.978C6.46858 16.978 5.11946 17 3.7676 17C3.12189 17 2.73172 16.5631 2.81415 15.9174C2.84437 15.6756 2.94604 15.4036 3.1054 15.225C3.29774 15.0107 3.29225 14.8348 3.21256 14.6013C2.91306 13.6973 2.96527 12.7713 3.17959 11.8755C3.4049 10.9413 3.7621 10.0373 4.05885 9.11961C4.07259 9.08114 4.0671 9.03168 4.07534 8.95749ZM5.50689 3.29998C5.59482 3.71489 5.67999 4.01713 5.71846 4.32762C5.87233 5.63278 5.57009 6.87199 5.14419 8.09472C4.71555 9.32568 4.27043 10.5539 3.89124 11.7986C3.60823 12.7273 3.61098 13.6808 3.89674 14.626C3.98466 14.92 4.13579 14.9969 4.4243 14.9969C6.84502 14.9859 9.26299 14.9887 11.6837 14.9887C11.8101 14.9887 11.9338 14.9887 12.0821 14.9887C12.0684 14.8843 12.0739 14.8211 12.0492 14.7744C11.4227 13.5379 11.3293 12.2218 11.5106 10.8836C11.692 9.54275 11.942 8.21287 12.1343 6.87474C12.291 5.79489 12.0904 4.76725 11.6343 3.77808C11.4804 3.44561 11.288 3.32197 10.9171 3.32746C9.85375 3.3412 8.79313 3.31097 7.72978 3.30273C7.00438 3.29449 6.28174 3.29998 5.50689 3.29998ZM12.8927 5.2536C13.0466 5.20963 13.3406 5.28657 13.3406 4.90464C13.3323 3.63246 13.3213 2.35752 13.3213 1.08534C13.3213 0.752869 13.1812 0.653952 12.8487 0.653952C9.94717 0.664943 7.04835 0.659447 4.14953 0.659447C3.72089 0.659447 3.69616 0.686924 3.69616 1.12106C3.69066 2.40698 3.68791 3.6929 3.67418 4.97883C3.67143 5.19315 3.75661 5.28932 3.95169 5.29206C4.26768 5.30031 4.58366 5.30305 4.8969 5.28382C4.9601 5.28107 5.0755 5.15468 5.06726 5.09698C4.99307 4.54469 4.9546 3.97867 4.79524 3.45111C4.62763 2.90157 4.74578 2.64878 5.33653 2.64878C7.27641 2.64603 9.21628 2.65702 11.1562 2.63779C11.6233 2.63229 11.92 2.81914 12.0876 3.22305C12.3624 3.88524 12.6179 4.55568 12.8927 5.2536ZM5.07825 5.98723C4.70731 5.98723 4.42979 5.98448 4.15227 5.98723C3.30598 5.99273 3.01748 5.68773 3.01473 5.00081C3.00648 3.77259 3.03946 2.54712 3.04495 1.31889C3.04495 1.23646 2.98176 1.10183 2.91306 1.0771C2.2179 0.816066 1.54471 1.24745 1.54196 1.9646C1.53372 3.77534 1.53372 5.58882 1.53921 7.39955C1.54196 7.9381 1.9129 8.29255 2.4487 8.28705C2.99824 8.28156 3.54778 8.26507 4.09457 8.24034C4.19624 8.23485 4.3611 8.18539 4.38583 8.1167C4.62488 7.42977 4.8392 6.73461 5.07825 5.98723ZM12.6949 8.27881C13.3433 8.27881 13.9918 8.2898 14.643 8.27606C15.1266 8.26507 15.4645 7.91337 15.4673 7.42428C15.4728 5.59156 15.4728 3.75885 15.4673 1.92339C15.4645 1.40682 15.1376 1.08259 14.6183 1.05512C14.5028 1.04962 14.3847 1.06611 14.2693 1.05512C14.022 1.03039 13.9478 1.1348 13.9533 1.37934C13.978 2.54712 13.9863 3.71214 14 4.87991C14.0055 5.53661 13.783 5.81138 13.1235 5.91304C12.8954 5.94876 12.857 6.04219 12.846 6.25376C12.813 6.90496 12.7498 7.55342 12.6949 8.27881ZM8.22161 15.6646C6.78457 15.6646 5.34752 15.6674 3.91048 15.6619C3.67418 15.6619 3.49008 15.6893 3.48458 15.9861C3.47909 16.2911 3.66044 16.3515 3.91597 16.3515C5.26509 16.3543 6.61696 16.3653 7.96608 16.3653C9.47456 16.3653 10.9803 16.3515 12.4888 16.3515C12.7471 16.3515 12.9147 16.2938 12.9092 15.9861C12.9037 15.6921 12.7443 15.6564 12.4998 15.6564C11.0737 15.6674 9.64767 15.6619 8.22161 15.6646Z" fill="#E275F9"/>
<path id="Vector_2" d="M7.72051 14.2482C6.92642 14.2482 6.13234 14.2509 5.33825 14.2482C4.8629 14.2455 4.64308 14.0614 4.59637 13.5942C4.51669 12.7974 4.59637 12.0116 4.82993 11.2477C5.25033 9.85738 5.73392 8.48628 6.09662 7.0822C6.28621 6.34857 6.30269 5.56273 6.33017 4.79887C6.3494 4.25482 6.39612 4.14217 6.93192 4.13393C8.16838 4.11469 9.40484 4.10095 10.6386 4.08996C11.1359 4.08447 11.4052 4.26856 11.4217 4.77689C11.4491 5.70561 11.4766 6.64532 11.3612 7.5603C11.2266 8.6429 10.9106 9.70076 10.7292 10.7779C10.5754 11.6983 10.5149 12.6298 10.7182 13.5585C10.8089 13.9679 10.6028 14.2427 10.1769 14.2482C9.35539 14.2509 8.53657 14.2455 7.72051 14.2482C7.72051 14.2455 7.72051 14.2455 7.72051 14.2482ZM7.00885 4.79063C7.13525 6.6096 6.4703 8.20876 5.92351 9.84089C5.56631 10.9125 5.23384 11.9896 5.23384 13.1409C5.23384 13.4514 5.31352 13.5723 5.64599 13.564C6.5335 13.542 7.42101 13.5558 8.30851 13.5558C8.86355 13.5558 9.41858 13.5558 10.0066 13.5558C9.98186 13.1684 9.95438 12.8441 9.94064 12.5199C9.8692 10.8301 10.4297 9.23365 10.7073 7.59602C10.8639 6.67005 10.9133 5.74682 10.7375 4.78788C9.50651 4.79063 8.28653 4.79063 7.00885 4.79063Z" fill="#E275F9"/>
<path id="Vector_3" d="M7.66272 11.2408C7.26431 10.9962 6.89337 10.8396 6.6186 10.5813C6.135 10.1252 6.14599 9.52345 6.3768 8.95743C6.71752 8.11938 7.30552 7.50939 8.21776 7.28133C8.43208 7.22638 8.5255 7.11372 8.53374 6.89116C8.54473 6.47076 8.58595 6.05311 8.59694 5.63546C8.60243 5.39367 8.68212 5.20133 8.93216 5.18484C9.20693 5.16561 9.28386 5.37168 9.27013 5.60799C9.24265 6.07235 9.19594 6.53396 9.18495 6.99832C9.1822 7.10548 9.25364 7.27859 9.33882 7.31705C10.3912 7.8034 10.4709 9.02887 9.93507 9.89164C9.60809 10.4165 9.12725 10.7489 8.58595 11.0209C8.4678 11.0814 8.3469 11.2325 8.32217 11.3589C8.23974 11.7931 8.20127 12.2354 8.14907 12.6751C8.12159 12.9141 8.0474 13.1504 7.76439 13.1174C7.46489 13.0817 7.44565 12.8317 7.48412 12.5761C7.55007 12.1008 7.61052 11.6282 7.66272 11.2408ZM8.68212 7.87209C8.01718 7.86934 7.20661 8.54253 6.98404 9.27891C6.77522 9.97957 7.18737 10.4906 7.91826 10.4329C8.69586 10.3725 9.41575 9.73503 9.57512 8.96842C9.69877 8.36942 9.2976 7.87484 8.68212 7.87209Z" fill="#E275F9"/>
</g>
</g>
<defs>
<clipPath id="clip0_1284_15406">
<rect width="15.2772" height="17" fill="white" transform="translate(0.863281)"/>
</clipPath>
</defs>
</svg>
