<svg width="18" height="18" viewBox="0 0 18 18" fill="none" xmlns="http://www.w3.org/2000/svg">
<g id="withdrawl dollar">
<path id="Vector" d="M7.5461 12.6355H9.36706C9.65602 12.6355 9.93315 12.5207 10.1375 12.3163C10.3418 12.112 10.4566 11.8349 10.4566 11.5459C10.4566 11.257 10.3418 10.9798 10.1375 10.7755C9.93315 10.5712 9.65602 10.4564 9.36706 10.4564H8.60515C8.31619 10.4564 8.03907 10.3416 7.83474 10.1373C7.63041 9.93296 7.51563 9.65583 7.51562 9.36687C7.51562 9.07791 7.63041 8.80079 7.83474 8.59646C8.03907 8.39213 8.31619 8.27734 8.60515 8.27734H10.4261" stroke="white" stroke-miterlimit="10" stroke-linecap="square"/>
<path id="Vector_2" d="M9 6.82031V8.27556" stroke="white" stroke-miterlimit="10" stroke-linecap="square"/>
<path id="Vector_3" d="M9 12.6367V14.092" stroke="white" stroke-miterlimit="10" stroke-linecap="square"/>
<path id="Vector_4" d="M17.0001 1V8.26861H13.3658V4.63431H4.63431V8.26861H1V1H17.0001Z" stroke="white" stroke-miterlimit="10" stroke-linecap="square"/>
<path id="Vector_5" d="M4.63281 4.63672H13.3643" stroke="white" stroke-miterlimit="10" stroke-linecap="square"/>
<path id="Vector_6" d="M13.3567 4.63672H4.63281V17.0025H13.3567V4.63672Z" stroke="white" stroke-miterlimit="10" stroke-linecap="square"/>
<path id="Vector_7" d="M3.17969 4.63672H14.8217" stroke="white" stroke-miterlimit="10"/>
</g>
</svg>
