<svg width="15" height="18" viewBox="0 0 15 18" fill="none" xmlns="http://www.w3.org/2000/svg">
<g id="Group">
<path id="Vector" d="M8.24161 6.17661C6.78643 6.17661 5.33126 6.17278 3.87609 6.18045C3.6534 6.18045 3.57277 6.16126 3.66875 5.91169C3.89529 5.32808 4.08342 4.73296 4.29843 4.14935C4.49425 3.60798 5.03178 3.36609 5.58083 3.56575C5.85727 3.66558 6.13756 3.75388 6.414 3.86139C6.55222 3.91514 6.60982 3.89211 6.60214 3.73469C6.56374 2.93223 6.82099 2.2104 7.23566 1.54617C7.4046 1.28124 7.62729 1.05087 7.87302 0.839697C8.32992 0.451907 8.84441 0.19466 9.4357 0.0794747C10.1729 -0.0625871 10.8832 -0.0203525 11.5973 0.256092C12.3038 0.528697 12.8797 0.954883 13.3098 1.56152C13.9241 2.42541 14.1122 3.37761 13.8972 4.445C13.7628 5.11307 13.3366 5.55845 12.968 6.06143C12.9028 6.14974 12.8029 6.19965 12.6686 6.19965C11.1942 6.19581 9.72366 6.19581 8.24929 6.19581C8.24161 6.18429 8.24161 6.18045 8.24161 6.17661ZM8.84441 4.7176C8.84825 4.51795 8.67163 4.44884 8.58716 4.32213C8.41055 4.05721 8.65628 3.99577 8.7753 3.88827C8.88665 3.79228 9.00567 3.71549 9.13621 3.91898C9.23988 4.0764 9.33587 4.25302 9.51633 4.36437C9.71598 4.49107 9.91563 4.60242 10.1076 4.39892C10.2881 4.20311 10.1306 4.03417 10.0078 3.86523C9.82732 3.61182 9.64687 3.3277 9.63151 3.03206C9.60079 2.39086 10.1537 1.98771 10.7258 2.11057C10.9139 2.15281 11.0253 2.14129 11.1136 1.97235C11.1558 1.88788 11.2172 1.84949 11.3094 1.90708C11.4092 1.97619 11.5129 2.03762 11.6089 2.11825C11.6895 2.18353 11.7356 2.25264 11.6089 2.34095C11.5282 2.39854 11.4937 2.5022 11.6165 2.59051C11.6972 2.64427 11.7548 2.72874 11.8277 2.79785C12.0235 2.98982 11.9275 3.12421 11.7548 3.26243C11.5858 3.39681 11.4438 3.42753 11.3132 3.22403C11.271 3.15876 11.2095 3.10117 11.1558 3.03974C11.0329 2.89767 10.887 2.81704 10.6951 2.82856C10.5184 2.83624 10.4378 2.92071 10.4877 3.10117C10.5415 3.29698 10.6336 3.47744 10.7488 3.6387C10.9792 3.95738 11.0636 4.27222 10.9062 4.66385C10.791 4.94797 10.576 5.07084 10.2919 5.22826C10.9523 5.46247 11.5705 5.68516 12.1886 5.89633C12.2769 5.92705 12.3729 5.88097 12.442 5.80418C12.5726 5.65828 12.73 5.52774 12.8298 5.36264C13.2176 4.7368 13.3981 4.03801 13.3059 3.31618C13.064 1.40411 11.2403 0.19466 9.37426 0.732191C8.87513 0.878092 8.45278 1.16606 8.08035 1.55001C7.41995 2.22576 7.16655 3.02438 7.23566 3.95354C7.24718 4.11864 7.31629 4.18391 7.46219 4.22998C7.91909 4.38356 8.37215 4.5525 8.84441 4.7176Z" fill="#E275F9"/>
<g id="Group_2">
<path id="Vector_2" d="M13.8007 6.50781H2.57399C1.90592 6.51165 1.44902 6.96855 1.44518 7.64047C1.44134 8.32774 1.44902 9.01501 1.4375 9.70228C1.4375 9.89042 1.48741 9.94801 1.67555 9.94417C2.31291 9.93265 2.94643 9.94033 3.57995 9.94033C4.11364 9.94417 4.44767 10.2782 4.45151 10.8119C4.45151 11.5798 4.44767 12.3477 4.44767 13.1156C4.44384 13.6723 4.12132 13.9987 3.56843 14.0025C2.93491 14.0102 2.30139 14.0102 1.66787 14.0025C1.49509 13.9987 1.4375 14.0486 1.4375 14.2252C1.44902 14.8779 1.44134 15.5307 1.44518 16.1834C1.44518 17.0165 1.85601 17.4389 2.68918 17.4389C6.39431 17.4427 10.1033 17.4427 13.8084 17.4389C14.5533 17.4389 14.9948 16.9974 14.9986 16.2563V7.70958C14.9948 6.94936 14.5533 6.50781 13.8007 6.50781ZM3.56459 7.02999C3.49548 7.02615 3.40333 6.99543 3.40333 7.10294C3.40333 6.99159 3.49548 7.02231 3.56459 7.02999ZM3.5953 7.17205C3.51083 7.16053 3.41101 7.18741 3.40333 7.10294C3.40717 7.18741 3.51083 7.16053 3.5953 7.17205C3.62218 7.14901 3.68361 7.16821 3.72585 7.15669C3.68361 7.17205 3.62218 7.14901 3.5953 7.17205ZM14.3306 11.6028C14.3267 11.5721 14.3191 11.5299 14.3229 11.4953C14.3191 11.5261 14.3306 11.5721 14.3306 11.6028ZM14.3267 12.2095V12.2133C14.3267 12.2133 14.3267 12.2133 14.3267 12.2095ZM14.4035 15.7533C14.4074 15.7533 14.4074 15.7495 14.4112 15.7495C14.4342 15.7495 14.4458 15.7572 14.4534 15.7687C14.4419 15.7572 14.4304 15.7533 14.4074 15.7533C14.4074 15.7495 14.4074 15.7533 14.4035 15.7533ZM14.3306 13.8182C14.3267 13.8605 14.3267 13.9065 14.3536 13.9296C14.3229 13.9065 14.3229 13.8643 14.3306 13.8182ZM14.4688 8.68097C14.465 8.62722 14.5072 8.54275 14.392 8.55043C14.3574 8.55427 14.3421 8.56963 14.3344 8.59267C14.3421 8.56963 14.3574 8.55043 14.3882 8.55043C14.5072 8.54275 14.465 8.63106 14.4688 8.68097ZM14.3421 8.1588C14.3459 8.16264 14.3459 8.17032 14.3498 8.17416C14.3459 8.17032 14.3421 8.16264 14.3421 8.1588ZM14.3267 8.77696C14.3191 8.83839 14.3114 8.90367 14.3843 8.91135C14.3114 8.90367 14.3191 8.83455 14.3267 8.77696ZM14.3306 10.0478C14.3306 10.0555 14.3306 10.067 14.3306 10.0747C14.3306 10.067 14.3306 10.0594 14.3306 10.0478ZM14.3344 10.0402C14.3344 10.0286 14.3382 10.0133 14.3459 10.0056C14.3382 10.0171 14.3344 10.0286 14.3344 10.0402ZM14.3421 10.3243C14.3382 10.3204 14.3382 10.3128 14.3382 10.3089C14.3382 10.3166 14.3382 10.3204 14.3421 10.3243ZM14.4112 9.63701C14.3766 9.63317 14.3574 9.62549 14.3421 9.61014C14.3536 9.62549 14.3766 9.63317 14.4112 9.63701C14.4342 9.63701 14.4496 9.62933 14.4611 9.61781C14.4496 9.63317 14.4342 9.64085 14.4112 9.63701ZM14.4074 9.26842C14.3536 9.26458 14.3344 9.28762 14.3267 9.31833C14.3344 9.28378 14.3574 9.26074 14.4074 9.26842C14.488 9.2761 14.4765 9.33369 14.4726 9.3836C14.4803 9.32985 14.488 9.2761 14.4074 9.26842ZM14.4458 8.89599C14.4765 8.87295 14.4726 8.82304 14.4765 8.77312C14.4765 8.82304 14.4765 8.87295 14.4458 8.89599ZM14.4688 8.69633C14.4688 8.70017 14.4726 8.70017 14.4726 8.70017C14.4726 8.69633 14.4688 8.69633 14.4688 8.69633ZM14.3958 8.19336C14.3766 8.19336 14.3651 8.18568 14.3536 8.17416C14.3613 8.18568 14.3766 8.19336 14.3958 8.19336C14.4266 8.19336 14.4458 8.18568 14.4611 8.17416C14.4458 8.18952 14.4266 8.1972 14.3958 8.19336ZM14.3766 7.47537C14.2845 7.44849 14.2538 7.36402 14.2115 7.28723C14.2538 7.36018 14.2845 7.44849 14.3766 7.47537ZM14.2691 16.5673C14.2922 16.5289 14.3229 16.4905 14.3728 16.4752C14.3843 16.4713 14.392 16.4752 14.4035 16.4752C14.3958 16.4713 14.3843 16.4713 14.3766 16.4752C14.3229 16.4905 14.2922 16.5251 14.2691 16.5673ZM14.4726 15.9799V15.9837C14.4726 15.9837 14.4726 15.9837 14.4726 15.9799ZM14.4611 15.7687C14.465 15.7725 14.465 15.7841 14.4688 15.7917C14.465 15.7841 14.465 15.7764 14.4611 15.7687ZM14.4611 15.3694C14.4688 15.3579 14.4726 15.3464 14.4726 15.331C14.4726 15.3464 14.4688 15.3617 14.4611 15.3694ZM14.4074 14.3212C14.4496 14.3212 14.4611 14.3366 14.4688 14.3596C14.4611 14.3366 14.4458 14.3174 14.4074 14.3212ZM14.392 13.5917C14.369 13.5917 14.3536 13.5994 14.3421 13.6109C14.3498 13.5994 14.3651 13.5917 14.392 13.5917C14.3997 13.5917 14.4035 13.5955 14.4112 13.5994C14.4035 13.5994 14.3997 13.5917 14.392 13.5917ZM14.3229 12.436C14.3267 12.4744 14.3421 12.5051 14.4074 12.5051C14.4342 12.5051 14.4496 12.4974 14.4611 12.4898C14.4496 12.5013 14.4342 12.509 14.4074 12.509C14.3421 12.5051 14.3267 12.4744 14.3229 12.436ZM14.392 12.8699C14.3805 12.8699 14.3728 12.8776 14.3651 12.8814C14.3728 12.8776 14.3805 12.8737 14.392 12.8699ZM14.3997 12.1519C14.3498 12.1519 14.3344 12.1749 14.3267 12.2095C14.3344 12.1749 14.3498 12.1481 14.3997 12.1519ZM14.4726 11.7411C14.4726 11.7372 14.4765 11.7372 14.4765 11.7334C14.4726 11.7334 14.4726 11.7372 14.4726 11.7411ZM14.3997 11.4339C14.3728 11.4339 14.3574 11.4416 14.3459 11.4493C14.3574 11.4377 14.3728 11.4301 14.3997 11.4339C14.4304 11.4339 14.4496 11.4416 14.4611 11.4531C14.4458 11.4416 14.4304 11.4339 14.3997 11.4339ZM14.3382 11.0346C14.3191 10.9924 14.3421 10.9232 14.3267 10.8849C14.3421 10.8119 14.3037 10.7006 14.3997 10.7082C14.4342 10.7121 14.4534 10.7198 14.4688 10.7351C14.4573 10.7198 14.4342 10.7121 14.4035 10.7082C14.3037 10.7006 14.3459 10.8119 14.3306 10.8849C14.3421 10.9271 14.3191 10.9924 14.3382 11.0346ZM14.4803 9.47959C14.4803 9.46807 14.4803 9.46039 14.4841 9.44888C14.4765 9.43736 14.4726 9.41816 14.4726 9.39896C14.4726 9.41816 14.4726 9.43352 14.4841 9.44504C14.4803 9.4604 14.4803 9.47191 14.4803 9.47959ZM14.4803 7.95531C14.488 7.90155 14.488 7.84396 14.415 7.84012C14.488 7.84012 14.4842 7.89771 14.4803 7.95531ZM14.2384 7.15669C14.2269 7.15285 14.2192 7.15669 14.2077 7.16053C14.2192 7.15669 14.2307 7.15285 14.2384 7.15669ZM13.6817 16.7785C13.7508 16.7939 13.866 16.7401 13.8622 16.8591C13.8622 16.7439 13.747 16.7939 13.6817 16.7785ZM12.0806 16.79C12.119 16.7516 12.192 16.7977 12.2419 16.7785C12.288 16.7939 12.3647 16.767 12.3993 16.7977C12.3647 16.7708 12.288 16.7939 12.2419 16.7785C12.1958 16.8015 12.119 16.7555 12.0806 16.79ZM12.334 7.17205C12.3763 7.16821 12.407 7.15669 12.4108 7.10678C12.407 7.15669 12.3724 7.17205 12.334 7.17205ZM12.4031 7.08758C12.4031 7.07222 12.3993 7.05302 12.3916 7.04534C12.4031 7.05302 12.4031 7.07222 12.4031 7.08758ZM12.2611 7.02999C12.2496 7.02999 12.238 7.02999 12.2304 7.02615C12.2265 7.02615 12.2227 7.02615 12.2188 7.02615C12.2227 7.02615 12.2304 7.02615 12.2342 7.02615C12.238 7.02999 12.2496 7.02999 12.2611 7.02999ZM10.2492 7.08758C10.2492 7.16437 10.1954 7.17205 10.1378 7.16821C10.1916 7.17205 10.2492 7.16437 10.2492 7.08758C10.2453 7.06454 10.2415 7.04918 10.23 7.0415C10.2377 7.04918 10.2453 7.06454 10.2492 7.08758ZM10.0111 16.7823C9.97657 16.7785 9.93817 16.7747 9.91514 16.7977C9.93817 16.7747 9.97657 16.7747 10.0111 16.7823ZM10.1916 7.03383C10.1839 7.03383 10.1724 7.02999 10.1647 7.02999C10.1762 7.02999 10.1839 7.02999 10.1916 7.03383ZM9.94201 7.03383C9.93049 7.03767 9.91513 7.03767 9.90746 7.04534C9.91513 7.03767 9.92665 7.03767 9.94201 7.03383ZM9.89978 7.07222C9.89594 7.08374 9.88826 7.08758 9.88826 7.10678C9.88826 7.08758 9.8921 7.0799 9.89978 7.07222ZM9.90362 7.15285C9.89978 7.14901 9.89978 7.14517 9.89978 7.14133C9.90362 7.14133 9.90362 7.14901 9.90362 7.15285ZM9.51199 16.7977C9.50431 16.79 9.49279 16.7862 9.48127 16.7862C9.49279 16.79 9.50431 16.79 9.51199 16.7977ZM8.63274 7.16437C8.60586 7.16437 8.56747 7.16821 8.53291 7.16821C8.56363 7.16821 8.60202 7.16437 8.63274 7.16437C8.69417 7.16821 8.80552 7.19892 8.79784 7.09142C8.79784 7.06838 8.79016 7.05302 8.77864 7.0415C8.79016 7.05302 8.79784 7.06454 8.80168 7.09142C8.80552 7.19892 8.69417 7.16821 8.63274 7.16437ZM8.53291 7.02999C8.52523 7.02999 8.51755 7.02999 8.51371 7.02615C8.52139 7.02999 8.52523 7.02999 8.53291 7.02999ZM8.44844 7.08758C8.44844 7.11829 8.45612 7.13749 8.46764 7.14901C8.45228 7.13749 8.4446 7.11829 8.44844 7.08758ZM8.45996 16.8207C8.45612 16.8284 8.44844 16.8361 8.44844 16.8476C8.44844 16.8361 8.45612 16.8323 8.45996 16.8207ZM7.8802 16.7862C7.91475 16.79 7.95699 16.7785 7.99538 16.7785C7.95699 16.7785 7.91475 16.7939 7.8802 16.7862C7.85332 16.7823 7.81492 16.7747 7.78037 16.7823C7.81108 16.7747 7.84948 16.7823 7.8802 16.7862ZM7.18908 7.02615C7.2198 7.02999 7.26203 7.02231 7.29659 7.02615C7.26203 7.02615 7.2198 7.03383 7.18908 7.02615C7.14685 7.0415 7.08542 7.02231 7.04318 7.03383C7.08158 7.02231 7.14685 7.0415 7.18908 7.02615ZM5.58417 16.7977C5.58033 16.8015 5.58033 16.8092 5.58033 16.8131C5.58417 16.8092 5.58033 16.8015 5.58417 16.7977ZM5.92205 7.04534C5.89517 7.00311 5.82222 7.02231 5.77998 7.02999C5.76463 7.03383 5.74927 7.02999 5.73007 7.02999C5.74927 7.03383 5.76463 7.03383 5.77998 7.02999C5.82222 7.02231 5.89517 7.00695 5.92205 7.04534ZM5.58417 7.05686C5.57649 7.06838 5.56881 7.0799 5.56881 7.10294C5.56881 7.07606 5.57649 7.06838 5.58417 7.05686ZM5.14647 16.7785C5.12727 16.7785 5.10807 16.7785 5.08503 16.7823C5.10807 16.7785 5.13111 16.7747 5.14647 16.7785ZM4.86618 7.03767C4.85082 7.04534 4.84314 7.0607 4.8393 7.08758C4.84314 7.0607 4.85466 7.04534 4.86618 7.03767ZM4.31329 16.7823C4.32865 16.7823 4.34401 16.7785 4.36321 16.7785C4.34401 16.7823 4.32481 16.7823 4.31329 16.7823C4.25954 16.7862 4.17123 16.7593 4.14435 16.8169C4.16739 16.7593 4.2557 16.7862 4.31329 16.7823ZM3.58763 16.7785C3.60298 16.7823 3.62218 16.7823 3.64138 16.7823C3.61834 16.7862 3.59914 16.7862 3.58763 16.7785ZM2.9925 16.7862C3.01554 16.7939 3.0309 16.8092 3.03474 16.8399C3.02706 16.8054 3.0117 16.79 2.9925 16.7862ZM2.11325 16.5596C2.0979 16.552 2.0787 16.5558 2.06334 16.5712C2.0787 16.5596 2.0979 16.552 2.11325 16.5596ZM2.11709 16.5635C2.19388 16.6134 2.25532 16.6787 2.31675 16.7324C2.25532 16.6787 2.19004 16.6172 2.11709 16.5635ZM2.2246 14.5823C2.2246 14.59 2.21692 14.5977 2.21308 14.6053C2.21692 14.5977 2.22076 14.5938 2.2246 14.5823C2.2246 14.5554 2.21308 14.5439 2.19388 14.5324C2.21308 14.5439 2.2246 14.5593 2.2246 14.5823ZM2.03262 14.5209C1.97887 14.5362 1.95967 14.5823 1.96735 14.6591C1.96735 14.6668 1.96735 14.6744 1.96735 14.6821C1.96735 14.6744 1.96735 14.6629 1.96351 14.6552C1.95583 14.5823 1.97887 14.5324 2.03262 14.5209ZM1.99807 14.7628C2.01343 14.7743 2.02878 14.782 2.0595 14.7858C2.0595 14.7512 2.08254 14.7282 2.10557 14.709C2.08254 14.7282 2.0595 14.7474 2.0595 14.7858C2.03262 14.782 2.01343 14.7743 1.99807 14.7628ZM2.32827 16.8246C2.33595 16.8092 2.34746 16.7939 2.3513 16.767C2.34746 16.7977 2.33595 16.8092 2.32827 16.8246ZM2.70454 16.9014C2.73909 16.9474 2.82356 16.9129 2.87348 16.9321C2.90035 16.9244 2.93107 16.9282 2.96178 16.9282C2.93107 16.9282 2.89651 16.9282 2.86964 16.9321C2.81972 16.9129 2.73525 16.9474 2.70454 16.9014ZM5.93356 16.8591C5.93356 16.7324 5.83758 16.7747 5.76463 16.7823C5.83758 16.7747 5.92973 16.7324 5.93356 16.8591ZM6.2868 16.8438C6.29448 16.7862 6.33287 16.7747 6.37511 16.7785C6.32903 16.7785 6.29448 16.7862 6.2868 16.8438C6.2868 16.8745 6.29064 16.8937 6.30216 16.9052C6.29064 16.8937 6.28296 16.8745 6.2868 16.8438ZM6.46726 16.9321C6.42118 16.9167 6.34823 16.9398 6.30984 16.909C6.34439 16.9398 6.42118 16.9206 6.46726 16.9321C6.51717 16.9206 6.58244 16.9474 6.62084 16.9167C6.58244 16.9474 6.51333 16.9206 6.46726 16.9321ZM7.00479 7.10678C7.00479 7.14133 7.02399 7.15669 7.05086 7.16437C7.02399 7.15669 7.00479 7.14517 7.00479 7.10678ZM7.00863 16.8591C7.01247 16.9206 7.06238 16.9282 7.11613 16.9282C7.06238 16.9282 7.00863 16.9244 7.00863 16.8591ZM7.37338 16.8438C7.36954 16.7516 7.26203 16.7785 7.19676 16.7823C7.16605 16.7862 7.12381 16.7747 7.08542 16.7785C7.12381 16.7785 7.16605 16.7862 7.19676 16.7823C7.26203 16.7747 7.36954 16.7516 7.37338 16.8438ZM7.92243 16.9321C7.9685 16.9206 8.04146 16.9398 8.07217 16.9052C8.04146 16.9436 7.9685 16.9206 7.92243 16.9321ZM8.45612 16.8822C8.45996 16.8898 8.45612 16.8975 8.45996 16.9014C8.45612 16.8975 8.45612 16.8898 8.45612 16.8822ZM9.3776 16.9321C9.41984 16.9359 9.46591 16.9436 9.49279 16.9206C9.46591 16.9398 9.41984 16.9359 9.3776 16.9321ZM9.52351 16.8553C9.52351 16.8361 9.51967 16.8246 9.51583 16.8131C9.51967 16.8284 9.52351 16.8361 9.52351 16.8553ZM9.90362 16.8438C9.90746 16.9628 10.0188 16.9167 10.0879 16.9321C10.1033 16.9282 10.1225 16.9282 10.1417 16.9282C10.1225 16.9282 10.1033 16.9282 10.0841 16.9321C10.0188 16.9167 9.90746 16.9628 9.90362 16.8438ZM10.2185 16.9129C10.2377 16.9014 10.253 16.886 10.2492 16.8476C10.2453 16.8207 10.2377 16.8054 10.2223 16.7977C10.2338 16.8092 10.2453 16.8246 10.2492 16.8476C10.2569 16.886 10.2415 16.9014 10.2185 16.9129ZM10.8021 16.9359C10.7253 16.9167 10.6216 16.9628 10.6178 16.8591C10.6178 16.79 10.6562 16.7747 10.6984 16.7785C10.6562 16.7785 10.6178 16.79 10.6216 16.8591C10.6216 16.9628 10.7253 16.9167 10.8021 16.9359C10.8213 16.9206 10.852 16.9244 10.8827 16.9244C10.852 16.9244 10.8213 16.9244 10.8021 16.9359ZM10.9364 16.9129C10.9556 16.9014 10.9672 16.886 10.9672 16.8476C10.971 16.8898 10.9556 16.9052 10.9364 16.9129ZM11.6583 16.9129C11.6775 16.9014 11.6928 16.8822 11.6928 16.8438C11.689 16.7478 11.5853 16.7785 11.5201 16.7823C11.4509 16.7862 11.3319 16.7363 11.3281 16.8476C11.3242 16.9052 11.355 16.9206 11.3895 16.9282C11.3511 16.9244 11.3242 16.909 11.3281 16.8514C11.3358 16.7401 11.4509 16.79 11.5201 16.7862C11.5853 16.7823 11.689 16.7516 11.6928 16.8476C11.6928 16.8822 11.6775 16.9014 11.6583 16.9129ZM11.5085 16.9321C11.5277 16.9282 11.5431 16.9282 11.5623 16.9282C11.5431 16.9282 11.5239 16.9282 11.5085 16.9321ZM12.0537 7.12597C12.0537 7.12981 12.0537 7.14133 12.0576 7.14517C12.0537 7.14133 12.0576 7.12981 12.0537 7.12597ZM12.2572 16.9282C12.3302 16.9359 12.407 16.9513 12.4108 16.8476C12.4108 16.9551 12.3302 16.9359 12.2572 16.9282ZM12.7679 16.8476C12.7679 16.909 12.7986 16.9244 12.837 16.9282C12.7986 16.9282 12.7679 16.9129 12.7679 16.8476ZM12.837 16.9282C12.8408 16.9282 12.8408 16.9282 12.8447 16.9282C12.8408 16.9282 12.8408 16.9321 12.837 16.9282ZM12.9599 16.9359C12.9637 16.9359 12.9637 16.9359 12.9675 16.9359C12.9637 16.9359 12.9599 16.9359 12.9599 16.9359ZM13.0635 16.9282C13.0981 16.9282 13.125 16.9167 13.125 16.8591C13.125 16.8361 13.1173 16.8284 13.1096 16.8169C13.1173 16.8284 13.125 16.8399 13.125 16.8591C13.1288 16.9167 13.0981 16.9282 13.0635 16.9282ZM13.6932 16.9282C13.7124 16.9282 13.7316 16.9321 13.7508 16.9321C13.7316 16.9321 13.7086 16.9321 13.6932 16.9282ZM13.843 16.909C13.8468 16.9052 13.8468 16.9014 13.8468 16.8975C13.8468 16.9014 13.8468 16.909 13.843 16.909ZM14.4227 16.598C14.415 16.6134 14.4112 16.6288 14.4035 16.648C14.4074 16.6288 14.415 16.6134 14.4227 16.598C14.4381 16.552 14.4381 16.5174 14.4266 16.4944C14.4342 16.5174 14.4381 16.552 14.4227 16.598ZM14.4726 15.976C14.4726 15.9568 14.4726 15.9415 14.4765 15.9261C14.4726 15.9146 14.4726 15.8954 14.4726 15.8801C14.4726 15.8954 14.4726 15.9108 14.4765 15.9223C14.4726 15.9376 14.4726 15.9568 14.4726 15.976ZM14.4765 15.3233C14.4803 15.2849 14.4688 15.2389 14.4803 15.2081C14.4688 15.2389 14.4765 15.2849 14.4765 15.3233ZM14.4726 15.0968C14.4726 15.1083 14.4726 15.1237 14.4726 15.1352C14.4726 15.1237 14.4726 15.1122 14.4726 15.0968ZM14.4765 14.5324C14.4765 14.517 14.4765 14.4978 14.4803 14.4863C14.4726 14.4594 14.4765 14.4287 14.4765 14.398C14.4765 14.4287 14.4726 14.4633 14.4803 14.4902C14.4765 14.5017 14.4765 14.517 14.4765 14.5324ZM14.4611 13.9296C14.488 13.895 14.465 13.8259 14.4765 13.7798C14.465 13.8259 14.4918 13.895 14.4611 13.9296ZM14.415 13.2308C14.2922 13.2385 14.3344 13.1194 14.3306 13.0503C14.3267 12.9966 14.3152 12.9275 14.3459 12.8929C14.3152 12.9275 14.3306 13.0004 14.3344 13.0503C14.3344 13.1194 14.2883 13.2385 14.415 13.2308ZM14.4726 12.4283C14.4726 12.3976 14.465 12.3631 14.4765 12.3362C14.465 12.3055 14.4765 12.2632 14.4726 12.2248C14.4726 12.2632 14.465 12.3055 14.4765 12.3362C14.4688 12.3631 14.4726 12.3976 14.4726 12.4283ZM14.4726 11.7219C14.4726 11.6873 14.4688 11.6489 14.4765 11.622C14.4726 11.6067 14.4726 11.5913 14.4726 11.576C14.4726 11.5913 14.4726 11.6105 14.4765 11.6259C14.4688 11.6489 14.4765 11.6873 14.4726 11.7219ZM14.3958 11.0768C14.5033 11.0922 14.4803 10.9847 14.4765 10.9232C14.4726 10.8657 14.5072 10.7812 14.4688 10.739C14.5072 10.785 14.4726 10.8695 14.4765 10.9271C14.4803 10.9847 14.5033 11.0922 14.3958 11.0768Z" fill="#E275F9"/>
<path id="Vector_3" d="M3.53523 13.6212C3.90766 13.6174 4.07276 13.4561 4.07276 13.0798C4.0766 12.3388 4.0766 11.5978 4.07276 10.8568C4.07276 10.4958 3.8923 10.3192 3.52755 10.3154C2.53696 10.3115 1.54636 10.3115 0.551929 10.3154C0.175658 10.3154 0.00287963 10.4805 0.00287963 10.8491C-0.000959877 11.5978 -0.000959877 12.3503 0.00287963 13.099C0.00671914 13.4561 0.171818 13.6174 0.536571 13.6212C1.03571 13.625 1.53868 13.6212 2.03782 13.6212C2.53696 13.6212 3.03609 13.625 3.53523 13.6212ZM1.71146 11.9241C1.7345 11.5479 2.06086 11.2599 2.43329 11.2868C2.80956 11.3137 3.09368 11.6323 3.07449 12.0086C3.05145 12.3849 2.73277 12.6767 2.36034 12.6613C1.97255 12.6383 1.68458 12.3158 1.71146 11.9241Z" fill="#E275F9"/>
</g>
</g>
</svg>
