<svg width="26" height="26" viewBox="0 0 26 26" fill="none" xmlns="http://www.w3.org/2000/svg">
<g id="earphone-headphone-headset_svgrepo.com">
<path id="Vector" d="M13.8125 23.5625H12.1875V25.1875H13.8125V23.5625Z" fill="#05E8FF"/>
<path id="Vector_2" d="M21.9032 11.339C21.833 10.9077 21.6482 10.5032 21.3683 10.1676C21.0884 9.83204 20.7236 9.57774 20.3119 9.43125V9.28906C20.3119 7.34967 19.5415 5.4897 18.1701 4.11834C16.7988 2.74698 14.9388 1.97656 12.9994 1.97656C11.06 1.97656 9.20007 2.74698 7.82871 4.11834C6.45735 5.4897 5.68693 7.34967 5.68693 9.28906V9.43125C5.27503 9.57788 4.91006 9.83242 4.63014 10.1683C4.35022 10.5042 4.16563 10.909 4.09565 11.3406C3.1945 11.4321 2.35938 11.8548 1.75209 12.5268C1.14481 13.1989 0.808594 14.0724 0.808594 14.9782C0.808594 15.884 1.14481 16.7575 1.75209 17.4295C2.35938 18.1016 3.1945 18.5243 4.09565 18.6157C4.19672 19.2175 4.51978 19.7594 5.001 20.1345C5.48222 20.5096 6.08662 20.6905 6.6948 20.6416C7.30297 20.5927 7.8707 20.3175 8.28582 19.8704C8.70095 19.4233 8.93328 18.8367 8.93693 18.2266V11.7266C8.93636 11.223 8.77982 10.7319 8.48884 10.3209C8.19786 9.90991 7.78672 9.59911 7.31193 9.43125V9.28906C7.31193 7.78064 7.91115 6.33401 8.97776 5.26739C10.0444 4.20078 11.491 3.60156 12.9994 3.60156C14.5079 3.60156 15.9545 4.20078 17.0211 5.26739C18.0877 6.33401 18.6869 7.78064 18.6869 9.28906V9.43125C18.2121 9.59911 17.801 9.90991 17.51 10.3209C17.219 10.7319 17.0625 11.223 17.0619 11.7266V18.2266C17.0625 18.7301 17.219 19.2212 17.51 19.6322C17.801 20.0432 18.2121 20.354 18.6869 20.5219V21.8828C18.6869 22.0983 18.6013 22.305 18.449 22.4573C18.2966 22.6097 18.0899 22.6953 17.8744 22.6953H15.4369V24.3203H17.8744C18.5207 24.3197 19.1403 24.0627 19.5973 23.6057C20.0543 23.1487 20.3113 22.5291 20.3119 21.8828V20.5219C20.7238 20.3752 21.0888 20.1207 21.3687 19.7848C21.6486 19.449 21.8332 19.0441 21.9032 18.6125C22.8044 18.521 23.6395 18.0983 24.2468 17.4263C24.8541 16.7543 25.1903 15.8807 25.1903 14.9749C25.1903 14.0692 24.8541 13.1956 24.2468 12.5236C23.6395 11.8515 22.8044 11.4288 21.9032 11.3374V11.339ZM2.43693 14.9766C2.43745 14.5085 2.59937 14.0549 2.89538 13.6922C3.1914 13.3296 3.60341 13.0802 4.06193 12.9859V16.9672C3.60341 16.873 3.1914 16.6235 2.89538 16.2609C2.59937 15.8983 2.43745 15.4447 2.43693 14.9766ZM7.31193 18.2266C7.31193 18.4421 7.22633 18.6487 7.07396 18.8011C6.92158 18.9535 6.71492 19.0391 6.49943 19.0391C6.28394 19.0391 6.07728 18.9535 5.92491 18.8011C5.77254 18.6487 5.68693 18.4421 5.68693 18.2266V11.7266C5.68693 11.5111 5.77254 11.3044 5.92491 11.152C6.07728 10.9997 6.28394 10.9141 6.49943 10.9141C6.71492 10.9141 6.92158 10.9997 7.07396 11.152C7.22633 11.3044 7.31193 11.5111 7.31193 11.7266V18.2266ZM20.3119 18.2266C20.3119 18.4421 20.2263 18.6487 20.074 18.8011C19.9216 18.9535 19.7149 19.0391 19.4994 19.0391C19.2839 19.0391 19.0773 18.9535 18.9249 18.8011C18.7725 18.6487 18.6869 18.4421 18.6869 18.2266V11.7266C18.6869 11.5111 18.7725 11.3044 18.9249 11.152C19.0773 10.9997 19.2839 10.9141 19.4994 10.9141C19.7149 10.9141 19.9216 10.9997 20.074 11.152C20.2263 11.3044 20.3119 11.5111 20.3119 11.7266V18.2266ZM21.9369 16.9672V12.9859C22.3961 13.0792 22.8089 13.3283 23.1055 13.6911C23.402 14.0539 23.564 14.508 23.564 14.9766C23.564 15.4451 23.402 15.8993 23.1055 16.262C22.8089 16.6248 22.3961 16.8739 21.9369 16.9672Z" fill="#05E8FF"/>
</g>
</svg>
