<svg width="14" height="22" viewBox="0 0 14 22" fill="none" xmlns="http://www.w3.org/2000/svg">
<g id="Group">
<path id="Vector" d="M3.95852 20.4787C3.94111 20.4822 3.92718 20.4787 3.92022 20.4613C3.89933 20.4508 3.87844 20.4369 3.85755 20.4265L3.86451 20.4299C3.84362 20.3707 3.79836 20.3673 3.74613 20.3707C3.08809 20.0574 2.50665 19.6291 1.93217 19.1626C2.06099 19.093 2.14455 19.173 2.23508 19.1765C2.37086 19.1835 2.53799 19.2566 2.61806 19.086C2.6877 18.9328 2.58325 18.8179 2.46835 18.7204C2.06448 18.3653 1.71979 17.9545 1.42385 17.5053C0.828476 16.607 0.483789 15.6287 0.442009 14.5459C0.438527 14.4519 0.410674 14.3544 0.480307 14.2395C0.63002 14.3648 0.623057 14.6155 0.880702 14.6886C0.748397 14.2743 0.741434 13.8774 0.748397 13.4805C0.762324 12.53 1.06523 11.6596 1.51437 10.8344C1.53874 10.7857 1.5457 10.6917 1.62926 10.7091C1.70934 10.7265 1.72327 10.7996 1.72675 10.8762C1.74068 11.2 1.7929 11.5133 1.88691 11.8232C1.93914 11.9938 2.00877 12.1609 2.1167 12.3037C2.27686 12.5126 2.4788 12.6205 2.74341 12.5752C2.99409 12.53 3.12291 12.3455 3.19254 12.1261C3.33181 11.6909 3.30048 11.2452 3.24129 10.7996C2.91749 8.39026 3.31092 6.20724 5.2154 4.49076C6.04753 3.7422 6.98062 3.16076 8.00772 2.71858C8.30715 2.58976 8.60657 2.45746 8.93385 2.38086C8.97215 2.49576 8.88511 2.53754 8.84333 2.59672C8.25492 3.37662 7.71526 4.18089 7.3462 5.08961C7.18952 5.47956 7.06418 5.87996 7.08159 6.31169C7.10944 6.94535 7.71526 7.45716 8.34893 7.3736C8.58568 7.34227 8.72843 7.19952 8.80851 6.97669C8.94778 6.57978 8.88859 6.18286 8.83288 5.78247C8.82592 5.72328 8.81547 5.66061 8.79806 5.53179C9.69286 6.25946 10.518 6.96973 10.7652 8.10824C10.8766 8.62353 10.6782 9.11445 10.5006 9.59144C10.4588 9.70982 10.4031 9.82123 10.3683 9.94309C10.2917 10.2147 10.431 10.3609 10.7095 10.2982C10.9532 10.246 11.1134 10.0789 11.2352 9.87346C11.4755 9.4661 11.5068 9.01 11.5312 8.55389C11.5347 8.46685 11.5312 8.37633 11.5312 8.26143C11.6705 8.33107 11.7018 8.45641 11.7575 8.55738C12.0047 8.99955 12.1683 9.4661 12.2171 9.97094C12.238 10.1938 12.2101 10.3957 12.0534 10.5698C11.8724 10.7648 11.8341 10.9876 11.9177 11.2418C12.0117 11.5307 12.1231 11.8128 12.2902 12.0669C12.3424 12.147 12.3946 12.2549 12.5095 12.2236C12.6175 12.1957 12.6384 12.0774 12.6558 11.9868C12.7184 11.663 12.7289 11.3358 12.7219 10.9563C13.0179 11.2313 13.1989 11.5307 13.3591 11.8406C14.031 13.1567 14.038 14.5145 13.5993 15.8968C13.2999 16.8438 12.8229 17.6968 12.2519 18.5011C12.1753 18.609 12.0987 18.7169 12.0186 18.8284C12.4155 18.9781 12.7359 18.8876 13.2825 18.4872C13.366 18.6125 13.279 18.71 13.2268 18.8005C12.9587 19.281 12.5687 19.6396 12.1126 19.939C11.2318 20.5135 10.2569 20.8338 9.23676 21.0462C9.23327 21.0114 9.22979 20.98 9.22631 20.9452C9.27157 20.9452 9.31335 20.9383 9.33076 20.8895C10.1141 20.4613 10.807 19.9286 11.2735 19.1452C11.855 18.1703 12.0151 17.1363 11.7262 16.0395C11.6739 15.8341 11.6078 15.6252 11.4372 15.4128C11.3397 15.7436 11.1482 15.9525 10.9428 16.1544C10.8801 16.2136 10.8418 16.3111 10.7304 16.2728C10.6051 16.231 10.626 16.1231 10.6225 16.0256C10.6051 15.5904 10.6364 15.1552 10.5772 14.7165C10.3439 13.0348 9.59885 11.6422 8.26536 10.5802C8.12958 10.4723 7.99031 10.3435 7.77097 10.2982C7.88934 10.5002 7.99379 10.6673 8.0878 10.8379C8.31759 11.2592 8.47427 11.6944 8.42552 12.1888C8.38026 12.6623 7.93809 13.0766 7.40539 12.913C7.1756 12.8433 7.00151 12.7215 6.82046 12.5718C5.89433 11.8128 5.65062 10.817 5.84211 9.69241C5.96397 8.96822 6.31562 8.34151 6.85528 7.83318C6.91795 7.774 7.01892 7.72525 6.99803 7.60688C6.96321 7.61036 6.9458 7.60688 6.9284 7.61384C6.88662 7.63125 6.84484 7.65214 6.81002 7.67651C6.04057 8.25447 5.47305 8.98562 5.20844 9.91872C5.00302 10.6429 4.94035 11.388 5.0448 12.1366C5.10051 12.53 5.17014 12.9234 5.28156 13.3099C5.41386 13.766 5.45912 14.2395 5.4069 14.713C5.35815 15.1552 5.18059 15.5347 4.77323 15.7749C4.44943 15.9664 4.03859 15.942 3.74613 15.7088C3.49545 15.5033 3.41189 15.0995 3.54419 14.7513C3.60686 14.5842 3.69042 14.424 3.69391 14.243C3.70087 14.2395 3.70783 14.2395 3.71132 14.236C3.7148 14.2325 3.7148 14.2256 3.7148 14.2221C3.70783 14.229 3.70087 14.236 3.69391 14.243C3.55464 14.2499 3.5059 14.3718 3.43626 14.4554C2.7643 15.2353 2.43005 16.1301 2.45094 17.1711C2.48228 18.4906 3.08809 19.4899 4.06993 20.3081C4.07341 20.3777 4.10823 20.409 4.17786 20.409C4.17438 20.4856 4.12912 20.5135 4.06297 20.5239L4.06645 20.5274C4.056 20.4787 4.01074 20.4752 3.95852 20.4787Z" fill="#FC4C0E"/>
<path id="Vector_2" d="M3.70556 14.2494C3.70207 14.4339 3.61851 14.5941 3.55584 14.7577C3.42354 15.1059 3.5071 15.5098 3.75778 15.7152C4.05024 15.9519 4.46108 15.9728 4.78488 15.7813C5.19224 15.5411 5.3698 15.1616 5.41855 14.7194C5.47077 14.2459 5.42551 13.7724 5.29321 13.3163C5.18179 12.9298 5.11216 12.5399 5.05645 12.143C4.952 11.3944 5.01467 10.6493 5.22009 9.92512C5.48122 8.99203 6.05222 8.26088 6.82167 7.68292C6.85649 7.65506 6.89827 7.63765 6.94005 7.62024C6.95397 7.61328 6.97486 7.61676 7.00968 7.61328C7.02709 7.73514 6.92612 7.78388 6.86693 7.83959C6.32727 8.3514 5.97562 8.97462 5.85376 9.69881C5.66227 10.8234 5.90947 11.8192 6.83211 12.5782C7.01316 12.7279 7.18725 12.8497 7.41704 12.9194C7.94974 13.083 8.38843 12.6687 8.43717 12.1952C8.48592 11.6973 8.32924 11.2621 8.09945 10.8443C8.00544 10.6737 7.90099 10.5066 7.78261 10.3046C8.00196 10.3499 8.14123 10.4787 8.27701 10.5866C9.6105 11.6486 10.3556 13.0378 10.5889 14.7229C10.648 15.1616 10.6167 15.5968 10.6341 16.032C10.6376 16.1295 10.6202 16.2374 10.7421 16.2792C10.8569 16.3175 10.8952 16.22 10.9544 16.1608C11.1599 15.9589 11.3513 15.75 11.4488 15.4192C11.6194 15.6316 11.6821 15.8405 11.7378 16.0459C12.0268 17.1427 11.8666 18.1802 11.2852 19.1516C10.8186 19.935 10.1258 20.4677 9.34241 20.8959C9.30759 20.9133 9.27278 20.9342 9.23796 20.9516C9.00469 20.9656 8.79927 21.0665 8.60081 21.1745C8.46851 21.1745 8.3362 21.164 8.21086 21.2232C8.15864 21.2824 8.11338 21.2476 8.06463 21.2162C8.53814 21.0596 8.99772 20.8716 9.41553 20.6C9.51301 20.5373 9.61747 20.4955 9.45383 20.3806C9.35286 20.311 9.4016 20.224 9.48516 20.1613C9.65576 20.0325 9.80548 19.8793 9.92734 19.7017C10.185 19.3222 10.4148 18.9323 10.4183 18.4553C10.4183 18.4065 10.4461 18.3125 10.3834 18.3195C10.1258 18.3438 10.2859 18.1767 10.2894 18.1071C10.3138 17.5709 10.1815 17.0835 9.85422 16.6309C9.80548 16.8363 9.77762 17.0104 9.72192 17.1775C9.66273 17.3585 9.55479 17.5082 9.33197 17.4595C9.1161 17.4142 9.06736 17.2541 9.07084 17.0556C9.08477 16.5473 9.1544 16.0459 9.13351 15.5341C9.12306 15.2556 9.03602 15.0258 8.83757 14.8447C8.5834 14.6115 8.32576 14.3747 8.04722 14.1658C7.65031 13.8664 7.27081 13.5426 6.81819 13.3302C6.81122 13.3267 6.80426 13.3233 6.79382 13.3198C6.80078 13.3233 6.80774 13.3267 6.81819 13.3337C6.80078 13.5252 6.87738 13.6993 6.90175 13.8838C6.94701 14.218 7.03753 14.5488 6.91916 14.8865C6.87041 15.0293 6.79381 15.1616 6.64062 15.1825C6.49439 15.1999 6.36557 15.1198 6.28201 14.9945C6.22282 14.9039 6.17756 14.8065 6.11489 14.6916C5.92687 15.1337 5.70056 15.5272 5.5996 15.9763C5.51952 16.3314 5.40114 16.6726 5.75627 16.9651C5.88161 17.0661 5.92339 17.2471 5.79109 17.369C5.63093 17.5152 5.55433 17.3167 5.46033 17.2262C5.36632 17.2993 5.3698 17.4073 5.32802 17.4943C5.18179 17.7729 5.01467 17.7903 4.83711 17.5257C4.73962 17.3794 4.65954 17.2158 4.57946 17.0591C4.54116 16.9825 4.55161 16.8572 4.44716 16.8502C4.35663 16.8432 4.30441 16.9442 4.25566 17.0173C3.75778 17.7624 3.82393 18.5284 4.17907 19.3013C4.32878 19.6321 4.56902 19.9071 4.76399 20.2274C4.56902 20.311 4.41234 20.1822 4.2487 20.1996C4.23826 20.1926 4.23129 20.1822 4.22085 20.1752C4.22781 20.1857 4.23477 20.1961 4.24174 20.2065C4.27655 20.2797 4.30789 20.3528 4.34271 20.4294C4.29396 20.4259 4.24174 20.4224 4.19299 20.4189C4.1721 20.3702 4.13729 20.3354 4.08506 20.318C3.10322 19.4998 2.49741 18.497 2.46608 17.181C2.4417 16.1365 2.77943 15.2451 3.45139 14.4652C3.51755 14.3817 3.56629 14.2563 3.70556 14.2494Z" fill="#FD9704"/>
<path id="Vector_3" d="M4.24576 20.1999C4.4094 20.1825 4.56607 20.3113 4.76105 20.2277C4.56956 19.9074 4.32932 19.6324 4.17612 19.3016C3.82099 18.5252 3.75484 17.7627 4.25272 17.0176C4.30147 16.9445 4.35369 16.8435 4.44421 16.8505C4.54867 16.8575 4.53822 16.9863 4.57652 17.0594C4.66008 17.2161 4.73668 17.3797 4.83416 17.5259C5.01173 17.7871 5.17885 17.7731 5.32508 17.4946C5.37034 17.4076 5.36686 17.2996 5.45739 17.2265C5.54791 17.317 5.62451 17.5155 5.78815 17.3693C5.92045 17.2474 5.87867 17.0664 5.75333 16.9654C5.40168 16.6764 5.51658 16.3317 5.59665 15.9766C5.69762 15.5274 5.92393 15.134 6.11194 14.6918C6.17461 14.8067 6.21988 14.9042 6.27906 14.9948C6.36263 15.1201 6.49145 15.2037 6.63768 15.1828C6.79087 15.1619 6.86747 15.0296 6.91621 14.8868C7.03459 14.5491 6.94407 14.2183 6.89881 13.8841C6.87443 13.6996 6.79784 13.5255 6.81525 13.334C7.26786 13.5498 7.65085 13.8736 8.04428 14.1696C8.31933 14.3785 8.57698 14.6118 8.83462 14.8485C9.03308 15.0296 9.12012 15.2628 9.13057 15.5379C9.14798 16.0462 9.07834 16.5511 9.0679 17.0594C9.06442 17.2578 9.11316 17.418 9.32902 17.4633C9.55185 17.5085 9.65979 17.3623 9.71897 17.1813C9.77468 17.0141 9.80253 16.8366 9.85128 16.6346C10.1751 17.0872 10.3074 17.5712 10.2865 18.1109C10.283 18.1805 10.1228 18.3476 10.3805 18.3232C10.4432 18.3163 10.4153 18.4103 10.4153 18.459C10.4118 18.936 10.182 19.326 9.92439 19.7055C9.80253 19.883 9.65282 20.0362 9.48222 20.1651C9.39866 20.2277 9.34991 20.3148 9.45088 20.3844C9.618 20.4993 9.51007 20.5411 9.41258 20.6038C8.9913 20.8788 8.53172 21.0633 8.06169 21.22C8.04428 21.2235 8.02339 21.2305 8.00598 21.2339C7.87716 21.0807 8.05473 21.0459 8.1174 20.9972C8.62572 20.6038 8.71277 20.0676 8.62224 19.4861C8.59439 19.3086 8.54216 19.1101 8.33326 18.9952C8.32978 19.2111 8.32978 19.4165 8.05473 19.4026C7.7936 19.3886 7.74486 19.2006 7.73789 18.9882C7.73441 18.8281 7.73789 18.6714 7.76923 18.5078C7.85279 18.1213 7.89805 17.7314 7.78664 17.3449C7.71004 17.0698 7.60559 16.8052 7.34098 16.5928C7.32705 16.746 7.39669 16.8261 7.44195 16.9062C7.69959 17.3379 7.64389 17.7557 7.37928 18.1561C7.27135 18.3163 7.10771 18.4521 6.90229 18.3476C6.6899 18.2397 6.75606 18.0273 6.79784 17.8463C6.82221 17.7453 6.90229 17.6548 6.87792 17.505C6.31388 17.9994 6.07365 18.5948 6.07016 19.3016C6.07016 19.3782 6.11194 19.4931 6.02838 19.5209C5.91697 19.5592 5.91349 19.4165 5.8543 19.3573C5.83689 19.3399 5.816 19.3295 5.77074 19.2981C5.61754 19.7821 5.66281 20.2208 5.89608 20.6455C6.08757 20.9972 6.43574 21.1469 6.75954 21.3245C6.08409 21.2444 5.40864 21.1608 4.79935 20.8161C4.76453 20.7952 4.71231 20.7987 4.67052 20.7883C4.63571 20.6003 4.4651 20.5341 4.33976 20.4262C4.30495 20.3531 4.27361 20.28 4.2388 20.2034C4.2388 20.2068 4.24576 20.1999 4.24576 20.1999Z" fill="#FDC841"/>
<path id="Vector_4" d="M6.75779 21.3273C6.43051 21.1498 6.08582 21.0035 5.89433 20.6484C5.66106 20.2201 5.61579 19.7814 5.76899 19.301C5.81077 19.3323 5.83514 19.3428 5.85255 19.3602C5.90826 19.4194 5.91522 19.5621 6.02663 19.5238C6.11019 19.496 6.06493 19.3811 6.06841 19.3045C6.0719 18.5977 6.31213 18.0023 6.87617 17.5079C6.90054 17.6576 6.82046 17.7481 6.79609 17.8491C6.75083 18.0302 6.68467 18.2425 6.90054 18.3505C7.10248 18.4549 7.2696 18.3191 7.37753 18.159C7.64562 17.7586 7.70133 17.3408 7.4402 16.9091C7.39146 16.829 7.3253 16.7524 7.33923 16.5957C7.60384 16.8046 7.70829 17.0727 7.78489 17.3477C7.8963 17.7342 7.85104 18.1276 7.76748 18.5106C7.73266 18.6708 7.72918 18.8309 7.73614 18.9911C7.74311 19.2035 7.79185 19.3915 8.05298 19.4054C8.33151 19.4194 8.32803 19.2105 8.33151 18.9981C8.54041 19.1095 8.59264 19.3114 8.62049 19.489C8.7145 20.0739 8.62397 20.6066 8.11565 21C8.05646 21.0453 7.87541 21.0836 8.00423 21.2368C7.99379 21.2612 7.97986 21.3029 7.9729 21.3029C7.56206 21.2681 7.16166 21.4387 6.75779 21.3273Z" fill="#FCF8A0"/>
<path id="Vector_5" d="M1.01036 5.37109C1.37594 5.52081 1.69973 6.13707 1.57091 6.42605C1.30282 7.03186 1.15311 7.6516 1.32371 8.38275C0.965096 8.1077 0.710933 7.84658 0.609964 7.47055C0.547293 7.23728 0.637817 7.02838 0.78753 6.85081C1.13918 6.41908 1.268 5.94905 1.01036 5.37109Z" fill="#F65218"/>
<path id="Vector_6" d="M13.3324 8.74136C12.9772 8.45586 12.7823 8.1634 12.6709 7.8222C12.6256 7.67945 12.6326 7.50536 12.7405 7.38699C13.0712 7.01445 13.2767 6.59316 13.2976 6.01172C13.6214 6.55834 13.6597 7.07712 13.5065 7.58544C13.402 7.94406 13.2523 8.28526 13.3324 8.74136Z" fill="#F65218"/>
<path id="Vector_7" d="M9.49402 2.46588C9.50098 2.06548 9.57758 1.67902 9.35823 1.30648C9.26771 1.15676 9.3826 0.968753 9.68551 0.648438C9.62632 1.05928 9.79344 1.35522 9.90486 1.67205C10.0198 2.00978 9.72381 2.24653 9.49402 2.46588Z" fill="#F65218"/>
<path id="Vector_8" d="M4.34231 20.4304C4.46765 20.5383 4.63825 20.6045 4.67307 20.7925C4.4572 20.7472 4.25875 20.6532 4.07422 20.5348C4.14037 20.5244 4.18911 20.493 4.18911 20.4199C4.24134 20.4234 4.29356 20.4269 4.34231 20.4304Z" fill="#F65218"/>
<path id="Vector_9" d="M8.58984 21.1779C8.79178 21.07 8.99372 20.9725 9.22699 20.9551C9.23047 20.9899 9.23396 21.0212 9.23744 21.056C9.02505 21.1152 8.81267 21.1675 8.58984 21.1779Z" fill="#F65218"/>
<path id="Vector_10" d="M8.20312 21.2267C8.32847 21.1676 8.46077 21.1745 8.59307 21.178C8.46773 21.2302 8.33891 21.2407 8.20312 21.2267Z" fill="#F65218"/>
<path id="Vector_11" d="M3.75 20.374C3.80223 20.3705 3.84749 20.374 3.86838 20.4332C3.81963 20.4332 3.77437 20.4192 3.75 20.374Z" fill="#F65218"/>
<path id="Vector_12" d="M3.95703 20.4795C4.00926 20.476 4.05452 20.4795 4.07541 20.5386C4.03015 20.5352 3.98488 20.5247 3.95703 20.4795Z" fill="#F65218"/>
<path id="Vector_13" d="M4.08594 20.3145C4.13816 20.3319 4.17298 20.3667 4.19387 20.4154C4.12424 20.4154 4.08942 20.3841 4.08594 20.3145Z" fill="#F65218"/>
<path id="Vector_14" d="M9.23047 20.9541C9.26529 20.9367 9.3001 20.9158 9.33492 20.8984C9.31403 20.9472 9.27573 20.9541 9.23047 20.9541Z" fill="#F65218"/>
<path id="Vector_15" d="M3.70703 14.2475C3.71399 14.2405 3.72096 14.2335 3.72792 14.2266C3.72792 14.23 3.72792 14.237 3.72444 14.2405C3.72096 14.244 3.71399 14.2475 3.70703 14.2475Z" fill="#FD9704"/>
<path id="Vector_16" d="M6.82125 13.3381C6.81428 13.3347 6.80732 13.3312 6.79688 13.3242C6.80384 13.3312 6.8108 13.3347 6.82125 13.3381Z" fill="#FDC841"/>
<path id="Vector_17" d="M4.24355 20.2091C4.23658 20.1986 4.22962 20.1882 4.22266 20.1777C4.2331 20.1847 4.24006 20.1951 4.25051 20.2021L4.24355 20.2091Z" fill="#FDC841"/>
</g>
</svg>
