<svg width="18" height="18" viewBox="0 0 18 18" fill="none" xmlns="http://www.w3.org/2000/svg">
<g id="Icon/language">
<path id="Oval" fill-rule="evenodd" clip-rule="evenodd" d="M9.264 16.5007C13.2607 16.5007 16.5007 13.2607 16.5007 9.264C16.5007 5.2673 13.2607 2.02734 9.264 2.02734C5.2673 2.02734 2.02734 5.2673 2.02734 9.264C2.02734 13.2607 5.2673 16.5007 9.264 16.5007Z" stroke="#D8D8D8"/>
<path id="Oval_2" fill-rule="evenodd" clip-rule="evenodd" d="M9.26185 15.776C9.26185 15.776 12.1565 13.4076 12.1565 9.26299C12.1565 5.11836 9.26185 2.75 9.26185 2.75C9.26185 2.75 6.36719 5.11836 6.36719 9.26299C6.36719 13.4076 9.26185 15.776 9.26185 15.776Z" stroke="#D8D8D8"/>
<path id="Line" d="M2.38918 7.09085L16.1388 7.09085" stroke="#D8D8D8" stroke-linecap="round"/>
<path id="Line_2" d="M2.38918 11.4346H16.1388" stroke="#D8D8D8" stroke-linecap="round"/>
</g>
</svg>
