<svg width="29" height="39" viewBox="0 0 29 39" fill="none" xmlns="http://www.w3.org/2000/svg">
<g id="logo">
<path id="Vector" d="M28.9974 16.4105V8.23828L23.8516 11.1237V19.3357V21.6767V27.5079V38.1051L28.9974 35.18V24.5827V18.7514V16.4105Z" fill="#E24DFF"/>
<path id="Vector_2" d="M23.8525 11.1277L28.9983 8.24229L21.7117 4.10012L19.6011 2.90027L14.4991 0L9.38838 2.90531L7.27407 4.10723L0 8.24229L5.12809 11.1277L12.376 7.0075L14.4902 5.80559L16.601 7.00543L23.8525 11.1277Z" fill="#E375FA"/>
<path id="Vector_3" d="M0 8.23828V16.4105V18.7514V24.5827L5.12809 27.4978L7.24957 28.7038L14.4991 32.825V26.9937L7.24957 22.8726L5.12809 21.6666V19.3256V11.1237L0 8.23828Z" fill="#B43DCB"/>
<path id="Vector_4" d="M14.5 26.9976V32.8289L21.7245 28.722V22.8906L14.5 26.9976Z" fill="#E24DFF"/>
<path id="Vector_5" d="M21.7245 12.3242L14.5 16.3753V16.4033V24.6596L21.7245 20.5527V12.3242Z" fill="#E24DFF"/>
<path id="Vector_6" d="M14.4996 24.6596V16.4033L7.25 12.3242V20.5385L14.4996 24.6596Z" fill="#B43DCB"/>
<path id="Vector_7" d="M14.4996 16.3722L21.7241 12.3211L14.4871 8.20703L7.25 12.3211L14.4996 16.4001V16.3722Z" fill="#E375FA"/>
</g>
</svg>
