<svg width="38" height="22" viewBox="0 0 38 22" fill="none" xmlns="http://www.w3.org/2000/svg">
<g id="XMLID_391_">
<path id="XMLID_395_" d="M20.0698 4.65462C21.2369 6.49342 21.9231 8.66665 21.9231 11.0006C21.9231 13.3347 21.2369 15.508 20.0698 17.3467C19.1252 18.8348 17.8608 20.0957 16.3728 21.0391L27.9617 21.0391C33.4965 21.0391 38 16.5356 38 11.0007C38 5.46596 33.4965 0.962368 27.9617 0.962367L16.3728 0.962366C17.8608 1.90588 19.1252 3.16658 20.0698 4.65462Z" fill="#9E9E9E"/>
<path id="XMLID_392_" d="M10.0397 21.0391C15.5746 21.0391 20.0781 16.5355 20.0781 11.0006C20.0781 5.46588 15.5746 0.962289 10.0397 0.962289C4.50494 0.962288 0.00135367 5.46595 0.00135319 11.0006C0.0013527 16.5355 4.50494 21.0391 10.0397 21.0391ZM10.0397 4.65454C13.5386 4.65454 16.3858 7.50189 16.3858 11.0005C16.3858 14.4994 13.5385 17.3467 10.0397 17.3467C6.54095 17.3467 3.69361 14.4993 3.69361 11.0005C3.69361 7.50188 6.54087 4.65454 10.0397 4.65454Z" fill="#F5F5F5"/>
</g>
</svg>
