<svg width="38" height="22" viewBox="0 0 38 22" fill="none" xmlns="http://www.w3.org/2000/svg">
<g id="XMLID_391_">
<path id="XMLID_395_" d="M17.9302 17.3454C16.7631 15.5066 16.0769 13.3334 16.0769 10.9994C16.0769 8.6653 16.7631 6.49199 17.9302 4.65327C18.8748 3.16522 20.1392 1.9043 21.6272 0.960938H10.0383C4.50351 0.960861 0 5.46437 0 10.9993C0 16.534 4.50351 21.0376 10.0383 21.0376H21.6272C20.1392 20.0941 18.8748 18.8334 17.9302 17.3454Z" fill="#00E701"/>
<path id="XMLID_392_" d="M27.9603 0.960938C22.4254 0.960938 17.9219 5.46445 17.9219 10.9994C17.9219 16.5341 22.4254 21.0377 27.9603 21.0377C33.4951 21.0377 37.9986 16.534 37.9986 10.9994C37.9986 5.46445 33.4951 0.960938 27.9603 0.960938ZM27.9603 17.3455C24.4614 17.3455 21.6142 14.4981 21.6142 10.9995C21.6142 7.50061 24.4615 4.65335 27.9603 4.65335C31.4591 4.65335 34.3064 7.50069 34.3064 10.9995C34.3064 14.4981 31.4591 17.3455 27.9603 17.3455Z" fill="#F5F5F5"/>
</g>
</svg>
