<svg width="20" height="20" viewBox="0 0 20 20" fill="none" xmlns="http://www.w3.org/2000/svg">
<path id="tag_fill_round-[#1176]" fill-rule="evenodd" clip-rule="evenodd" d="M5.02014 6.22658C4.44426 6.22658 3.97689 5.76472 3.97689 5.19557C3.97689 4.62643 4.44426 4.16432 5.02014 4.16432C5.59602 4.16432 6.0634 4.62643 6.0634 5.19557C6.0634 5.76472 5.59602 6.22658 5.02014 6.22658ZM19.3889 10.6477L15.9337 7.23293C10.0612 1.42914 11.4351 2.81898 9.1577 0.418703C8.96157 0.224862 8.69658 0 8.42012 0H2.08547C0.933717 0 0 1.1569 0 2.29517V8.55472C0 8.82898 0.109545 9.09087 0.304634 9.2847C4.39628 13.3275 1.45012 10.4156 10.5369 19.3961C11.3517 20.2013 12.6724 20.2013 13.4872 19.3961C18.0181 14.9192 17.0124 15.9122 19.3889 13.5635C20.2037 12.7583 20.2037 11.453 19.3889 10.6477Z" fill="#F5F5F5"/>
</svg>
