<svg width="17" height="14" viewBox="0 0 17 14" fill="none" xmlns="http://www.w3.org/2000/svg">
<path id="Vector" d="M1.81864 6.25918C6.09824 4.39462 8.95197 3.16537 10.3798 2.57149C14.4567 0.875773 15.3038 0.581212 15.8559 0.571383C15.9774 0.569349 16.2489 0.59944 16.4248 0.742164C16.5734 0.86267 16.6142 1.02546 16.6338 1.13972C16.6533 1.25398 16.6776 1.51426 16.6583 1.71763C16.4374 4.03894 15.4815 9.67209 14.9951 12.272C14.7893 13.3721 14.3841 13.7409 13.9918 13.777C13.1394 13.8555 12.492 13.2137 11.6663 12.6724C10.3742 11.8254 9.64433 11.2982 8.39016 10.4717C6.94076 9.51661 7.88035 8.99165 8.70636 8.13371C8.92253 7.90918 12.6787 4.49263 12.7513 4.18276C12.7604 4.14396 12.7689 3.99946 12.683 3.92321C12.5972 3.84689 12.4706 3.87296 12.3791 3.8937C12.2496 3.92314 10.1855 5.28739 6.18689 7.98652C5.60104 8.38888 5.07037 8.58491 4.59491 8.5746C4.07075 8.56328 3.06247 8.27827 2.31293 8.03461C1.39357 7.73572 0.662893 7.57775 0.726518 7.07024C0.759661 6.80583 1.1237 6.5355 1.81864 6.25918Z" fill="#F7FBFA"/>
</svg>
