<svg width="17" height="18" viewBox="0 0 17 18" fill="none" xmlns="http://www.w3.org/2000/svg">
<g id="Group">
<path id="Vector" d="M6.90063 14.9547C6.90063 15.528 6.90894 16.0597 6.89232 16.5998C6.88402 16.7411 6.83416 16.9239 6.73446 16.9987C6.66798 17.0485 6.46026 16.9654 6.35225 16.8823C4.5326 15.5778 2.71295 14.2733 0.901611 12.9522C0.785286 12.8691 0.735433 12.6946 0.652344 12.5617C0.793595 12.5035 0.934846 12.3872 1.0761 12.3872C6.0282 12.3789 10.9803 12.3789 15.9324 12.3789C16.3312 12.3789 16.3728 12.4205 16.3728 12.811C16.3728 13.3677 16.3728 13.9244 16.3728 14.4811C16.3728 14.9297 16.3478 14.9547 15.9075 14.9547C13.0575 14.9547 10.2076 14.9547 7.35762 14.9547C7.23299 14.9547 7.10005 14.9547 6.90063 14.9547Z" fill="#E275F9"/>
<path id="Vector_2" d="M8.49743 4.62663C6.04631 4.62663 3.59518 4.62663 1.15237 4.62663C0.653833 4.62663 0.628906 4.6017 0.628906 4.11148C0.628906 3.58802 0.628906 3.05625 0.628906 2.53279C0.628906 2.10073 0.662142 2.05918 1.0942 2.05918C3.95246 2.05918 6.81073 2.05918 9.66899 2.05918C10.1177 2.05918 10.1177 2.05918 10.1177 1.61881C10.1177 1.19506 10.1094 0.779611 10.126 0.355857C10.1343 0.239533 10.1841 0.0733548 10.2672 0.0151925C10.3337 -0.026352 10.5082 0.0235014 10.5996 0.0899726C12.4525 1.4194 14.3054 2.74882 16.1499 4.09486C16.2496 4.16964 16.2912 4.32751 16.3576 4.44383C16.2247 4.502 16.0918 4.61001 15.9588 4.61001C13.4828 4.63494 10.9901 4.62663 8.49743 4.62663Z" fill="#E275F9"/>
<path id="Vector_3" d="M8.48881 5.44141C10.0343 5.44141 11.5797 5.44141 13.1252 5.44141C13.5157 5.44141 13.5655 5.48295 13.5655 5.87347C13.5655 7.62665 13.5655 9.38813 13.5655 11.1413C13.5655 11.5318 13.5157 11.5734 13.1252 11.5734C10.0426 11.5734 6.96828 11.5734 3.88568 11.5734C3.48686 11.5734 3.44531 11.5318 3.44531 11.1496C3.44531 9.39644 3.44531 7.63495 3.44531 5.88178C3.44531 5.49126 3.49517 5.44972 3.88568 5.44972C5.41452 5.44141 6.95167 5.44141 8.48881 5.44141ZM8.49712 6.48002C7.71608 6.48002 6.94336 6.48002 6.16232 6.48002C5.78842 6.48002 5.60563 6.6462 5.48099 7.00348C5.43945 7.1198 5.2982 7.25275 5.17356 7.29429C4.84121 7.40231 4.66672 7.59341 4.66672 7.94238C4.66672 8.30798 4.66672 8.68188 4.66672 9.04747C4.66672 9.43799 4.84121 9.62078 5.21511 9.73711C5.33143 9.77034 5.45607 9.90328 5.4893 10.0196C5.60563 10.3686 5.80504 10.5431 6.17063 10.5431C7.72439 10.5431 9.27816 10.5431 10.8402 10.5431C11.2224 10.5431 11.4135 10.3686 11.5382 9.99468C11.5797 9.88667 11.7127 9.76203 11.829 9.7288C12.1613 9.62909 12.3524 9.42968 12.3524 9.08901C12.3524 8.7068 12.3524 8.3329 12.3524 7.95069C12.3524 7.56848 12.1946 7.40231 11.829 7.28598C11.7127 7.25275 11.5797 7.12811 11.5382 7.01179C11.4135 6.63789 11.2391 6.48002 10.8402 6.47171C10.0509 6.48002 9.27816 6.48002 8.49712 6.48002Z" fill="#E275F9"/>
<path id="Vector_4" d="M8.50391 7.01172C9.35142 7.01172 9.99951 7.65981 9.99951 8.50732C9.99951 9.34652 9.34311 10.0112 8.50391 10.0112C7.67302 10.0112 7 9.33821 7 8.50732C7 7.67643 7.66471 7.01172 8.50391 7.01172ZM9.06061 8.08357C8.90274 7.8343 8.79472 7.64319 8.67009 7.4604C8.66178 7.45209 8.56207 7.49363 8.52053 7.52687C8.42082 7.61827 8.34604 7.73459 8.23803 7.81768C7.98876 8.00048 7.98045 8.35776 8.24633 8.53225C8.34604 8.59872 8.47898 8.63195 8.587 8.69842C8.64516 8.73997 8.68671 8.82306 8.72825 8.88122C8.65347 8.93107 8.587 9.01416 8.51222 9.01416C8.36266 9.02247 8.2131 8.98093 7.95552 8.94769C8.13832 9.21358 8.27126 9.40468 8.4042 9.58748C8.41251 9.59578 8.50391 9.54593 8.54545 9.5127C8.64516 9.4213 8.75318 9.33821 8.82796 9.2385C8.92766 9.11387 9.06892 8.97262 9.06892 8.83137C9.06892 8.69842 8.93597 8.54886 8.82796 8.44085C8.76149 8.37438 8.62854 8.36607 8.54545 8.30791C8.48729 8.26636 8.46237 8.18327 8.42913 8.1168C8.48729 8.06695 8.55376 8.00048 8.62023 8.00048C8.72825 8.00048 8.84457 8.04202 9.06061 8.08357Z" fill="#E275F9"/>
</g>
</svg>
