<svg width="15" height="15" viewBox="0 0 15 15" fill="none" xmlns="http://www.w3.org/2000/svg">
<g id="Frame" clip-path="url(#clip0_1999_11731)">
<path id="Vector" d="M14.9953 11.9888C14.9953 8.69638 14.9953 5.41025 14.9953 2.11787C14.9953 0.880883 14.1207 0 12.8775 0C9.29769 0 5.71793 0 2.13193 0C1.93826 0 1.75084 0.0124948 1.56341 0.062474C0.601315 0.318617 0.0203073 1.09954 0.0203073 2.1491C0.0203073 5.53519 0.0203073 8.92753 0.0203073 12.3199C0.0203073 12.4136 0.0140599 12.501 0.0078125 12.5948C0.0140599 12.7947 0.0203073 12.9946 0.0265547 13.1945C0.0328021 13.2257 0.0328021 13.257 0.0390495 13.2882C0.251461 14.3565 1.13859 15.025 2.26937 14.9938C3.66879 14.9625 5.0682 14.9875 6.46762 14.9875C8.61673 14.9875 10.7721 14.9938 12.9212 14.9875C14.1019 14.9813 14.9828 14.0941 14.9953 12.9134C14.9953 12.701 15.0016 12.4823 15.0078 12.2699C15.0016 12.1762 14.9953 12.0825 14.9953 11.9888ZM9.47887 13.3632C9.42264 13.3694 9.37266 13.3632 9.31643 13.3632C8.74167 13.3632 8.16691 13.3632 7.58591 13.3632C7.01739 13.3632 6.44888 13.3632 5.88037 13.3632C5.82414 13.3632 5.77416 13.3632 5.71793 13.3632C5.60548 13.3569 5.51177 13.3132 5.51177 13.1945C5.51177 13.0758 5.59299 13.0196 5.70544 13.0133C5.74292 13.0133 5.78041 13.0133 5.81789 13.0133C6.98616 13.0133 8.15442 13.0133 9.32268 13.0133C9.37891 13.0133 9.42889 13.0071 9.48511 13.0196C9.58507 13.0383 9.64755 13.1008 9.6413 13.2132C9.6413 13.3132 9.56633 13.3507 9.47887 13.3632ZM9.27895 12.6947C8.71668 12.701 8.15442 12.6947 7.5984 12.6947C7.03613 12.6947 6.47387 12.6947 5.91785 12.6947C5.71169 12.6947 5.5555 12.6197 5.51802 12.3948C5.48053 12.1699 5.62422 12.0013 5.88037 11.995C6.24271 11.9888 6.60506 11.995 6.96117 11.995C7.7296 11.995 8.49802 11.995 9.26645 11.995C9.46012 11.995 9.61631 12.045 9.67253 12.2574C9.73501 12.4948 9.56008 12.6885 9.27895 12.6947ZM12.2715 6.79717C12.2027 7.00333 12.0278 7.11579 11.7404 7.11579C11.1407 7.12203 10.5409 7.12203 9.94117 7.11579C9.77874 7.11579 9.73501 7.16576 9.73501 7.3282C9.74126 8.52145 9.74126 9.70846 9.73501 10.9017C9.73501 11.4702 9.49136 11.7076 8.9166 11.7076C8.04821 11.7076 7.17982 11.7076 6.31144 11.7076C5.79915 11.7076 5.56175 11.4702 5.56175 10.9642C5.56175 10.3707 5.56175 9.77718 5.56175 9.18992C5.56175 8.57768 5.5555 7.95918 5.568 7.34694C5.57424 7.15327 5.50552 7.11579 5.33059 7.12203C4.77458 7.13453 4.22481 7.12203 3.66879 7.12828C3.44388 7.12828 3.25646 7.07205 3.1565 6.85339C3.05654 6.62849 3.13776 6.44107 3.30019 6.27239C4.63713 4.93544 5.97408 3.5985 7.31102 2.26156C7.56716 2.00541 7.82331 1.99917 8.07945 2.24906C8.87287 3.02999 9.67253 3.81091 10.441 4.61683C10.972 5.1666 11.4968 5.72262 12.0653 6.2349C12.2465 6.37859 12.3527 6.55352 12.2715 6.79717Z" fill="#FDFDFD"/>
</g>
<defs>
<clipPath id="clip0_1999_11731">
<rect width="15" height="14.9938" fill="white"/>
</clipPath>
</defs>
</svg>
