<svg width="24" height="23" viewBox="0 0 24 23" fill="none" xmlns="http://www.w3.org/2000/svg">
<path d="M22.5018 6.25994C22.2493 5.31513 21.5051 4.57091 20.5602 4.31836C18.8478 3.85937 11.9804 3.85938 11.9804 3.85938C11.9804 3.85938 5.11302 3.85937 3.40056 4.31836C2.45576 4.57091 1.71153 5.31513 1.45898 6.25994C1 7.97239 1 11.5457 1 11.5457C1 11.5457 1 15.1189 1.45898 16.8314C1.71153 17.7762 2.45576 18.5204 3.40056 18.773C5.11302 19.2319 11.9804 19.2319 11.9804 19.2319C11.9804 19.2319 18.8478 19.2319 20.5602 18.773C21.5051 18.5204 22.2493 17.7762 22.5018 16.8314C22.9608 15.1189 22.9608 11.5457 22.9608 11.5457C22.9608 11.5457 22.9608 7.97239 22.5018 6.25994Z" fill="white"/>
<path d="M9.78516 14.8382L15.4901 11.5441L9.78516 8.25V14.8382Z" fill="#E24DFF"/>
</svg>
